%FSLAX43Y43*%
%MOMM*%
G71*
G01*
G75*
G04 Layer_Physical_Order=2*
G04 Layer_Color=16711680*
%ADD10R,0.250X0.800*%
%ADD11R,0.800X0.250*%
%ADD12R,1.300X1.200*%
%ADD13R,1.600X0.900*%
%ADD14R,2.800X1.000*%
%ADD15R,2.800X1.000*%
%ADD16R,1.200X1.800*%
%ADD17R,1.200X1.400*%
%ADD18R,0.900X1.050*%
%ADD19R,1.470X1.270*%
%ADD20R,0.830X0.630*%
%ADD21R,0.600X0.500*%
%ADD22R,0.900X0.600*%
%ADD23R,0.300X0.300*%
%ADD24R,0.800X0.900*%
%ADD25R,0.550X1.200*%
%ADD26R,1.143X0.254*%
%ADD27R,0.254X1.143*%
%ADD28R,4.826X5.715*%
%ADD29R,1.600X3.000*%
%ADD30R,2.400X2.400*%
%ADD31R,3.800X2.800*%
%ADD32R,0.400X0.750*%
%ADD33R,1.219X2.235*%
%ADD34R,3.600X2.200*%
%ADD35R,5.334X1.930*%
%ADD36R,2.210X0.610*%
%ADD37R,0.580X1.200*%
%ADD38R,2.000X2.000*%
%ADD39R,1.000X1.400*%
%ADD40C,1.000*%
%ADD41R,0.350X0.350*%
%ADD42R,1.800X1.400*%
%ADD43R,2.100X1.400*%
%ADD44R,1.600X0.350*%
%ADD45R,1.200X0.800*%
%ADD46C,1.000*%
%ADD47C,0.152*%
%ADD48R,2.400X2.400*%
%ADD49R,0.300X3.000*%
%ADD50R,0.200X1.000*%
%ADD51R,0.200X2.000*%
%ADD52R,0.300X3.500*%
%ADD53R,0.300X1.500*%
%ADD54R,0.300X2.500*%
%ADD55R,9.398X1.016*%
%ADD56R,9.398X0.762*%
%ADD57R,9.398X0.610*%
%ADD58R,9.398X0.457*%
%ADD59R,9.398X0.305*%
%ADD60R,9.398X0.254*%
%ADD61R,9.398X0.203*%
%ADD62R,9.398X0.152*%
%ADD63R,0.330X0.686*%
%ADD64R,0.400X0.750*%
%ADD65C,0.321*%
%ADD66C,0.361*%
%ADD67C,0.405*%
%ADD68C,0.455*%
%ADD69C,0.511*%
%ADD70C,0.573*%
%ADD71C,0.644*%
%ADD72C,0.723*%
%ADD73C,0.812*%
%ADD74C,0.912*%
%ADD75C,1.020*%
%ADD76C,1.150*%
%ADD77C,1.290*%
%ADD78C,1.450*%
%ADD79C,1.630*%
%ADD80C,1.830*%
%ADD81C,2.050*%
%ADD82C,2.300*%
%ADD83C,2.590*%
%ADD84C,2.910*%
%ADD85C,3.260*%
%ADD86R,1.270X0.559*%
%ADD87R,0.559X1.270*%
%ADD88R,0.890X2.600*%
%ADD89R,5.600X3.600*%
%ADD90R,0.320X0.600*%
%ADD91R,0.600X0.320*%
%ADD92R,1.000X1.950*%
%ADD93C,0.154*%
%ADD94C,0.200*%
D26*
X115387Y10950D02*
D03*
X115387Y11450D02*
D03*
X115387Y11950D02*
D03*
X115387Y12450D02*
D03*
X115387Y12950D02*
D03*
X115387Y13450D02*
D03*
X115387Y13950D02*
D03*
X115387Y14450D02*
D03*
X108387Y14450D02*
D03*
X108387Y13950D02*
D03*
X108387Y13450D02*
D03*
X108387Y12950D02*
D03*
X108387Y12450D02*
D03*
X108387Y11950D02*
D03*
X108387Y11450D02*
D03*
X108387Y10950D02*
D03*
D27*
X110137Y9200D02*
D03*
X110637Y9200D02*
D03*
X111137Y9200D02*
D03*
X111637Y9200D02*
D03*
X112137Y9200D02*
D03*
X112637Y9200D02*
D03*
X113137Y9200D02*
D03*
X113637Y9200D02*
D03*
X113637Y16200D02*
D03*
X113137Y16200D02*
D03*
X112637Y16200D02*
D03*
X112137Y16200D02*
D03*
X111637Y16200D02*
D03*
X111137Y16200D02*
D03*
X110637Y16200D02*
D03*
X110137Y16200D02*
D03*
D40*
X79694Y3700D02*
D03*
X85694Y5700D02*
D03*
X79694Y5700D02*
D03*
X79694Y7700D02*
D03*
X85694Y7700D02*
D03*
X79694Y9700D02*
D03*
X85694Y9700D02*
D03*
X79694Y11700D02*
D03*
X85694Y11700D02*
D03*
X79694Y13700D02*
D03*
X85694Y13700D02*
D03*
X79694Y15700D02*
D03*
X85694Y15700D02*
D03*
X79694Y17700D02*
D03*
X85694Y17700D02*
D03*
X79694Y19700D02*
D03*
X85694Y19700D02*
D03*
X79694Y21700D02*
D03*
X85694Y21700D02*
D03*
D46*
X79694Y3700D02*
X79694Y3700D01*
X80694Y4700D01*
X84694Y4700D01*
X85694Y5700D01*
X84694Y6700D02*
X85694Y7700D01*
X80694Y6700D02*
X84694Y6700D01*
X79694Y5700D02*
X80694Y6700D01*
X84694Y8700D02*
X85694Y9700D01*
X80694Y8700D02*
X84694Y8700D01*
X79694Y7700D02*
X80694Y8700D01*
X84694Y10700D02*
X85694Y11700D01*
X80694Y10700D02*
X84694Y10700D01*
X79694Y9700D02*
X80694Y10700D01*
X84694Y12700D02*
X85694Y13700D01*
X80694Y12700D02*
X84694Y12700D01*
X79694Y11700D02*
X80694Y12700D01*
X84694Y14700D02*
X85694Y15700D01*
X80694Y14700D02*
X84694Y14700D01*
X79694Y13700D02*
X80694Y14700D01*
X84694Y16700D02*
X85694Y17700D01*
X80694Y16700D02*
X84694Y16700D01*
X79694Y15700D02*
X80694Y16700D01*
X84694Y18700D02*
X85694Y19700D01*
X80694Y18700D02*
X84694Y18700D01*
X79694Y17700D02*
X80694Y18700D01*
X84694Y20700D02*
X85694Y21700D01*
X80694Y20700D02*
X84694Y20700D01*
X79694Y19700D02*
X80694Y20700D01*
D47*
X94065Y34054D02*
X94307Y34296D01*
X94670Y34416D01*
X95153Y34416D01*
X95516Y34296D01*
X95758Y34054D01*
X95758Y33812D01*
X95637Y33570D01*
X95516Y33449D01*
X95274Y33328D01*
X94549Y33086D01*
X94307Y32965D01*
X94186Y32844D01*
X94065Y32603D01*
X94065Y32240D01*
X94307Y31998D01*
X94670Y31877D01*
X95153Y31877D01*
X95516Y31998D01*
X95758Y32240D01*
X93497Y34416D02*
X93497Y31877D01*
X91151Y33812D02*
X91272Y34054D01*
X91513Y34296D01*
X91755Y34416D01*
X92239Y34416D01*
X92481Y34296D01*
X92723Y34054D01*
X92844Y33812D01*
X92965Y33449D01*
X92965Y32844D01*
X92844Y32482D01*
X92723Y32240D01*
X92481Y31998D01*
X92239Y31877D01*
X91755Y31877D01*
X91513Y31998D01*
X91272Y32240D01*
X91151Y32482D01*
X91151Y32844D01*
X91755Y32844D02*
X91151Y32844D01*
X90570Y34416D02*
X90570Y31877D01*
X90570Y34416D02*
X88998Y34416D01*
X90570Y33207D02*
X89603Y33207D01*
X87982Y34416D02*
X88224Y34296D01*
X88466Y34054D01*
X88587Y33812D01*
X88708Y33449D01*
X88708Y32844D01*
X88587Y32482D01*
X88466Y32240D01*
X88224Y31998D01*
X87982Y31877D01*
X87499Y31877D01*
X87257Y31998D01*
X87015Y32240D01*
X86894Y32482D01*
X86773Y32844D01*
X86773Y33449D01*
X86894Y33812D01*
X87015Y34054D01*
X87257Y34296D01*
X87499Y34416D01*
X87982Y34416D01*
X86181Y34416D02*
X84488Y31877D01*
X84488Y34416D02*
X86181Y31877D01*
X81924Y33086D02*
X80836Y33086D01*
X80473Y33207D01*
X80352Y33328D01*
X80231Y33570D01*
X80231Y33933D01*
X80352Y34175D01*
X80473Y34296D01*
X80836Y34416D01*
X81924Y34416D01*
X81924Y31877D01*
X77849Y33812D02*
X77970Y34054D01*
X78212Y34296D01*
X78453Y34416D01*
X78937Y34416D01*
X79179Y34296D01*
X79421Y34054D01*
X79542Y33812D01*
X79663Y33449D01*
X79663Y32844D01*
X79542Y32482D01*
X79421Y32240D01*
X79179Y31998D01*
X78937Y31877D01*
X78453Y31877D01*
X78212Y31998D01*
X77970Y32240D01*
X77849Y32482D01*
X77135Y34416D02*
X77135Y31877D01*
X77135Y34416D02*
X76047Y34416D01*
X75684Y34296D01*
X75563Y34175D01*
X75442Y33933D01*
X75442Y33691D01*
X75563Y33449D01*
X75684Y33328D01*
X76047Y33207D01*
X77135Y33207D02*
X76047Y33207D01*
X75684Y33086D01*
X75563Y32965D01*
X75442Y32723D01*
X75442Y32361D01*
X75563Y32119D01*
X75684Y31998D01*
X76047Y31877D01*
X77135Y31877D01*
X72879Y34416D02*
X72879Y31877D01*
X72879Y34416D02*
X71790Y34416D01*
X71428Y34296D01*
X71307Y34175D01*
X71186Y33933D01*
X71186Y33691D01*
X71307Y33449D01*
X71428Y33328D01*
X71790Y33207D01*
X72879Y33207D01*
X72032Y33207D02*
X71186Y31877D01*
X70617Y34416D02*
X70617Y32603D01*
X70496Y32240D01*
X70255Y31998D01*
X69892Y31877D01*
X69650Y31877D01*
X69287Y31998D01*
X69045Y32240D01*
X68924Y32603D01*
X68924Y34416D01*
X68223Y34416D02*
X68223Y31877D01*
X66772Y31877D01*
X64922Y34416D02*
X66494Y34416D01*
X66494Y31877D01*
X64922Y31877D01*
X66494Y33207D02*
X65526Y33207D01*
X64499Y34416D02*
X64499Y31877D01*
X64499Y34416D02*
X63410Y34416D01*
X63047Y34296D01*
X62926Y34175D01*
X62806Y33933D01*
X62806Y33691D01*
X62926Y33449D01*
X63047Y33328D01*
X63410Y33207D01*
X64499Y33207D01*
X63652Y33207D02*
X62806Y31877D01*
X58247Y34416D02*
X58247Y31877D01*
X58247Y34416D02*
X57158Y34416D01*
X56796Y34296D01*
X56675Y34175D01*
X56554Y33933D01*
X56554Y33691D01*
X56675Y33449D01*
X56796Y33328D01*
X57158Y33207D01*
X58247Y33207D02*
X57158Y33207D01*
X56796Y33086D01*
X56675Y32965D01*
X56554Y32723D01*
X56554Y32361D01*
X56675Y32119D01*
X56796Y31998D01*
X57158Y31877D01*
X58247Y31877D01*
X55260Y34416D02*
X55502Y34296D01*
X55743Y34054D01*
X55864Y33812D01*
X55985Y33449D01*
X55985Y32844D01*
X55864Y32482D01*
X55743Y32240D01*
X55502Y31998D01*
X55260Y31877D01*
X54776Y31877D01*
X54534Y31998D01*
X54292Y32240D01*
X54171Y32482D01*
X54050Y32844D01*
X54050Y33449D01*
X54171Y33812D01*
X54292Y34054D01*
X54534Y34296D01*
X54776Y34416D01*
X55260Y34416D01*
X52611Y34416D02*
X52611Y31877D01*
X53458Y34416D02*
X51765Y34416D01*
X50616Y34416D02*
X50616Y31877D01*
X51463Y34416D02*
X49770Y34416D01*
X48742Y34416D02*
X48984Y34296D01*
X49225Y34054D01*
X49346Y33812D01*
X49467Y33449D01*
X49467Y32844D01*
X49346Y32482D01*
X49225Y32240D01*
X48984Y31998D01*
X48742Y31877D01*
X48258Y31877D01*
X48016Y31998D01*
X47774Y32240D01*
X47653Y32482D01*
X47533Y32844D01*
X47533Y33449D01*
X47653Y33812D01*
X47774Y34054D01*
X48016Y34296D01*
X48258Y34416D01*
X48742Y34416D01*
X46940Y34416D02*
X46940Y31877D01*
X46940Y34416D02*
X45973Y31877D01*
X45005Y34416D02*
X45973Y31877D01*
X45005Y34416D02*
X45005Y31877D01*
X42284Y34416D02*
X42284Y31877D01*
X40833Y31877D01*
X38620Y31877D02*
X39588Y34416D01*
X40555Y31877D01*
X40192Y32723D02*
X38983Y32723D01*
X38028Y34416D02*
X37060Y33207D01*
X37060Y31877D01*
X36093Y34416D02*
X37060Y33207D01*
X34194Y34416D02*
X35766Y34416D01*
X35766Y31877D01*
X34194Y31877D01*
X35766Y33207D02*
X34799Y33207D01*
X33771Y34416D02*
X33771Y31877D01*
X33771Y34416D02*
X32683Y34416D01*
X32320Y34296D01*
X32199Y34175D01*
X32078Y33933D01*
X32078Y33691D01*
X32199Y33449D01*
X32320Y33328D01*
X32683Y33207D01*
X33771Y33207D01*
X32925Y33207D02*
X32078Y31877D01*
D65*
X109220Y19143D02*
D03*
D66*
X110744Y19124D02*
D03*
D67*
X112268Y19102D02*
D03*
D68*
X113792Y19076D02*
D03*
D69*
X115316Y19049D02*
D03*
D70*
X116840Y19017D02*
D03*
D71*
X118364Y18982D02*
D03*
D72*
X119888Y18943D02*
D03*
D73*
X121455Y18898D02*
D03*
D74*
X123118Y18848D02*
D03*
D75*
X124883Y18794D02*
D03*
D76*
X126769Y18729D02*
D03*
D77*
X128788Y18659D02*
D03*
D78*
X130959Y18579D02*
D03*
D79*
X133298Y18489D02*
D03*
D80*
X135829Y18389D02*
D03*
D81*
X138568Y18279D02*
D03*
D82*
X141544Y18154D02*
D03*
D83*
X144788Y18009D02*
D03*
D84*
X148339Y17849D02*
D03*
D85*
X152223Y17674D02*
D03*
D86*
X104496Y15500D02*
D03*
X104496Y14700D02*
D03*
X104496Y13900D02*
D03*
X104496Y13100D02*
D03*
X104496Y12300D02*
D03*
X104496Y11500D02*
D03*
X104496Y10700D02*
D03*
X104496Y9900D02*
D03*
X95910Y9900D02*
D03*
X95910Y10700D02*
D03*
X95910Y11500D02*
D03*
X95910Y12300D02*
D03*
X95910Y13100D02*
D03*
X95910Y13900D02*
D03*
X95910Y14700D02*
D03*
X95910Y15500D02*
D03*
D87*
X103003Y8407D02*
D03*
X102203Y8407D02*
D03*
X101403Y8407D02*
D03*
X100603Y8407D02*
D03*
X99803Y8407D02*
D03*
X99003Y8407D02*
D03*
X98203Y8407D02*
D03*
X97403Y8407D02*
D03*
X97403Y16993D02*
D03*
X98203Y16993D02*
D03*
X99003Y16993D02*
D03*
X99803Y16993D02*
D03*
X100603Y16993D02*
D03*
X101403Y16993D02*
D03*
X102203Y16993D02*
D03*
X103003Y16993D02*
D03*
D88*
X3414Y6450D02*
D03*
X4684Y6450D02*
D03*
X5954Y6450D02*
D03*
X12334Y6450D02*
D03*
X13604Y6450D02*
D03*
X14874Y6450D02*
D03*
X16144Y6450D02*
D03*
X17414Y6450D02*
D03*
X18684Y6450D02*
D03*
X19954Y6450D02*
D03*
X21224Y6450D02*
D03*
X22494Y6450D02*
D03*
X23764Y6450D02*
D03*
X25034Y6450D02*
D03*
X25034Y18950D02*
D03*
X23764Y18950D02*
D03*
X22494Y18950D02*
D03*
X21224Y18950D02*
D03*
X19954Y18950D02*
D03*
X18684Y18950D02*
D03*
X17414Y18950D02*
D03*
X16144Y18950D02*
D03*
X14874Y18950D02*
D03*
X13604Y18950D02*
D03*
X12334Y18950D02*
D03*
D89*
X34659Y12700D02*
D03*
D90*
X37409Y15050D02*
D03*
X36909Y15050D02*
D03*
X36409Y15050D02*
D03*
X35909Y15050D02*
D03*
X35409Y15050D02*
D03*
X34909Y15050D02*
D03*
X34409Y15050D02*
D03*
X33909Y15050D02*
D03*
X33409Y15050D02*
D03*
X32909Y15050D02*
D03*
X32409Y15050D02*
D03*
X31909Y15050D02*
D03*
X31909Y10350D02*
D03*
X32409Y10350D02*
D03*
X32909Y10350D02*
D03*
X33409Y10350D02*
D03*
X33909Y10350D02*
D03*
X34409Y10350D02*
D03*
X34909Y10350D02*
D03*
X35409Y10350D02*
D03*
X35909Y10350D02*
D03*
X36409Y10350D02*
D03*
X36909Y10350D02*
D03*
X37409Y10350D02*
D03*
D91*
X31309Y14450D02*
D03*
X31309Y13950D02*
D03*
X31309Y13450D02*
D03*
X31309Y12950D02*
D03*
X31309Y12450D02*
D03*
X31309Y11950D02*
D03*
X31309Y11450D02*
D03*
X31309Y10950D02*
D03*
X38009Y10950D02*
D03*
X38009Y11450D02*
D03*
X38009Y11950D02*
D03*
X38009Y12450D02*
D03*
X38009Y12950D02*
D03*
X38009Y13450D02*
D03*
X38009Y13950D02*
D03*
X38009Y14450D02*
D03*
D92*
X75895Y17600D02*
D03*
X70795Y17600D02*
D03*
X64095Y17600D02*
D03*
X47295Y17600D02*
D03*
X47295Y7800D02*
D03*
X70795Y7800D02*
D03*
D93*
X20803Y13163D02*
X20003Y13163D01*
X20403Y13163D01*
X20403Y11963D01*
X19603Y13163D02*
X19603Y11963D01*
X19003Y11963D01*
X18803Y12163D01*
X18803Y12963D01*
X19003Y13163D01*
X19603Y13163D01*
X18403Y11963D02*
X18004Y11963D01*
X18203Y11963D01*
X18203Y13163D01*
X18403Y12963D01*
X16604Y11963D02*
X17404Y11963D01*
X16604Y12763D01*
X16604Y12963D01*
X16804Y13163D01*
X17204Y13163D01*
X17404Y12963D01*
X16204Y12963D02*
X16004Y13163D01*
X15604Y13163D01*
X15404Y12963D01*
X15404Y12163D01*
X15604Y11963D01*
X16004Y11963D01*
X16204Y12163D01*
X16204Y12963D01*
X15004Y12963D02*
X14805Y13163D01*
X14405Y13163D01*
X14205Y12963D01*
X14205Y12763D01*
X14405Y12563D01*
X14205Y12363D01*
X14205Y12163D01*
X14405Y11963D01*
X14805Y11963D01*
X15004Y12163D01*
X15004Y12363D01*
X14805Y12563D01*
X15004Y12763D01*
X15004Y12963D01*
X14805Y12563D02*
X14405Y12563D01*
X13805Y11963D02*
X13805Y13163D01*
X13205Y13163D01*
X13005Y12963D01*
X13005Y12563D01*
X13205Y12363D01*
X13805Y12363D01*
X13405Y12363D02*
X13005Y11963D01*
X19685Y4375D02*
X19685Y3175D01*
X18885Y3175D01*
X17686Y4175D02*
X17886Y4375D01*
X18285Y4375D01*
X18485Y4175D01*
X18485Y3375D01*
X18285Y3175D01*
X17886Y3175D01*
X17686Y3375D01*
X17686Y3775D01*
X18086Y3775D01*
X17286Y3175D02*
X17286Y3975D01*
X16886Y4375D01*
X16486Y3975D01*
X16486Y3175D01*
X16486Y3775D01*
X17286Y3775D01*
X14887Y4375D02*
X14087Y3175D01*
X14087Y4375D02*
X14887Y3175D01*
X11688Y3175D02*
X12487Y3175D01*
X11688Y3975D01*
X11688Y4175D01*
X11888Y4375D01*
X12287Y4375D01*
X12487Y4175D01*
X10488Y4375D02*
X11288Y4375D01*
X11288Y3775D01*
X10888Y3975D01*
X10688Y3975D01*
X10488Y3775D01*
X10488Y3375D01*
X10688Y3175D01*
X11088Y3175D01*
X11288Y3375D01*
X40818Y7553D02*
X40618Y7753D01*
X40218Y7753D01*
X40018Y7553D01*
X40018Y6753D01*
X40218Y6553D01*
X40618Y6553D01*
X40818Y6753D01*
X40818Y7553D01*
X39618Y6553D02*
X39618Y6753D01*
X39418Y6753D01*
X39418Y6553D01*
X39618Y6553D01*
X37819Y7753D02*
X38619Y7753D01*
X38619Y7153D01*
X38219Y7353D01*
X38019Y7353D01*
X37819Y7153D01*
X37819Y6753D01*
X38019Y6553D01*
X38419Y6553D01*
X38619Y6753D01*
X37419Y6553D02*
X37419Y7353D01*
X37219Y7353D01*
X37019Y7153D01*
X37019Y6553D01*
X37019Y7153D01*
X36819Y7353D01*
X36619Y7153D01*
X36619Y6553D01*
X36219Y6553D02*
X36219Y7353D01*
X36019Y7353D01*
X35819Y7153D01*
X35819Y6553D01*
X35819Y7153D01*
X35619Y7353D01*
X35420Y7153D01*
X35420Y6553D01*
X33820Y6553D02*
X33820Y7753D01*
X33220Y7753D01*
X33020Y7553D01*
X33020Y7153D01*
X33220Y6953D01*
X33820Y6953D01*
X32620Y6553D02*
X32221Y6553D01*
X32421Y6553D01*
X32421Y7353D01*
X32620Y7353D01*
X31421Y7553D02*
X31421Y7353D01*
X31621Y7353D01*
X31221Y7353D01*
X31421Y7353D01*
X31421Y6753D01*
X31221Y6553D01*
X29821Y7353D02*
X30421Y7353D01*
X30621Y7153D01*
X30621Y6753D01*
X30421Y6553D01*
X29821Y6553D01*
X29421Y7753D02*
X29421Y6553D01*
X29421Y7153D01*
X29222Y7353D01*
X28822Y7353D01*
X28622Y7153D01*
X28622Y6553D01*
X116332Y5953D02*
X116132Y6153D01*
X115732Y6153D01*
X115532Y5953D01*
X115532Y5153D01*
X115732Y4953D01*
X116132Y4953D01*
X116332Y5153D01*
X116332Y5953D01*
X115132Y4953D02*
X115132Y5153D01*
X114932Y5153D01*
X114932Y4953D01*
X115132Y4953D01*
X113333Y6153D02*
X114133Y6153D01*
X114133Y5553D01*
X113733Y5753D01*
X113533Y5753D01*
X113333Y5553D01*
X113333Y5153D01*
X113533Y4953D01*
X113933Y4953D01*
X114133Y5153D01*
X112933Y4953D02*
X112933Y5753D01*
X112733Y5753D01*
X112533Y5553D01*
X112533Y4953D01*
X112533Y5553D01*
X112333Y5753D01*
X112133Y5553D01*
X112133Y4953D01*
X111733Y4953D02*
X111733Y5753D01*
X111534Y5753D01*
X111334Y5553D01*
X111334Y4953D01*
X111334Y5553D01*
X111134Y5753D01*
X110934Y5553D01*
X110934Y4953D01*
X109334Y4953D02*
X109334Y6153D01*
X108734Y6153D01*
X108535Y5953D01*
X108535Y5553D01*
X108734Y5353D01*
X109334Y5353D01*
X108135Y4953D02*
X107735Y4953D01*
X107935Y4953D01*
X107935Y5753D01*
X108135Y5753D01*
X106935Y5953D02*
X106935Y5753D01*
X107135Y5753D01*
X106735Y5753D01*
X106935Y5753D01*
X106935Y5153D01*
X106735Y4953D01*
X105336Y5753D02*
X105935Y5753D01*
X106135Y5553D01*
X106135Y5153D01*
X105935Y4953D01*
X105336Y4953D01*
X104936Y6153D02*
X104936Y4953D01*
X104936Y5553D01*
X104736Y5753D01*
X104336Y5753D01*
X104136Y5553D01*
X104136Y4953D01*
X106045Y19288D02*
X105845Y19488D01*
X105445Y19488D01*
X105245Y19288D01*
X105245Y18488D01*
X105445Y18288D01*
X105845Y18288D01*
X106045Y18488D01*
X106045Y19288D01*
X104845Y18288D02*
X104845Y18488D01*
X104645Y18488D01*
X104645Y18288D01*
X104845Y18288D01*
X103846Y19288D02*
X103646Y19488D01*
X103246Y19488D01*
X103046Y19288D01*
X103046Y19088D01*
X103246Y18888D01*
X103046Y18688D01*
X103046Y18488D01*
X103246Y18288D01*
X103646Y18288D01*
X103846Y18488D01*
X103846Y18688D01*
X103646Y18888D01*
X103846Y19088D01*
X103846Y19288D01*
X103646Y18888D02*
X103246Y18888D01*
X102646Y18288D02*
X102646Y19088D01*
X102446Y19088D01*
X102246Y18888D01*
X102246Y18288D01*
X102246Y18888D01*
X102046Y19088D01*
X101846Y18888D01*
X101846Y18288D01*
X101446Y18288D02*
X101446Y19088D01*
X101247Y19088D01*
X101047Y18888D01*
X101047Y18288D01*
X101047Y18888D01*
X100847Y19088D01*
X100647Y18888D01*
X100647Y18288D01*
X99047Y18288D02*
X99047Y19488D01*
X98447Y19488D01*
X98248Y19288D01*
X98248Y18888D01*
X98447Y18688D01*
X99047Y18688D01*
X97848Y18288D02*
X97448Y18288D01*
X97648Y18288D01*
X97648Y19088D01*
X97848Y19088D01*
X96648Y19288D02*
X96648Y19088D01*
X96848Y19088D01*
X96448Y19088D01*
X96648Y19088D01*
X96648Y18488D01*
X96448Y18288D01*
X95049Y19088D02*
X95648Y19088D01*
X95848Y18888D01*
X95848Y18488D01*
X95648Y18288D01*
X95049Y18288D01*
X94649Y19488D02*
X94649Y18288D01*
X94649Y18888D01*
X94449Y19088D01*
X94049Y19088D01*
X93849Y18888D01*
X93849Y18288D01*
X114262Y6931D02*
X114262Y7731D01*
X114462Y7931D01*
X114862Y7931D01*
X115062Y7731D01*
X115062Y6931D01*
X114862Y6731D01*
X114462Y6731D01*
X114662Y7131D02*
X114262Y6731D01*
X114462Y6731D02*
X114262Y6931D01*
X113063Y7931D02*
X113862Y7931D01*
X113862Y7331D01*
X113463Y7331D01*
X113862Y7331D01*
X113862Y6731D01*
X112663Y6731D02*
X112663Y7931D01*
X112063Y7931D01*
X111863Y7731D01*
X111863Y7331D01*
X112063Y7131D01*
X112663Y7131D01*
X110264Y7531D02*
X109464Y6731D01*
X109864Y7131D01*
X109464Y7531D01*
X110264Y6731D01*
X109064Y7731D02*
X108864Y7931D01*
X108464Y7931D01*
X108264Y7731D01*
X108264Y7531D01*
X108464Y7331D01*
X108664Y7331D01*
X108464Y7331D01*
X108264Y7131D01*
X108264Y6931D01*
X108464Y6731D01*
X108864Y6731D01*
X109064Y6931D01*
X107065Y6731D02*
X107864Y6731D01*
X107065Y7531D01*
X107065Y7731D01*
X107265Y7931D01*
X107664Y7931D01*
X107864Y7731D01*
X103213Y20266D02*
X103213Y21066D01*
X103413Y21266D01*
X103813Y21266D01*
X104013Y21066D01*
X104013Y20266D01*
X103813Y20066D01*
X103413Y20066D01*
X103613Y20466D02*
X103213Y20066D01*
X103413Y20066D02*
X103213Y20266D01*
X102014Y21266D02*
X102813Y21266D01*
X102813Y20666D01*
X102414Y20666D01*
X102813Y20666D01*
X102813Y20066D01*
X101614Y20066D02*
X101614Y21266D01*
X101014Y21266D01*
X100814Y21066D01*
X100814Y20666D01*
X101014Y20466D01*
X101614Y20466D01*
X99215Y20866D02*
X98415Y20066D01*
X98815Y20466D01*
X98415Y20866D01*
X99215Y20066D01*
X98015Y21066D02*
X97815Y21266D01*
X97415Y21266D01*
X97215Y21066D01*
X97215Y20866D01*
X97415Y20666D01*
X97615Y20666D01*
X97415Y20666D01*
X97215Y20466D01*
X97215Y20266D01*
X97415Y20066D01*
X97815Y20066D01*
X98015Y20266D01*
X96016Y20066D02*
X96815Y20066D01*
X96016Y20866D01*
X96016Y21066D01*
X96216Y21266D01*
X96615Y21266D01*
X96815Y21066D01*
X64338Y9881D02*
X64338Y11080D01*
X63738Y11080D01*
X63538Y10880D01*
X63538Y10480D01*
X63738Y10280D01*
X64338Y10280D01*
X63139Y9881D02*
X63139Y11080D01*
X62539Y11080D01*
X62339Y10880D01*
X62339Y10480D01*
X62539Y10280D01*
X63139Y10280D01*
X62739Y10280D02*
X62339Y9881D01*
X61339Y11080D02*
X61739Y11080D01*
X61939Y10880D01*
X61939Y10081D01*
X61739Y9881D01*
X61339Y9881D01*
X61139Y10081D01*
X61139Y10880D01*
X61339Y11080D01*
X60739Y10480D02*
X59940Y10480D01*
X58940Y11080D02*
X59340Y11080D01*
X59540Y10880D01*
X59540Y10081D01*
X59340Y9881D01*
X58940Y9881D01*
X58740Y10081D01*
X58740Y10880D01*
X58940Y11080D01*
X58340Y11080D02*
X58340Y9881D01*
X57740Y9881D01*
X57540Y10081D01*
X57540Y10280D01*
X57740Y10480D01*
X58340Y10480D01*
X57740Y10480D01*
X57540Y10680D01*
X57540Y10880D01*
X57740Y11080D01*
X58340Y11080D01*
X57141Y10480D02*
X56341Y10480D01*
X55341Y9881D02*
X55341Y11080D01*
X55941Y10480D01*
X55141Y10480D01*
X54741Y11080D02*
X53942Y11080D01*
X53942Y10880D01*
X54741Y10081D01*
X54741Y9881D01*
X53542Y9881D02*
X53142Y9881D01*
X53342Y9881D01*
X53342Y11080D01*
X53542Y10880D01*
X95555Y1067D02*
X95555Y2209D01*
X94983Y2209D01*
X94793Y2019D01*
X94793Y1638D01*
X94983Y1448D01*
X95555Y1448D01*
X93650Y2019D02*
X93841Y2209D01*
X94222Y2209D01*
X94412Y2019D01*
X94412Y1257D01*
X94222Y1067D01*
X93841Y1067D01*
X93650Y1257D01*
X93270Y2209D02*
X93270Y1067D01*
X92698Y1067D01*
X92508Y1257D01*
X92508Y1448D01*
X92698Y1638D01*
X93270Y1638D01*
X92698Y1638D01*
X92508Y1829D01*
X92508Y2019D01*
X92698Y2209D01*
X93270Y2209D01*
X90984Y2209D02*
X90223Y2209D01*
X90603Y2209D01*
X90603Y1067D01*
X89842Y1829D02*
X89842Y1067D01*
X89842Y1448D01*
X89651Y1638D01*
X89461Y1829D01*
X89270Y1829D01*
X88509Y1829D02*
X88128Y1829D01*
X87937Y1638D01*
X87937Y1067D01*
X88509Y1067D01*
X88699Y1257D01*
X88509Y1448D01*
X87937Y1448D01*
X86795Y1829D02*
X87366Y1829D01*
X87556Y1638D01*
X87556Y1257D01*
X87366Y1067D01*
X86795Y1067D01*
X85842Y1067D02*
X86223Y1067D01*
X86414Y1257D01*
X86414Y1638D01*
X86223Y1829D01*
X85842Y1829D01*
X85652Y1638D01*
X85652Y1448D01*
X86414Y1448D01*
X84128Y1067D02*
X84128Y1829D01*
X83748Y2209D01*
X83367Y1829D01*
X83367Y1067D01*
X83367Y1638D01*
X84128Y1638D01*
X82986Y1067D02*
X82986Y1829D01*
X82415Y1829D01*
X82224Y1638D01*
X82224Y1067D01*
X81653Y2019D02*
X81653Y1829D01*
X81843Y1829D01*
X81462Y1829D01*
X81653Y1829D01*
X81653Y1257D01*
X81462Y1067D01*
X80320Y1067D02*
X80701Y1067D01*
X80891Y1257D01*
X80891Y1638D01*
X80701Y1829D01*
X80320Y1829D01*
X80129Y1638D01*
X80129Y1448D01*
X80891Y1448D01*
X79748Y1067D02*
X79748Y1829D01*
X79177Y1829D01*
X78987Y1638D01*
X78987Y1067D01*
X78606Y1067D02*
X78606Y1829D01*
X78034Y1829D01*
X77844Y1638D01*
X77844Y1067D01*
X77273Y1829D02*
X76892Y1829D01*
X76701Y1638D01*
X76701Y1067D01*
X77273Y1067D01*
X77463Y1257D01*
X77273Y1448D01*
X76701Y1448D01*
D94*
X38600Y17788D02*
X38600Y18635D01*
X38811Y18846D01*
X39235Y18846D01*
X39446Y18635D01*
X39446Y17788D01*
X39235Y17577D01*
X38811Y17577D01*
X39023Y18000D02*
X38600Y17577D01*
X38811Y17577D02*
X38600Y17788D01*
X37330Y18846D02*
X38177Y18846D01*
X38177Y18212D01*
X37753Y18212D01*
X38177Y18212D01*
X38177Y17577D01*
X36907Y17577D02*
X36907Y18846D01*
X36061Y17577D01*
X36061Y18846D01*
X34368Y18846D02*
X33521Y17577D01*
X33521Y18846D02*
X34368Y17577D01*
X31194Y17577D02*
X31194Y18846D01*
X31829Y18212D01*
X30982Y18212D01*
X30559Y18635D02*
X30347Y18846D01*
X29924Y18846D01*
X29713Y18635D01*
X29713Y17788D01*
X29924Y17577D01*
X30347Y17577D01*
X30559Y17788D01*
X30559Y18635D01*
M02*
