%FSLAX43Y43*%
%MOMM*%
G71*
G01*
G75*
G04 Layer_Color=2752767*
%ADD10R,0.250X0.800*%
%ADD11R,0.800X0.250*%
%ADD12R,1.300X1.200*%
%ADD13R,1.600X0.900*%
%ADD14R,2.800X1.000*%
%ADD15R,2.800X1.000*%
%ADD16R,1.200X1.800*%
%ADD17R,1.200X1.400*%
%ADD18R,0.900X1.050*%
%ADD19R,1.470X1.270*%
%ADD20R,0.830X0.630*%
%ADD21R,0.600X0.500*%
%ADD22R,0.900X0.600*%
%ADD23R,0.300X0.300*%
%ADD24R,0.800X0.900*%
%ADD25R,0.550X1.200*%
%ADD26R,1.143X0.254*%
%ADD27R,0.254X1.143*%
%ADD28R,4.826X5.715*%
%ADD29R,1.600X3.000*%
%ADD30R,2.400X2.400*%
%ADD31R,3.800X2.800*%
%ADD32R,0.400X0.750*%
%ADD33R,1.219X2.235*%
%ADD34R,3.600X2.200*%
%ADD35R,5.334X1.930*%
%ADD36R,2.210X0.610*%
%ADD37R,0.580X1.200*%
%ADD38R,2.000X2.000*%
%ADD39R,1.000X1.400*%
%ADD40C,1.000*%
%ADD41R,0.350X0.350*%
%ADD42R,1.800X1.400*%
%ADD43R,2.100X1.400*%
%ADD44R,1.600X0.350*%
%ADD45R,1.200X0.800*%
%ADD46C,1.000*%
%ADD47C,0.152*%
%ADD48R,2.400X2.400*%
%ADD49R,0.300X3.000*%
%ADD50R,0.200X1.000*%
%ADD51R,0.200X2.000*%
%ADD52R,0.300X3.500*%
%ADD53R,0.300X1.500*%
%ADD54R,0.300X2.500*%
%ADD55R,9.398X1.016*%
%ADD56R,9.398X0.762*%
%ADD57R,9.398X0.610*%
%ADD58R,9.398X0.457*%
%ADD59R,9.398X0.305*%
%ADD60R,9.398X0.254*%
%ADD61R,9.398X0.203*%
%ADD62R,9.398X0.152*%
%ADD63R,0.330X0.686*%
%ADD64R,0.400X0.750*%
%ADD65C,0.321*%
%ADD66C,0.361*%
%ADD67C,0.405*%
%ADD68C,0.455*%
%ADD69C,0.511*%
%ADD70C,0.573*%
%ADD71C,0.644*%
%ADD72C,0.723*%
%ADD73C,0.812*%
%ADD74C,0.912*%
%ADD75C,1.020*%
%ADD76C,1.150*%
%ADD77C,1.290*%
%ADD78C,1.450*%
%ADD79C,1.630*%
%ADD80C,1.830*%
%ADD81C,2.050*%
%ADD82C,2.300*%
%ADD83C,2.590*%
%ADD84C,2.910*%
%ADD85C,3.260*%
%ADD86R,1.270X0.559*%
%ADD87R,0.559X1.270*%
%ADD88R,0.890X2.600*%
%ADD89R,5.600X3.600*%
%ADD90R,0.320X0.600*%
%ADD91R,0.600X0.320*%
%ADD92R,1.000X1.950*%
%ADD93C,0.154*%
%ADD94C,0.200*%
%ADD95C,0.150*%
%ADD96C,0.170*%
%ADD97C,0.160*%
%ADD98C,0.155*%
%ADD99C,0.100*%
%ADD100C,0.120*%
%ADD101C,0.127*%
%ADD102C,0.250*%
%ADD103C,0.250*%
%ADD104C,0.254*%
%ADD105R,0.300X2.400*%
%ADD106R,0.864X1.093*%
%ADD107R,9.398X0.406*%
%ADD108R,9.398X0.508*%
%ADD109R,9.398X0.914*%
%ADD110R,9.398X1.168*%
%ADD111R,0.377X0.927*%
%ADD112R,0.927X0.377*%
%ADD113R,1.427X1.327*%
%ADD114R,1.727X1.027*%
%ADD115R,2.927X1.127*%
%ADD116R,2.927X1.127*%
%ADD117R,1.327X1.927*%
%ADD118R,1.327X1.527*%
%ADD119R,1.027X1.177*%
%ADD120R,1.597X1.397*%
%ADD121R,0.957X0.757*%
%ADD122R,0.727X0.627*%
%ADD123R,1.027X0.727*%
%ADD124R,0.427X0.427*%
%ADD125R,0.927X1.027*%
%ADD126R,0.677X1.327*%
%ADD127R,1.270X0.381*%
%ADD128R,0.381X1.270*%
%ADD129R,4.953X5.842*%
%ADD130R,1.727X3.127*%
%ADD131R,2.527X2.527*%
%ADD132R,3.927X2.927*%
%ADD133R,0.527X0.877*%
%ADD134R,1.346X2.362*%
%ADD135R,3.727X2.327*%
%ADD136R,5.461X2.057*%
%ADD137R,2.337X0.737*%
%ADD138R,0.707X1.327*%
%ADD139R,2.127X2.127*%
%ADD140R,1.127X1.527*%
%ADD141C,1.127*%
%ADD142R,0.477X0.477*%
%ADD143R,1.927X1.527*%
%ADD144R,2.227X1.527*%
%ADD145R,1.727X0.477*%
%ADD146R,1.327X0.927*%
%ADD147C,0.448*%
%ADD148C,0.488*%
%ADD149C,0.532*%
%ADD150C,0.582*%
%ADD151C,0.638*%
%ADD152C,0.700*%
%ADD153C,0.771*%
%ADD154C,0.850*%
%ADD155C,0.939*%
%ADD156C,1.039*%
%ADD157C,1.147*%
%ADD158C,1.277*%
%ADD159C,1.417*%
%ADD160C,1.577*%
%ADD161C,1.757*%
%ADD162C,1.957*%
%ADD163C,2.177*%
%ADD164C,2.427*%
%ADD165C,2.717*%
%ADD166C,3.037*%
%ADD167C,3.387*%
%ADD168R,1.397X0.686*%
%ADD169R,0.686X1.397*%
%ADD170R,1.017X2.727*%
%ADD171R,5.727X3.727*%
%ADD172R,0.447X0.727*%
%ADD173R,0.727X0.447*%
%ADD174R,1.127X2.077*%
%ADD175C,0.050*%
%ADD176C,0.508*%
%ADD177C,0.076*%
%ADD178C,0.025*%
%ADD179C,0.169*%
%ADD180C,0.102*%
%ADD181C,0.320*%
%ADD182C,0.186*%
%ADD183C,0.119*%
D47*
X30090Y30904D02*
X29848Y31146D01*
X29486Y31267D01*
X29002Y31267D01*
X28639Y31146D01*
X28397Y30904D01*
X28397Y30662D01*
X28518Y30420D01*
X28639Y30299D01*
X28881Y30179D01*
X29606Y29937D01*
X29848Y29816D01*
X29969Y29695D01*
X30090Y29453D01*
X30090Y29090D01*
X29848Y28848D01*
X29486Y28727D01*
X29002Y28727D01*
X28639Y28848D01*
X28397Y29090D01*
X30659Y31267D02*
X30659Y28727D01*
X33005Y30662D02*
X32884Y30904D01*
X32642Y31146D01*
X32400Y31267D01*
X31916Y31267D01*
X31674Y31146D01*
X31432Y30904D01*
X31312Y30662D01*
X31191Y30299D01*
X31191Y29695D01*
X31312Y29332D01*
X31432Y29090D01*
X31674Y28848D01*
X31916Y28727D01*
X32400Y28727D01*
X32642Y28848D01*
X32884Y29090D01*
X33005Y29332D01*
X33005Y29695D01*
X32400Y29695D02*
X33005Y29695D01*
X33585Y31267D02*
X33585Y28727D01*
X33585Y31267D02*
X35157Y31267D01*
X33585Y30058D02*
X34552Y30058D01*
X36173Y31267D02*
X35931Y31146D01*
X35689Y30904D01*
X35568Y30662D01*
X35447Y30299D01*
X35447Y29695D01*
X35568Y29332D01*
X35689Y29090D01*
X35931Y28848D01*
X36173Y28727D01*
X36656Y28727D01*
X36898Y28848D01*
X37140Y29090D01*
X37261Y29332D01*
X37382Y29695D01*
X37382Y30299D01*
X37261Y30662D01*
X37140Y30904D01*
X36898Y31146D01*
X36656Y31267D01*
X36173Y31267D01*
X37975Y31267D02*
X39668Y28727D01*
X39668Y31267D02*
X37975Y28727D01*
X42231Y29937D02*
X43320Y29937D01*
X43682Y30058D01*
X43803Y30179D01*
X43924Y30420D01*
X43924Y30783D01*
X43803Y31025D01*
X43682Y31146D01*
X43320Y31267D01*
X42231Y31267D01*
X42231Y28727D01*
X46306Y30662D02*
X46185Y30904D01*
X45944Y31146D01*
X45702Y31267D01*
X45218Y31267D01*
X44976Y31146D01*
X44734Y30904D01*
X44613Y30662D01*
X44493Y30299D01*
X44493Y29695D01*
X44613Y29332D01*
X44734Y29090D01*
X44976Y28848D01*
X45218Y28727D01*
X45702Y28727D01*
X45944Y28848D01*
X46185Y29090D01*
X46306Y29332D01*
X47020Y31267D02*
X47020Y28727D01*
X47020Y31267D02*
X48108Y31267D01*
X48471Y31146D01*
X48592Y31025D01*
X48713Y30783D01*
X48713Y30541D01*
X48592Y30299D01*
X48471Y30179D01*
X48108Y30058D01*
X47020Y30058D02*
X48108Y30058D01*
X48471Y29937D01*
X48592Y29816D01*
X48713Y29574D01*
X48713Y29211D01*
X48592Y28969D01*
X48471Y28848D01*
X48108Y28727D01*
X47020Y28727D01*
X51276Y31267D02*
X51276Y28727D01*
X51276Y31267D02*
X52365Y31267D01*
X52728Y31146D01*
X52849Y31025D01*
X52969Y30783D01*
X52969Y30541D01*
X52849Y30299D01*
X52728Y30179D01*
X52365Y30058D01*
X51276Y30058D01*
X52123Y30058D02*
X52969Y28727D01*
X53538Y31267D02*
X53538Y29453D01*
X53659Y29090D01*
X53901Y28848D01*
X54263Y28727D01*
X54505Y28727D01*
X54868Y28848D01*
X55110Y29090D01*
X55231Y29453D01*
X55231Y31267D01*
X55932Y31267D02*
X55932Y28727D01*
X57383Y28727D01*
X59233Y31267D02*
X57661Y31267D01*
X57661Y28727D01*
X59233Y28727D01*
X57661Y30058D02*
X58629Y30058D01*
X59657Y31267D02*
X59657Y28727D01*
X59657Y31267D02*
X60745Y31267D01*
X61108Y31146D01*
X61229Y31025D01*
X61350Y30783D01*
X61350Y30541D01*
X61229Y30299D01*
X61108Y30179D01*
X60745Y30058D01*
X59657Y30058D01*
X60503Y30058D02*
X61350Y28727D01*
X63913Y31267D02*
X63913Y28727D01*
X63913Y31267D02*
X64760Y31267D01*
X65123Y31146D01*
X65364Y30904D01*
X65485Y30662D01*
X65606Y30299D01*
X65606Y29695D01*
X65485Y29332D01*
X65364Y29090D01*
X65123Y28848D01*
X64760Y28727D01*
X63913Y28727D01*
X66175Y31267D02*
X66175Y28727D01*
X66175Y31267D02*
X67263Y31267D01*
X67626Y31146D01*
X67747Y31025D01*
X67868Y30783D01*
X67868Y30541D01*
X67747Y30299D01*
X67626Y30179D01*
X67263Y30058D01*
X66175Y30058D01*
X67021Y30058D02*
X67868Y28727D01*
X68436Y31267D02*
X68436Y28727D01*
X68968Y31267D02*
X68968Y28727D01*
X70419Y28727D01*
X70697Y31267D02*
X70697Y28727D01*
X72148Y28727D01*
X74422Y31267D02*
X74422Y28727D01*
X74422Y31267D02*
X75268Y31267D01*
X75631Y31146D01*
X75873Y30904D01*
X75994Y30662D01*
X76115Y30299D01*
X76115Y29695D01*
X75994Y29332D01*
X75873Y29090D01*
X75631Y28848D01*
X75268Y28727D01*
X74422Y28727D01*
X76683Y31267D02*
X76683Y28727D01*
X76683Y31267D02*
X77771Y31267D01*
X78134Y31146D01*
X78255Y31025D01*
X78376Y30783D01*
X78376Y30541D01*
X78255Y30299D01*
X78134Y30179D01*
X77771Y30058D01*
X76683Y30058D01*
X77530Y30058D02*
X78376Y28727D01*
X80879Y28727D02*
X79912Y31267D01*
X78944Y28727D01*
X79307Y29574D02*
X80517Y29574D01*
X81472Y31267D02*
X82076Y28727D01*
X82681Y31267D02*
X82076Y28727D01*
X82681Y31267D02*
X83286Y28727D01*
X83890Y31267D02*
X83286Y28727D01*
X84398Y31267D02*
X84398Y28727D01*
X84930Y31267D02*
X84930Y28727D01*
X84930Y31267D02*
X86623Y28727D01*
X86623Y31267D02*
X86623Y28727D01*
X89139Y30662D02*
X89018Y30904D01*
X88776Y31146D01*
X88534Y31267D01*
X88050Y31267D01*
X87808Y31146D01*
X87567Y30904D01*
X87446Y30662D01*
X87325Y30299D01*
X87325Y29695D01*
X87446Y29332D01*
X87567Y29090D01*
X87808Y28848D01*
X88050Y28727D01*
X88534Y28727D01*
X88776Y28848D01*
X89018Y29090D01*
X89139Y29332D01*
X89139Y29695D01*
X88534Y29695D02*
X89139Y29695D01*
D94*
X57899Y101204D02*
X58399Y101204D01*
X58149Y101204D01*
X58149Y102704D01*
X57899Y102454D01*
X75054Y102454D02*
X75304Y102704D01*
X75804Y102704D01*
X76054Y102454D01*
X76054Y101454D01*
X75804Y101204D01*
X75304Y101204D01*
X75054Y101454D01*
X75054Y102454D01*
X76554Y101204D02*
X76554Y101454D01*
X76804Y101454D01*
X76804Y101204D01*
X76554Y101204D01*
X77804Y102454D02*
X78053Y102704D01*
X78553Y102704D01*
X78803Y102454D01*
X78803Y102204D01*
X78553Y101954D01*
X78303Y101954D01*
X78553Y101954D01*
X78803Y101704D01*
X78803Y101454D01*
X78553Y101204D01*
X78053Y101204D01*
X77804Y101454D01*
X80303Y101204D02*
X79303Y101204D01*
X80303Y102204D01*
X80303Y102454D01*
X80053Y102704D01*
X79553Y102704D01*
X79303Y102454D01*
X80803Y101204D02*
X81302Y101204D01*
X81052Y101204D01*
X81052Y102704D01*
X80803Y102454D01*
X82052Y101204D02*
X82052Y102204D01*
X82302Y102204D01*
X82552Y101954D01*
X82552Y101204D01*
X82552Y101954D01*
X82802Y102204D01*
X83052Y101954D01*
X83052Y101204D01*
X83552Y101204D02*
X83552Y102204D01*
X83802Y102204D01*
X84052Y101954D01*
X84052Y101204D01*
X84052Y101954D01*
X84301Y102204D01*
X84551Y101954D01*
X84551Y101204D01*
X87051Y101204D02*
X86551Y101704D01*
X86551Y102204D01*
X87051Y102704D01*
X87800Y101204D02*
X88300Y101204D01*
X88050Y101204D01*
X88050Y102704D01*
X87800Y102454D01*
X90050Y101204D02*
X89050Y101204D01*
X90050Y102204D01*
X90050Y102454D01*
X89800Y102704D01*
X89300Y102704D01*
X89050Y102454D01*
X90549Y101204D02*
X90549Y101454D01*
X90799Y101454D01*
X90799Y101204D01*
X90549Y101204D01*
X92799Y102704D02*
X92299Y102454D01*
X91799Y101954D01*
X91799Y101454D01*
X92049Y101204D01*
X92549Y101204D01*
X92799Y101454D01*
X92799Y101704D01*
X92549Y101954D01*
X91799Y101954D01*
X93299Y102454D02*
X93548Y102704D01*
X94048Y102704D01*
X94298Y102454D01*
X94298Y102204D01*
X94048Y101954D01*
X93798Y101954D01*
X94048Y101954D01*
X94298Y101704D01*
X94298Y101454D01*
X94048Y101204D01*
X93548Y101204D01*
X93299Y101454D01*
X94798Y102454D02*
X95048Y102704D01*
X95548Y102704D01*
X95798Y102454D01*
X95798Y102204D01*
X95548Y101954D01*
X95798Y101704D01*
X95798Y101454D01*
X95548Y101204D01*
X95048Y101204D01*
X94798Y101454D01*
X94798Y101704D01*
X95048Y101954D01*
X94798Y102204D01*
X94798Y102454D01*
X95048Y101954D02*
X95548Y101954D01*
X96298Y101204D02*
X96298Y102204D01*
X96547Y102204D01*
X96797Y101954D01*
X96797Y101204D01*
X96797Y101954D01*
X97047Y102204D01*
X97297Y101954D01*
X97297Y101204D01*
X97797Y101204D02*
X98297Y101204D01*
X98047Y101204D01*
X98047Y102204D01*
X97797Y102204D01*
X99047Y101204D02*
X99547Y101204D01*
X99297Y101204D01*
X99297Y102704D01*
X99047Y102704D01*
X100296Y101204D02*
X100796Y101704D01*
X100796Y102204D01*
X100296Y102704D01*
X107565Y101204D02*
X107565Y102704D01*
X108564Y101204D01*
X108564Y102704D01*
X109064Y101204D02*
X109064Y102704D01*
X109814Y102704D01*
X110064Y102454D01*
X110064Y101954D01*
X109814Y101704D01*
X109064Y101704D01*
X110564Y102704D02*
X111563Y102704D01*
X111064Y102704D01*
X111064Y101204D01*
X112063Y102704D02*
X112063Y101204D01*
X112063Y101954D01*
X113063Y101954D01*
X113063Y102704D01*
X113063Y101204D01*
X119922Y101204D02*
X119922Y102704D01*
X120671Y102704D01*
X120921Y102454D01*
X120921Y101954D01*
X120671Y101704D01*
X119922Y101704D01*
X120421Y101704D02*
X120921Y101204D01*
X121671Y101204D02*
X122171Y101204D01*
X122421Y101454D01*
X122421Y101954D01*
X122171Y102204D01*
X121671Y102204D01*
X121421Y101954D01*
X121421Y101454D01*
X121671Y101204D01*
X122921Y102204D02*
X122921Y101454D01*
X123171Y101204D01*
X123920Y101204D01*
X123920Y102204D01*
X124420Y101204D02*
X124420Y102204D01*
X125170Y102204D01*
X125420Y101954D01*
X125420Y101204D01*
X126919Y102704D02*
X126919Y101204D01*
X126170Y101204D01*
X125920Y101454D01*
X125920Y101954D01*
X126170Y102204D01*
X126919Y102204D01*
X57899Y98204D02*
X58399Y98204D01*
X58149Y98204D01*
X58149Y99704D01*
X57899Y99454D01*
X75054Y99454D02*
X75304Y99704D01*
X75804Y99704D01*
X76054Y99454D01*
X76054Y98454D01*
X75804Y98204D01*
X75304Y98204D01*
X75054Y98454D01*
X75054Y99454D01*
X76554Y98204D02*
X76554Y98454D01*
X76804Y98454D01*
X76804Y98204D01*
X76554Y98204D01*
X77804Y99454D02*
X78053Y99704D01*
X78553Y99704D01*
X78803Y99454D01*
X78803Y99204D01*
X78553Y98954D01*
X78303Y98954D01*
X78553Y98954D01*
X78803Y98704D01*
X78803Y98454D01*
X78553Y98204D01*
X78053Y98204D01*
X77804Y98454D01*
X80303Y99704D02*
X79803Y99454D01*
X79303Y98954D01*
X79303Y98454D01*
X79553Y98204D01*
X80053Y98204D01*
X80303Y98454D01*
X80303Y98704D01*
X80053Y98954D01*
X79303Y98954D01*
X80803Y98204D02*
X81302Y98204D01*
X81052Y98204D01*
X81052Y99704D01*
X80803Y99454D01*
X82052Y98204D02*
X82052Y99204D01*
X82302Y99204D01*
X82552Y98954D01*
X82552Y98204D01*
X82552Y98954D01*
X82802Y99204D01*
X83052Y98954D01*
X83052Y98204D01*
X83552Y98204D02*
X83552Y99204D01*
X83802Y99204D01*
X84052Y98954D01*
X84052Y98204D01*
X84052Y98954D01*
X84301Y99204D01*
X84551Y98954D01*
X84551Y98204D01*
X87051Y98204D02*
X86551Y98704D01*
X86551Y99204D01*
X87051Y99704D01*
X87800Y98204D02*
X88300Y98204D01*
X88050Y98204D01*
X88050Y99704D01*
X87800Y99454D01*
X89800Y98204D02*
X89800Y99704D01*
X89050Y98954D01*
X90050Y98954D01*
X90549Y98204D02*
X90549Y98454D01*
X90799Y98454D01*
X90799Y98204D01*
X90549Y98204D01*
X92799Y98204D02*
X91799Y98204D01*
X92799Y99204D01*
X92799Y99454D01*
X92549Y99704D01*
X92049Y99704D01*
X91799Y99454D01*
X93299Y98204D02*
X93798Y98204D01*
X93548Y98204D01*
X93548Y99704D01*
X93299Y99454D01*
X94548Y99454D02*
X94798Y99704D01*
X95298Y99704D01*
X95548Y99454D01*
X95548Y99204D01*
X95298Y98954D01*
X95048Y98954D01*
X95298Y98954D01*
X95548Y98704D01*
X95548Y98454D01*
X95298Y98204D01*
X94798Y98204D01*
X94548Y98454D01*
X96048Y98204D02*
X96048Y99204D01*
X96298Y99204D01*
X96547Y98954D01*
X96547Y98204D01*
X96547Y98954D01*
X96797Y99204D01*
X97047Y98954D01*
X97047Y98204D01*
X97547Y98204D02*
X98047Y98204D01*
X97797Y98204D01*
X97797Y99204D01*
X97547Y99204D01*
X98797Y98204D02*
X99297Y98204D01*
X99047Y98204D01*
X99047Y99704D01*
X98797Y99704D01*
X100046Y98204D02*
X100546Y98704D01*
X100546Y99204D01*
X100046Y99704D01*
X107565Y98204D02*
X107565Y99704D01*
X108564Y98204D01*
X108564Y99704D01*
X109064Y98204D02*
X109064Y99704D01*
X109814Y99704D01*
X110064Y99454D01*
X110064Y98954D01*
X109814Y98704D01*
X109064Y98704D01*
X110564Y99704D02*
X111563Y99704D01*
X111064Y99704D01*
X111064Y98204D01*
X112063Y99704D02*
X112063Y98204D01*
X112063Y98954D01*
X113063Y98954D01*
X113063Y99704D01*
X113063Y98204D01*
X119922Y98204D02*
X119922Y99704D01*
X120671Y99704D01*
X120921Y99454D01*
X120921Y98954D01*
X120671Y98704D01*
X119922Y98704D01*
X120421Y98704D02*
X120921Y98204D01*
X121671Y98204D02*
X122171Y98204D01*
X122421Y98454D01*
X122421Y98954D01*
X122171Y99204D01*
X121671Y99204D01*
X121421Y98954D01*
X121421Y98454D01*
X121671Y98204D01*
X122921Y99204D02*
X122921Y98454D01*
X123171Y98204D01*
X123920Y98204D01*
X123920Y99204D01*
X124420Y98204D02*
X124420Y99204D01*
X125170Y99204D01*
X125420Y98954D01*
X125420Y98204D01*
X126919Y99704D02*
X126919Y98204D01*
X126170Y98204D01*
X125920Y98454D01*
X125920Y98954D01*
X126170Y99204D01*
X126919Y99204D01*
X57899Y95204D02*
X58399Y95204D01*
X58149Y95204D01*
X58149Y96704D01*
X57899Y96454D01*
X75054Y96454D02*
X75304Y96704D01*
X75804Y96704D01*
X76054Y96454D01*
X76054Y95454D01*
X75804Y95204D01*
X75304Y95204D01*
X75054Y95454D01*
X75054Y96454D01*
X76554Y95204D02*
X76554Y95454D01*
X76804Y95454D01*
X76804Y95204D01*
X76554Y95204D01*
X78553Y95204D02*
X78553Y96704D01*
X77804Y95954D01*
X78803Y95954D01*
X79303Y96454D02*
X79553Y96704D01*
X80053Y96704D01*
X80303Y96454D01*
X80303Y95454D01*
X80053Y95204D01*
X79553Y95204D01*
X79303Y95454D01*
X79303Y96454D01*
X81802Y96704D02*
X80803Y96704D01*
X80803Y95954D01*
X81302Y96204D01*
X81552Y96204D01*
X81802Y95954D01*
X81802Y95454D01*
X81552Y95204D01*
X81052Y95204D01*
X80803Y95454D01*
X82302Y95204D02*
X82302Y96204D01*
X82552Y96204D01*
X82802Y95954D01*
X82802Y95204D01*
X82802Y95954D01*
X83052Y96204D01*
X83302Y95954D01*
X83302Y95204D01*
X83802Y95204D02*
X83802Y96204D01*
X84052Y96204D01*
X84301Y95954D01*
X84301Y95204D01*
X84301Y95954D01*
X84551Y96204D01*
X84801Y95954D01*
X84801Y95204D01*
X87300Y95204D02*
X86801Y95704D01*
X86801Y96204D01*
X87300Y96704D01*
X88050Y95204D02*
X88550Y95204D01*
X88300Y95204D01*
X88300Y96704D01*
X88050Y96454D01*
X90299Y96704D02*
X89300Y96704D01*
X89300Y95954D01*
X89800Y96204D01*
X90050Y96204D01*
X90299Y95954D01*
X90299Y95454D01*
X90050Y95204D01*
X89550Y95204D01*
X89300Y95454D01*
X90799Y95204D02*
X90799Y95454D01*
X91049Y95454D01*
X91049Y95204D01*
X90799Y95204D01*
X92049Y95454D02*
X92299Y95204D01*
X92799Y95204D01*
X93049Y95454D01*
X93049Y96454D01*
X92799Y96704D01*
X92299Y96704D01*
X92049Y96454D01*
X92049Y96204D01*
X92299Y95954D01*
X93049Y95954D01*
X94298Y95204D02*
X94298Y96704D01*
X93548Y95954D01*
X94548Y95954D01*
X96048Y96704D02*
X95048Y96704D01*
X95048Y95954D01*
X95548Y96204D01*
X95798Y96204D01*
X96048Y95954D01*
X96048Y95454D01*
X95798Y95204D01*
X95298Y95204D01*
X95048Y95454D01*
X96547Y95204D02*
X96547Y96204D01*
X96797Y96204D01*
X97047Y95954D01*
X97047Y95204D01*
X97047Y95954D01*
X97297Y96204D01*
X97547Y95954D01*
X97547Y95204D01*
X98047Y95204D02*
X98547Y95204D01*
X98297Y95204D01*
X98297Y96204D01*
X98047Y96204D01*
X99297Y95204D02*
X99796Y95204D01*
X99547Y95204D01*
X99547Y96704D01*
X99297Y96704D01*
X100546Y95204D02*
X101046Y95704D01*
X101046Y96204D01*
X100546Y96704D01*
X107565Y95204D02*
X107565Y96704D01*
X108564Y95204D01*
X108564Y96704D01*
X109064Y95204D02*
X109064Y96704D01*
X109814Y96704D01*
X110064Y96454D01*
X110064Y95954D01*
X109814Y95704D01*
X109064Y95704D01*
X110564Y96704D02*
X111563Y96704D01*
X111064Y96704D01*
X111064Y95204D01*
X112063Y96704D02*
X112063Y95204D01*
X112063Y95954D01*
X113063Y95954D01*
X113063Y96704D01*
X113063Y95204D01*
X119922Y95204D02*
X119922Y96704D01*
X120671Y96704D01*
X120921Y96454D01*
X120921Y95954D01*
X120671Y95704D01*
X119922Y95704D01*
X120421Y95704D02*
X120921Y95204D01*
X121671Y95204D02*
X122171Y95204D01*
X122421Y95454D01*
X122421Y95954D01*
X122171Y96204D01*
X121671Y96204D01*
X121421Y95954D01*
X121421Y95454D01*
X121671Y95204D01*
X122921Y96204D02*
X122921Y95454D01*
X123171Y95204D01*
X123920Y95204D01*
X123920Y96204D01*
X124420Y95204D02*
X124420Y96204D01*
X125170Y96204D01*
X125420Y95954D01*
X125420Y95204D01*
X126919Y96704D02*
X126919Y95204D01*
X126170Y95204D01*
X125920Y95454D01*
X125920Y95954D01*
X126170Y96204D01*
X126919Y96204D01*
X57899Y92204D02*
X58399Y92204D01*
X58149Y92204D01*
X58149Y93704D01*
X57899Y93454D01*
X75054Y93454D02*
X75304Y93704D01*
X75804Y93704D01*
X76054Y93454D01*
X76054Y92454D01*
X75804Y92204D01*
X75304Y92204D01*
X75054Y92454D01*
X75054Y93454D01*
X76554Y92204D02*
X76554Y92454D01*
X76804Y92454D01*
X76804Y92204D01*
X76554Y92204D01*
X78553Y92204D02*
X78553Y93704D01*
X77804Y92954D01*
X78803Y92954D01*
X80303Y93704D02*
X79303Y93704D01*
X79303Y92954D01*
X79803Y93204D01*
X80053Y93204D01*
X80303Y92954D01*
X80303Y92454D01*
X80053Y92204D01*
X79553Y92204D01*
X79303Y92454D01*
X81802Y93704D02*
X80803Y93704D01*
X80803Y92954D01*
X81302Y93204D01*
X81552Y93204D01*
X81802Y92954D01*
X81802Y92454D01*
X81552Y92204D01*
X81052Y92204D01*
X80803Y92454D01*
X82302Y92204D02*
X82302Y93204D01*
X82552Y93204D01*
X82802Y92954D01*
X82802Y92204D01*
X82802Y92954D01*
X83052Y93204D01*
X83302Y92954D01*
X83302Y92204D01*
X83802Y92204D02*
X83802Y93204D01*
X84052Y93204D01*
X84301Y92954D01*
X84301Y92204D01*
X84301Y92954D01*
X84551Y93204D01*
X84801Y92954D01*
X84801Y92204D01*
X87300Y92204D02*
X86801Y92704D01*
X86801Y93204D01*
X87300Y93704D01*
X88050Y92204D02*
X88550Y92204D01*
X88300Y92204D01*
X88300Y93704D01*
X88050Y93454D01*
X89300Y93704D02*
X90299Y93704D01*
X90299Y93454D01*
X89300Y92454D01*
X89300Y92204D01*
X90799Y92204D02*
X90799Y92454D01*
X91049Y92454D01*
X91049Y92204D01*
X90799Y92204D01*
X92049Y92454D02*
X92299Y92204D01*
X92799Y92204D01*
X93049Y92454D01*
X93049Y93454D01*
X92799Y93704D01*
X92299Y93704D01*
X92049Y93454D01*
X92049Y93204D01*
X92299Y92954D01*
X93049Y92954D01*
X93548Y92204D02*
X94048Y92204D01*
X93798Y92204D01*
X93798Y93704D01*
X93548Y93454D01*
X94798Y93454D02*
X95048Y93704D01*
X95548Y93704D01*
X95798Y93454D01*
X95798Y93204D01*
X95548Y92954D01*
X95298Y92954D01*
X95548Y92954D01*
X95798Y92704D01*
X95798Y92454D01*
X95548Y92204D01*
X95048Y92204D01*
X94798Y92454D01*
X96298Y92204D02*
X96298Y93204D01*
X96547Y93204D01*
X96797Y92954D01*
X96797Y92204D01*
X96797Y92954D01*
X97047Y93204D01*
X97297Y92954D01*
X97297Y92204D01*
X97797Y92204D02*
X98297Y92204D01*
X98047Y92204D01*
X98047Y93204D01*
X97797Y93204D01*
X99047Y92204D02*
X99547Y92204D01*
X99297Y92204D01*
X99297Y93704D01*
X99047Y93704D01*
X100296Y92204D02*
X100796Y92704D01*
X100796Y93204D01*
X100296Y93704D01*
X107565Y92204D02*
X107565Y93704D01*
X108564Y92204D01*
X108564Y93704D01*
X109064Y92204D02*
X109064Y93704D01*
X109814Y93704D01*
X110064Y93454D01*
X110064Y92954D01*
X109814Y92704D01*
X109064Y92704D01*
X110564Y93704D02*
X111563Y93704D01*
X111064Y93704D01*
X111064Y92204D01*
X112063Y93704D02*
X112063Y92204D01*
X112063Y92954D01*
X113063Y92954D01*
X113063Y93704D01*
X113063Y92204D01*
X119922Y92204D02*
X119922Y93704D01*
X120671Y93704D01*
X120921Y93454D01*
X120921Y92954D01*
X120671Y92704D01*
X119922Y92704D01*
X120421Y92704D02*
X120921Y92204D01*
X121671Y92204D02*
X122171Y92204D01*
X122421Y92454D01*
X122421Y92954D01*
X122171Y93204D01*
X121671Y93204D01*
X121421Y92954D01*
X121421Y92454D01*
X121671Y92204D01*
X122921Y93204D02*
X122921Y92454D01*
X123171Y92204D01*
X123920Y92204D01*
X123920Y93204D01*
X124420Y92204D02*
X124420Y93204D01*
X125170Y93204D01*
X125420Y92954D01*
X125420Y92204D01*
X126919Y93704D02*
X126919Y92204D01*
X126170Y92204D01*
X125920Y92454D01*
X125920Y92954D01*
X126170Y93204D01*
X126919Y93204D01*
X47101Y90454D02*
X46851Y90704D01*
X46351Y90704D01*
X46101Y90454D01*
X46101Y89454D01*
X46351Y89204D01*
X46851Y89204D01*
X47101Y89454D01*
X47101Y89954D01*
X46601Y89954D01*
X57899Y89204D02*
X58399Y89204D01*
X58149Y89204D01*
X58149Y90704D01*
X57899Y90454D01*
X59149Y89454D02*
X59399Y89204D01*
X59898Y89204D01*
X60148Y89454D01*
X60148Y90454D01*
X59898Y90704D01*
X59399Y90704D01*
X59149Y90454D01*
X59149Y90204D01*
X59399Y89954D01*
X60148Y89954D01*
X75054Y90454D02*
X75304Y90704D01*
X75804Y90704D01*
X76054Y90454D01*
X76054Y89454D01*
X75804Y89204D01*
X75304Y89204D01*
X75054Y89454D01*
X75054Y90454D01*
X76554Y89204D02*
X76554Y89454D01*
X76804Y89454D01*
X76804Y89204D01*
X76554Y89204D01*
X78803Y90704D02*
X77804Y90704D01*
X77804Y89954D01*
X78303Y90204D01*
X78553Y90204D01*
X78803Y89954D01*
X78803Y89454D01*
X78553Y89204D01*
X78053Y89204D01*
X77804Y89454D01*
X79303Y89204D02*
X79303Y90204D01*
X79553Y90204D01*
X79803Y89954D01*
X79803Y89204D01*
X79803Y89954D01*
X80053Y90204D01*
X80303Y89954D01*
X80303Y89204D01*
X80803Y89204D02*
X80803Y90204D01*
X81052Y90204D01*
X81302Y89954D01*
X81302Y89204D01*
X81302Y89954D01*
X81552Y90204D01*
X81802Y89954D01*
X81802Y89204D01*
X84301Y89204D02*
X83802Y89704D01*
X83802Y90204D01*
X84301Y90704D01*
X85051Y89204D02*
X85551Y89204D01*
X85301Y89204D01*
X85301Y90704D01*
X85051Y90454D01*
X86301Y89454D02*
X86551Y89204D01*
X87051Y89204D01*
X87300Y89454D01*
X87300Y90454D01*
X87051Y90704D01*
X86551Y90704D01*
X86301Y90454D01*
X86301Y90204D01*
X86551Y89954D01*
X87300Y89954D01*
X87800Y89204D02*
X87800Y89454D01*
X88050Y89454D01*
X88050Y89204D01*
X87800Y89204D01*
X90050Y90704D02*
X89550Y90454D01*
X89050Y89954D01*
X89050Y89454D01*
X89300Y89204D01*
X89800Y89204D01*
X90050Y89454D01*
X90050Y89704D01*
X89800Y89954D01*
X89050Y89954D01*
X90549Y90454D02*
X90799Y90704D01*
X91299Y90704D01*
X91549Y90454D01*
X91549Y90204D01*
X91299Y89954D01*
X91549Y89704D01*
X91549Y89454D01*
X91299Y89204D01*
X90799Y89204D01*
X90549Y89454D01*
X90549Y89704D01*
X90799Y89954D01*
X90549Y90204D01*
X90549Y90454D01*
X90799Y89954D02*
X91299Y89954D01*
X93049Y90704D02*
X92049Y90704D01*
X92049Y89954D01*
X92549Y90204D01*
X92799Y90204D01*
X93049Y89954D01*
X93049Y89454D01*
X92799Y89204D01*
X92299Y89204D01*
X92049Y89454D01*
X93548Y89204D02*
X93548Y90204D01*
X93798Y90204D01*
X94048Y89954D01*
X94048Y89204D01*
X94048Y89954D01*
X94298Y90204D01*
X94548Y89954D01*
X94548Y89204D01*
X95048Y89204D02*
X95548Y89204D01*
X95298Y89204D01*
X95298Y90204D01*
X95048Y90204D01*
X96298Y89204D02*
X96797Y89204D01*
X96547Y89204D01*
X96547Y90704D01*
X96298Y90704D01*
X97547Y89204D02*
X98047Y89704D01*
X98047Y90204D01*
X97547Y90704D01*
X107565Y89204D02*
X107565Y90704D01*
X108314Y90704D01*
X108564Y90454D01*
X108564Y89954D01*
X108314Y89704D01*
X107565Y89704D01*
X109064Y90704D02*
X110064Y90704D01*
X109564Y90704D01*
X109564Y89204D01*
X110564Y90704D02*
X110564Y89204D01*
X110564Y89954D01*
X111563Y89954D01*
X111563Y90704D01*
X111563Y89204D01*
X119922Y89204D02*
X119922Y90704D01*
X120671Y90704D01*
X120921Y90454D01*
X120921Y89954D01*
X120671Y89704D01*
X119922Y89704D01*
X120421Y89704D02*
X120921Y89204D01*
X121671Y89204D02*
X122171Y89204D01*
X122421Y89454D01*
X122421Y89954D01*
X122171Y90204D01*
X121671Y90204D01*
X121421Y89954D01*
X121421Y89454D01*
X121671Y89204D01*
X122921Y90204D02*
X122921Y89454D01*
X123171Y89204D01*
X123920Y89204D01*
X123920Y90204D01*
X124420Y89204D02*
X124420Y90204D01*
X125170Y90204D01*
X125420Y89954D01*
X125420Y89204D01*
X126919Y90704D02*
X126919Y89204D01*
X126170Y89204D01*
X125920Y89454D01*
X125920Y89954D01*
X126170Y90204D01*
X126919Y90204D01*
X57899Y86204D02*
X58399Y86204D01*
X58149Y86204D01*
X58149Y87704D01*
X57899Y87454D01*
X75054Y87454D02*
X75304Y87704D01*
X75804Y87704D01*
X76054Y87454D01*
X76054Y86454D01*
X75804Y86204D01*
X75304Y86204D01*
X75054Y86454D01*
X75054Y87454D01*
X76554Y86204D02*
X76554Y86454D01*
X76804Y86454D01*
X76804Y86204D01*
X76554Y86204D01*
X78803Y87704D02*
X77804Y87704D01*
X77804Y86954D01*
X78303Y87204D01*
X78553Y87204D01*
X78803Y86954D01*
X78803Y86454D01*
X78553Y86204D01*
X78053Y86204D01*
X77804Y86454D01*
X79303Y86204D02*
X79803Y86204D01*
X79553Y86204D01*
X79553Y87704D01*
X79303Y87454D01*
X80553Y86204D02*
X81052Y86204D01*
X80803Y86204D01*
X80803Y87704D01*
X80553Y87454D01*
X81802Y86204D02*
X81802Y87204D01*
X82052Y87204D01*
X82302Y86954D01*
X82302Y86204D01*
X82302Y86954D01*
X82552Y87204D01*
X82802Y86954D01*
X82802Y86204D01*
X83302Y86204D02*
X83302Y87204D01*
X83552Y87204D01*
X83802Y86954D01*
X83802Y86204D01*
X83802Y86954D01*
X84052Y87204D01*
X84301Y86954D01*
X84301Y86204D01*
X86801Y86204D02*
X86301Y86704D01*
X86301Y87204D01*
X86801Y87704D01*
X88550Y86204D02*
X87550Y86204D01*
X88550Y87204D01*
X88550Y87454D01*
X88300Y87704D01*
X87800Y87704D01*
X87550Y87454D01*
X89050Y87454D02*
X89300Y87704D01*
X89800Y87704D01*
X90050Y87454D01*
X90050Y86454D01*
X89800Y86204D01*
X89300Y86204D01*
X89050Y86454D01*
X89050Y87454D01*
X90549Y86204D02*
X90549Y86454D01*
X90799Y86454D01*
X90799Y86204D01*
X90549Y86204D01*
X91799Y86204D02*
X92299Y86204D01*
X92049Y86204D01*
X92049Y87704D01*
X91799Y87454D01*
X93049Y86204D02*
X93548Y86204D01*
X93299Y86204D01*
X93299Y87704D01*
X93049Y87454D01*
X94298Y87454D02*
X94548Y87704D01*
X95048Y87704D01*
X95298Y87454D01*
X95298Y87204D01*
X95048Y86954D01*
X95298Y86704D01*
X95298Y86454D01*
X95048Y86204D01*
X94548Y86204D01*
X94298Y86454D01*
X94298Y86704D01*
X94548Y86954D01*
X94298Y87204D01*
X94298Y87454D01*
X94548Y86954D02*
X95048Y86954D01*
X95798Y86204D02*
X95798Y87204D01*
X96048Y87204D01*
X96298Y86954D01*
X96298Y86204D01*
X96298Y86954D01*
X96547Y87204D01*
X96797Y86954D01*
X96797Y86204D01*
X97297Y86204D02*
X97797Y86204D01*
X97547Y86204D01*
X97547Y87204D01*
X97297Y87204D01*
X98547Y86204D02*
X99047Y86204D01*
X98797Y86204D01*
X98797Y87704D01*
X98547Y87704D01*
X99796Y86204D02*
X100296Y86704D01*
X100296Y87204D01*
X99796Y87704D01*
X107565Y86204D02*
X107565Y87704D01*
X108564Y86204D01*
X108564Y87704D01*
X109064Y86204D02*
X109064Y87704D01*
X109814Y87704D01*
X110064Y87454D01*
X110064Y86954D01*
X109814Y86704D01*
X109064Y86704D01*
X110564Y87704D02*
X111563Y87704D01*
X111064Y87704D01*
X111064Y86204D01*
X112063Y87704D02*
X112063Y86204D01*
X112063Y86954D01*
X113063Y86954D01*
X113063Y87704D01*
X113063Y86204D01*
X119922Y86204D02*
X119922Y87704D01*
X120671Y87704D01*
X120921Y87454D01*
X120921Y86954D01*
X120671Y86704D01*
X119922Y86704D01*
X120421Y86704D02*
X120921Y86204D01*
X121671Y86204D02*
X122171Y86204D01*
X122421Y86454D01*
X122421Y86954D01*
X122171Y87204D01*
X121671Y87204D01*
X121421Y86954D01*
X121421Y86454D01*
X121671Y86204D01*
X122921Y87204D02*
X122921Y86454D01*
X123171Y86204D01*
X123920Y86204D01*
X123920Y87204D01*
X124420Y86204D02*
X124420Y87204D01*
X125170Y87204D01*
X125420Y86954D01*
X125420Y86204D01*
X126919Y87704D02*
X126919Y86204D01*
X126170Y86204D01*
X125920Y86454D01*
X125920Y86954D01*
X126170Y87204D01*
X126919Y87204D01*
X57899Y83204D02*
X58399Y83204D01*
X58149Y83204D01*
X58149Y84704D01*
X57899Y84454D01*
X75054Y84454D02*
X75304Y84704D01*
X75804Y84704D01*
X76054Y84454D01*
X76054Y83454D01*
X75804Y83204D01*
X75304Y83204D01*
X75054Y83454D01*
X75054Y84454D01*
X76554Y83204D02*
X76554Y83454D01*
X76804Y83454D01*
X76804Y83204D01*
X76554Y83204D01*
X78803Y84704D02*
X77804Y84704D01*
X77804Y83954D01*
X78303Y84204D01*
X78553Y84204D01*
X78803Y83954D01*
X78803Y83454D01*
X78553Y83204D01*
X78053Y83204D01*
X77804Y83454D01*
X79303Y84704D02*
X80303Y84704D01*
X80303Y84454D01*
X79303Y83454D01*
X79303Y83204D01*
X80803Y84454D02*
X81052Y84704D01*
X81552Y84704D01*
X81802Y84454D01*
X81802Y84204D01*
X81552Y83954D01*
X81302Y83954D01*
X81552Y83954D01*
X81802Y83704D01*
X81802Y83454D01*
X81552Y83204D01*
X81052Y83204D01*
X80803Y83454D01*
X82302Y83204D02*
X82302Y84204D01*
X82552Y84204D01*
X82802Y83954D01*
X82802Y83204D01*
X82802Y83954D01*
X83052Y84204D01*
X83302Y83954D01*
X83302Y83204D01*
X83802Y83204D02*
X83802Y84204D01*
X84052Y84204D01*
X84301Y83954D01*
X84301Y83204D01*
X84301Y83954D01*
X84551Y84204D01*
X84801Y83954D01*
X84801Y83204D01*
X87300Y83204D02*
X86801Y83704D01*
X86801Y84204D01*
X87300Y84704D01*
X89050Y83204D02*
X88050Y83204D01*
X89050Y84204D01*
X89050Y84454D01*
X88800Y84704D01*
X88300Y84704D01*
X88050Y84454D01*
X90549Y83204D02*
X89550Y83204D01*
X90549Y84204D01*
X90549Y84454D01*
X90299Y84704D01*
X89800Y84704D01*
X89550Y84454D01*
X91049Y83204D02*
X91049Y83454D01*
X91299Y83454D01*
X91299Y83204D01*
X91049Y83204D01*
X93299Y84704D02*
X92299Y84704D01*
X92299Y83954D01*
X92799Y84204D01*
X93049Y84204D01*
X93299Y83954D01*
X93299Y83454D01*
X93049Y83204D01*
X92549Y83204D01*
X92299Y83454D01*
X94798Y84704D02*
X93798Y84704D01*
X93798Y83954D01*
X94298Y84204D01*
X94548Y84204D01*
X94798Y83954D01*
X94798Y83454D01*
X94548Y83204D01*
X94048Y83204D01*
X93798Y83454D01*
X95298Y83454D02*
X95548Y83204D01*
X96048Y83204D01*
X96298Y83454D01*
X96298Y84454D01*
X96048Y84704D01*
X95548Y84704D01*
X95298Y84454D01*
X95298Y84204D01*
X95548Y83954D01*
X96298Y83954D01*
X96797Y83204D02*
X96797Y84204D01*
X97047Y84204D01*
X97297Y83954D01*
X97297Y83204D01*
X97297Y83954D01*
X97547Y84204D01*
X97797Y83954D01*
X97797Y83204D01*
X98297Y83204D02*
X98797Y83204D01*
X98547Y83204D01*
X98547Y84204D01*
X98297Y84204D01*
X99547Y83204D02*
X100046Y83204D01*
X99796Y83204D01*
X99796Y84704D01*
X99547Y84704D01*
X100796Y83204D02*
X101296Y83704D01*
X101296Y84204D01*
X100796Y84704D01*
X107565Y83204D02*
X107565Y84704D01*
X108564Y83204D01*
X108564Y84704D01*
X109064Y83204D02*
X109064Y84704D01*
X109814Y84704D01*
X110064Y84454D01*
X110064Y83954D01*
X109814Y83704D01*
X109064Y83704D01*
X110564Y84704D02*
X111563Y84704D01*
X111064Y84704D01*
X111064Y83204D01*
X112063Y84704D02*
X112063Y83204D01*
X112063Y83954D01*
X113063Y83954D01*
X113063Y84704D01*
X113063Y83204D01*
X119922Y83204D02*
X119922Y84704D01*
X120671Y84704D01*
X120921Y84454D01*
X120921Y83954D01*
X120671Y83704D01*
X119922Y83704D01*
X120421Y83704D02*
X120921Y83204D01*
X121671Y83204D02*
X122171Y83204D01*
X122421Y83454D01*
X122421Y83954D01*
X122171Y84204D01*
X121671Y84204D01*
X121421Y83954D01*
X121421Y83454D01*
X121671Y83204D01*
X122921Y84204D02*
X122921Y83454D01*
X123171Y83204D01*
X123920Y83204D01*
X123920Y84204D01*
X124420Y83204D02*
X124420Y84204D01*
X125170Y84204D01*
X125420Y83954D01*
X125420Y83204D01*
X126919Y84704D02*
X126919Y83204D01*
X126170Y83204D01*
X125920Y83454D01*
X125920Y83954D01*
X126170Y84204D01*
X126919Y84204D01*
X57899Y80204D02*
X58399Y80204D01*
X58149Y80204D01*
X58149Y81704D01*
X57899Y81454D01*
X75054Y81454D02*
X75304Y81704D01*
X75804Y81704D01*
X76054Y81454D01*
X76054Y80454D01*
X75804Y80204D01*
X75304Y80204D01*
X75054Y80454D01*
X75054Y81454D01*
X76554Y80204D02*
X76554Y80454D01*
X76804Y80454D01*
X76804Y80204D01*
X76554Y80204D01*
X78803Y81704D02*
X78303Y81454D01*
X77804Y80954D01*
X77804Y80454D01*
X78053Y80204D01*
X78553Y80204D01*
X78803Y80454D01*
X78803Y80704D01*
X78553Y80954D01*
X77804Y80954D01*
X80053Y80204D02*
X80053Y81704D01*
X79303Y80954D01*
X80303Y80954D01*
X81552Y80204D02*
X81552Y81704D01*
X80803Y80954D01*
X81802Y80954D01*
X82302Y80204D02*
X82302Y81204D01*
X82552Y81204D01*
X82802Y80954D01*
X82802Y80204D01*
X82802Y80954D01*
X83052Y81204D01*
X83302Y80954D01*
X83302Y80204D01*
X83802Y80204D02*
X83802Y81204D01*
X84052Y81204D01*
X84301Y80954D01*
X84301Y80204D01*
X84301Y80954D01*
X84551Y81204D01*
X84801Y80954D01*
X84801Y80204D01*
X87300Y80204D02*
X86801Y80704D01*
X86801Y81204D01*
X87300Y81704D01*
X89050Y80204D02*
X88050Y80204D01*
X89050Y81204D01*
X89050Y81454D01*
X88800Y81704D01*
X88300Y81704D01*
X88050Y81454D01*
X90549Y81704D02*
X89550Y81704D01*
X89550Y80954D01*
X90050Y81204D01*
X90299Y81204D01*
X90549Y80954D01*
X90549Y80454D01*
X90299Y80204D01*
X89800Y80204D01*
X89550Y80454D01*
X91049Y80204D02*
X91049Y80454D01*
X91299Y80454D01*
X91299Y80204D01*
X91049Y80204D01*
X92299Y81454D02*
X92549Y81704D01*
X93049Y81704D01*
X93299Y81454D01*
X93299Y81204D01*
X93049Y80954D01*
X92799Y80954D01*
X93049Y80954D01*
X93299Y80704D01*
X93299Y80454D01*
X93049Y80204D01*
X92549Y80204D01*
X92299Y80454D01*
X94798Y81704D02*
X93798Y81704D01*
X93798Y80954D01*
X94298Y81204D01*
X94548Y81204D01*
X94798Y80954D01*
X94798Y80454D01*
X94548Y80204D01*
X94048Y80204D01*
X93798Y80454D01*
X96048Y80204D02*
X96048Y81704D01*
X95298Y80954D01*
X96298Y80954D01*
X96797Y80204D02*
X96797Y81204D01*
X97047Y81204D01*
X97297Y80954D01*
X97297Y80204D01*
X97297Y80954D01*
X97547Y81204D01*
X97797Y80954D01*
X97797Y80204D01*
X98297Y80204D02*
X98797Y80204D01*
X98547Y80204D01*
X98547Y81204D01*
X98297Y81204D01*
X99547Y80204D02*
X100046Y80204D01*
X99796Y80204D01*
X99796Y81704D01*
X99547Y81704D01*
X100796Y80204D02*
X101296Y80704D01*
X101296Y81204D01*
X100796Y81704D01*
X107565Y80204D02*
X107565Y81704D01*
X108564Y80204D01*
X108564Y81704D01*
X109064Y80204D02*
X109064Y81704D01*
X109814Y81704D01*
X110064Y81454D01*
X110064Y80954D01*
X109814Y80704D01*
X109064Y80704D01*
X110564Y81704D02*
X111563Y81704D01*
X111064Y81704D01*
X111064Y80204D01*
X112063Y81704D02*
X112063Y80204D01*
X112063Y80954D01*
X113063Y80954D01*
X113063Y81704D01*
X113063Y80204D01*
X119922Y80204D02*
X119922Y81704D01*
X120671Y81704D01*
X120921Y81454D01*
X120921Y80954D01*
X120671Y80704D01*
X119922Y80704D01*
X120421Y80704D02*
X120921Y80204D01*
X121671Y80204D02*
X122171Y80204D01*
X122421Y80454D01*
X122421Y80954D01*
X122171Y81204D01*
X121671Y81204D01*
X121421Y80954D01*
X121421Y80454D01*
X121671Y80204D01*
X122921Y81204D02*
X122921Y80454D01*
X123171Y80204D01*
X123920Y80204D01*
X123920Y81204D01*
X124420Y80204D02*
X124420Y81204D01*
X125170Y81204D01*
X125420Y80954D01*
X125420Y80204D01*
X126919Y81704D02*
X126919Y80204D01*
X126170Y80204D01*
X125920Y80454D01*
X125920Y80954D01*
X126170Y81204D01*
X126919Y81204D01*
X57899Y77204D02*
X58399Y77204D01*
X58149Y77204D01*
X58149Y78704D01*
X57899Y78454D01*
X75054Y78454D02*
X75304Y78704D01*
X75804Y78704D01*
X76054Y78454D01*
X76054Y77454D01*
X75804Y77204D01*
X75304Y77204D01*
X75054Y77454D01*
X75054Y78454D01*
X76554Y77204D02*
X76554Y77454D01*
X76804Y77454D01*
X76804Y77204D01*
X76554Y77204D01*
X77804Y78704D02*
X78803Y78704D01*
X78803Y78454D01*
X77804Y77454D01*
X77804Y77204D01*
X80303Y77204D02*
X79303Y77204D01*
X80303Y78204D01*
X80303Y78454D01*
X80053Y78704D01*
X79553Y78704D01*
X79303Y78454D01*
X80803Y78454D02*
X81052Y78704D01*
X81552Y78704D01*
X81802Y78454D01*
X81802Y78204D01*
X81552Y77954D01*
X81302Y77954D01*
X81552Y77954D01*
X81802Y77704D01*
X81802Y77454D01*
X81552Y77204D01*
X81052Y77204D01*
X80803Y77454D01*
X82302Y77204D02*
X82302Y78204D01*
X82552Y78204D01*
X82802Y77954D01*
X82802Y77204D01*
X82802Y77954D01*
X83052Y78204D01*
X83302Y77954D01*
X83302Y77204D01*
X83802Y77204D02*
X83802Y78204D01*
X84052Y78204D01*
X84301Y77954D01*
X84301Y77204D01*
X84301Y77954D01*
X84551Y78204D01*
X84801Y77954D01*
X84801Y77204D01*
X87300Y77204D02*
X86801Y77704D01*
X86801Y78204D01*
X87300Y78704D01*
X89050Y77204D02*
X88050Y77204D01*
X89050Y78204D01*
X89050Y78454D01*
X88800Y78704D01*
X88300Y78704D01*
X88050Y78454D01*
X89550Y78454D02*
X89800Y78704D01*
X90299Y78704D01*
X90549Y78454D01*
X90549Y78204D01*
X90299Y77954D01*
X90549Y77704D01*
X90549Y77454D01*
X90299Y77204D01*
X89800Y77204D01*
X89550Y77454D01*
X89550Y77704D01*
X89800Y77954D01*
X89550Y78204D01*
X89550Y78454D01*
X89800Y77954D02*
X90299Y77954D01*
X91049Y77204D02*
X91049Y77454D01*
X91299Y77454D01*
X91299Y77204D01*
X91049Y77204D01*
X93049Y77204D02*
X93049Y78704D01*
X92299Y77954D01*
X93299Y77954D01*
X94798Y78704D02*
X94298Y78454D01*
X93798Y77954D01*
X93798Y77454D01*
X94048Y77204D01*
X94548Y77204D01*
X94798Y77454D01*
X94798Y77704D01*
X94548Y77954D01*
X93798Y77954D01*
X96298Y78704D02*
X95298Y78704D01*
X95298Y77954D01*
X95798Y78204D01*
X96048Y78204D01*
X96298Y77954D01*
X96298Y77454D01*
X96048Y77204D01*
X95548Y77204D01*
X95298Y77454D01*
X96797Y77204D02*
X96797Y78204D01*
X97047Y78204D01*
X97297Y77954D01*
X97297Y77204D01*
X97297Y77954D01*
X97547Y78204D01*
X97797Y77954D01*
X97797Y77204D01*
X98297Y77204D02*
X98797Y77204D01*
X98547Y77204D01*
X98547Y78204D01*
X98297Y78204D01*
X99547Y77204D02*
X100046Y77204D01*
X99796Y77204D01*
X99796Y78704D01*
X99547Y78704D01*
X100796Y77204D02*
X101296Y77704D01*
X101296Y78204D01*
X100796Y78704D01*
X107565Y77204D02*
X107565Y78704D01*
X108564Y77204D01*
X108564Y78704D01*
X109064Y77204D02*
X109064Y78704D01*
X109814Y78704D01*
X110064Y78454D01*
X110064Y77954D01*
X109814Y77704D01*
X109064Y77704D01*
X110564Y78704D02*
X111563Y78704D01*
X111064Y78704D01*
X111064Y77204D01*
X112063Y78704D02*
X112063Y77204D01*
X112063Y77954D01*
X113063Y77954D01*
X113063Y78704D01*
X113063Y77204D01*
X119922Y77204D02*
X119922Y78704D01*
X120671Y78704D01*
X120921Y78454D01*
X120921Y77954D01*
X120671Y77704D01*
X119922Y77704D01*
X120421Y77704D02*
X120921Y77204D01*
X121671Y77204D02*
X122171Y77204D01*
X122421Y77454D01*
X122421Y77954D01*
X122171Y78204D01*
X121671Y78204D01*
X121421Y77954D01*
X121421Y77454D01*
X121671Y77204D01*
X122921Y78204D02*
X122921Y77454D01*
X123171Y77204D01*
X123920Y77204D01*
X123920Y78204D01*
X124420Y77204D02*
X124420Y78204D01*
X125170Y78204D01*
X125420Y77954D01*
X125420Y77204D01*
X126919Y78704D02*
X126919Y77204D01*
X126170Y77204D01*
X125920Y77454D01*
X125920Y77954D01*
X126170Y78204D01*
X126919Y78204D01*
X57899Y74204D02*
X58399Y74204D01*
X58149Y74204D01*
X58149Y75704D01*
X57899Y75454D01*
X75054Y75454D02*
X75304Y75704D01*
X75804Y75704D01*
X76054Y75454D01*
X76054Y74454D01*
X75804Y74204D01*
X75304Y74204D01*
X75054Y74454D01*
X75054Y75454D01*
X76554Y74204D02*
X76554Y74454D01*
X76804Y74454D01*
X76804Y74204D01*
X76554Y74204D01*
X77804Y75454D02*
X78053Y75704D01*
X78553Y75704D01*
X78803Y75454D01*
X78803Y75204D01*
X78553Y74954D01*
X78803Y74704D01*
X78803Y74454D01*
X78553Y74204D01*
X78053Y74204D01*
X77804Y74454D01*
X77804Y74704D01*
X78053Y74954D01*
X77804Y75204D01*
X77804Y75454D01*
X78053Y74954D02*
X78553Y74954D01*
X79303Y74204D02*
X79803Y74204D01*
X79553Y74204D01*
X79553Y75704D01*
X79303Y75454D01*
X81552Y74204D02*
X80553Y74204D01*
X81552Y75204D01*
X81552Y75454D01*
X81302Y75704D01*
X80803Y75704D01*
X80553Y75454D01*
X82052Y74204D02*
X82052Y75204D01*
X82302Y75204D01*
X82552Y74954D01*
X82552Y74204D01*
X82552Y74954D01*
X82802Y75204D01*
X83052Y74954D01*
X83052Y74204D01*
X83552Y74204D02*
X83552Y75204D01*
X83802Y75204D01*
X84052Y74954D01*
X84052Y74204D01*
X84052Y74954D01*
X84301Y75204D01*
X84551Y74954D01*
X84551Y74204D01*
X87051Y74204D02*
X86551Y74704D01*
X86551Y75204D01*
X87051Y75704D01*
X87800Y75454D02*
X88050Y75704D01*
X88550Y75704D01*
X88800Y75454D01*
X88800Y75204D01*
X88550Y74954D01*
X88300Y74954D01*
X88550Y74954D01*
X88800Y74704D01*
X88800Y74454D01*
X88550Y74204D01*
X88050Y74204D01*
X87800Y74454D01*
X89300Y74204D02*
X89800Y74204D01*
X89550Y74204D01*
X89550Y75704D01*
X89300Y75454D01*
X90549Y74204D02*
X90549Y74454D01*
X90799Y74454D01*
X90799Y74204D01*
X90549Y74204D01*
X91799Y74454D02*
X92049Y74204D01*
X92549Y74204D01*
X92799Y74454D01*
X92799Y75454D01*
X92549Y75704D01*
X92049Y75704D01*
X91799Y75454D01*
X91799Y75204D01*
X92049Y74954D01*
X92799Y74954D01*
X94298Y75704D02*
X93798Y75454D01*
X93299Y74954D01*
X93299Y74454D01*
X93548Y74204D01*
X94048Y74204D01*
X94298Y74454D01*
X94298Y74704D01*
X94048Y74954D01*
X93299Y74954D01*
X94798Y75454D02*
X95048Y75704D01*
X95548Y75704D01*
X95798Y75454D01*
X95798Y75204D01*
X95548Y74954D01*
X95798Y74704D01*
X95798Y74454D01*
X95548Y74204D01*
X95048Y74204D01*
X94798Y74454D01*
X94798Y74704D01*
X95048Y74954D01*
X94798Y75204D01*
X94798Y75454D01*
X95048Y74954D02*
X95548Y74954D01*
X96298Y74204D02*
X96298Y75204D01*
X96547Y75204D01*
X96797Y74954D01*
X96797Y74204D01*
X96797Y74954D01*
X97047Y75204D01*
X97297Y74954D01*
X97297Y74204D01*
X97797Y74204D02*
X98297Y74204D01*
X98047Y74204D01*
X98047Y75204D01*
X97797Y75204D01*
X99047Y74204D02*
X99547Y74204D01*
X99297Y74204D01*
X99297Y75704D01*
X99047Y75704D01*
X100296Y74204D02*
X100796Y74704D01*
X100796Y75204D01*
X100296Y75704D01*
X107565Y74204D02*
X107565Y75704D01*
X108564Y74204D01*
X108564Y75704D01*
X109064Y74204D02*
X109064Y75704D01*
X109814Y75704D01*
X110064Y75454D01*
X110064Y74954D01*
X109814Y74704D01*
X109064Y74704D01*
X110564Y75704D02*
X111563Y75704D01*
X111064Y75704D01*
X111064Y74204D01*
X112063Y75704D02*
X112063Y74204D01*
X112063Y74954D01*
X113063Y74954D01*
X113063Y75704D01*
X113063Y74204D01*
X119922Y74204D02*
X119922Y75704D01*
X120671Y75704D01*
X120921Y75454D01*
X120921Y74954D01*
X120671Y74704D01*
X119922Y74704D01*
X120421Y74704D02*
X120921Y74204D01*
X121671Y74204D02*
X122171Y74204D01*
X122421Y74454D01*
X122421Y74954D01*
X122171Y75204D01*
X121671Y75204D01*
X121421Y74954D01*
X121421Y74454D01*
X121671Y74204D01*
X122921Y75204D02*
X122921Y74454D01*
X123171Y74204D01*
X123920Y74204D01*
X123920Y75204D01*
X124420Y74204D02*
X124420Y75204D01*
X125170Y75204D01*
X125420Y74954D01*
X125420Y74204D01*
X126919Y75704D02*
X126919Y74204D01*
X126170Y74204D01*
X125920Y74454D01*
X125920Y74954D01*
X126170Y75204D01*
X126919Y75204D01*
X57899Y71204D02*
X58399Y71204D01*
X58149Y71204D01*
X58149Y72704D01*
X57899Y72454D01*
X75054Y72454D02*
X75304Y72704D01*
X75804Y72704D01*
X76054Y72454D01*
X76054Y71454D01*
X75804Y71204D01*
X75304Y71204D01*
X75054Y71454D01*
X75054Y72454D01*
X76554Y71204D02*
X76554Y71454D01*
X76804Y71454D01*
X76804Y71204D01*
X76554Y71204D01*
X77804Y71454D02*
X78053Y71204D01*
X78553Y71204D01*
X78803Y71454D01*
X78803Y72454D01*
X78553Y72704D01*
X78053Y72704D01*
X77804Y72454D01*
X77804Y72204D01*
X78053Y71954D01*
X78803Y71954D01*
X79303Y71204D02*
X79803Y71204D01*
X79553Y71204D01*
X79553Y72704D01*
X79303Y72454D01*
X81552Y71204D02*
X80553Y71204D01*
X81552Y72204D01*
X81552Y72454D01*
X81302Y72704D01*
X80803Y72704D01*
X80553Y72454D01*
X82052Y71204D02*
X82052Y72204D01*
X82302Y72204D01*
X82552Y71954D01*
X82552Y71204D01*
X82552Y71954D01*
X82802Y72204D01*
X83052Y71954D01*
X83052Y71204D01*
X83552Y71204D02*
X83552Y72204D01*
X83802Y72204D01*
X84052Y71954D01*
X84052Y71204D01*
X84052Y71954D01*
X84301Y72204D01*
X84551Y71954D01*
X84551Y71204D01*
X87051Y71204D02*
X86551Y71704D01*
X86551Y72204D01*
X87051Y72704D01*
X87800Y72454D02*
X88050Y72704D01*
X88550Y72704D01*
X88800Y72454D01*
X88800Y72204D01*
X88550Y71954D01*
X88300Y71954D01*
X88550Y71954D01*
X88800Y71704D01*
X88800Y71454D01*
X88550Y71204D01*
X88050Y71204D01*
X87800Y71454D01*
X90299Y72704D02*
X89300Y72704D01*
X89300Y71954D01*
X89800Y72204D01*
X90050Y72204D01*
X90299Y71954D01*
X90299Y71454D01*
X90050Y71204D01*
X89550Y71204D01*
X89300Y71454D01*
X90799Y71204D02*
X90799Y71454D01*
X91049Y71454D01*
X91049Y71204D01*
X90799Y71204D01*
X92049Y71454D02*
X92299Y71204D01*
X92799Y71204D01*
X93049Y71454D01*
X93049Y72454D01*
X92799Y72704D01*
X92299Y72704D01*
X92049Y72454D01*
X92049Y72204D01*
X92299Y71954D01*
X93049Y71954D01*
X93548Y72454D02*
X93798Y72704D01*
X94298Y72704D01*
X94548Y72454D01*
X94548Y71454D01*
X94298Y71204D01*
X93798Y71204D01*
X93548Y71454D01*
X93548Y72454D01*
X96048Y72704D02*
X95548Y72454D01*
X95048Y71954D01*
X95048Y71454D01*
X95298Y71204D01*
X95798Y71204D01*
X96048Y71454D01*
X96048Y71704D01*
X95798Y71954D01*
X95048Y71954D01*
X96547Y71204D02*
X96547Y72204D01*
X96797Y72204D01*
X97047Y71954D01*
X97047Y71204D01*
X97047Y71954D01*
X97297Y72204D01*
X97547Y71954D01*
X97547Y71204D01*
X98047Y71204D02*
X98547Y71204D01*
X98297Y71204D01*
X98297Y72204D01*
X98047Y72204D01*
X99297Y71204D02*
X99796Y71204D01*
X99547Y71204D01*
X99547Y72704D01*
X99297Y72704D01*
X100546Y71204D02*
X101046Y71704D01*
X101046Y72204D01*
X100546Y72704D01*
X107565Y71204D02*
X107565Y72704D01*
X108564Y71204D01*
X108564Y72704D01*
X109064Y71204D02*
X109064Y72704D01*
X109814Y72704D01*
X110064Y72454D01*
X110064Y71954D01*
X109814Y71704D01*
X109064Y71704D01*
X110564Y72704D02*
X111563Y72704D01*
X111064Y72704D01*
X111064Y71204D01*
X112063Y72704D02*
X112063Y71204D01*
X112063Y71954D01*
X113063Y71954D01*
X113063Y72704D01*
X113063Y71204D01*
X119922Y71204D02*
X119922Y72704D01*
X120671Y72704D01*
X120921Y72454D01*
X120921Y71954D01*
X120671Y71704D01*
X119922Y71704D01*
X120421Y71704D02*
X120921Y71204D01*
X121671Y71204D02*
X122171Y71204D01*
X122421Y71454D01*
X122421Y71954D01*
X122171Y72204D01*
X121671Y72204D01*
X121421Y71954D01*
X121421Y71454D01*
X121671Y71204D01*
X122921Y72204D02*
X122921Y71454D01*
X123171Y71204D01*
X123920Y71204D01*
X123920Y72204D01*
X124420Y71204D02*
X124420Y72204D01*
X125170Y72204D01*
X125420Y71954D01*
X125420Y71204D01*
X126919Y72704D02*
X126919Y71204D01*
X126170Y71204D01*
X125920Y71454D01*
X125920Y71954D01*
X126170Y72204D01*
X126919Y72204D01*
X57899Y68204D02*
X58399Y68204D01*
X58149Y68204D01*
X58149Y69704D01*
X57899Y69454D01*
X75054Y68204D02*
X75554Y68204D01*
X75304Y68204D01*
X75304Y69704D01*
X75054Y69454D01*
X76304Y68204D02*
X76304Y68454D01*
X76554Y68454D01*
X76554Y68204D01*
X76304Y68204D01*
X77554Y69454D02*
X77804Y69704D01*
X78303Y69704D01*
X78553Y69454D01*
X78553Y68454D01*
X78303Y68204D01*
X77804Y68204D01*
X77554Y68454D01*
X77554Y69454D01*
X80053Y68204D02*
X79053Y68204D01*
X80053Y69204D01*
X80053Y69454D01*
X79803Y69704D01*
X79303Y69704D01*
X79053Y69454D01*
X80553Y68204D02*
X80553Y69204D01*
X80803Y69204D01*
X81052Y68954D01*
X81052Y68204D01*
X81052Y68954D01*
X81302Y69204D01*
X81552Y68954D01*
X81552Y68204D01*
X82052Y68204D02*
X82052Y69204D01*
X82302Y69204D01*
X82552Y68954D01*
X82552Y68204D01*
X82552Y68954D01*
X82802Y69204D01*
X83052Y68954D01*
X83052Y68204D01*
X85551Y68204D02*
X85051Y68704D01*
X85051Y69204D01*
X85551Y69704D01*
X87051Y68204D02*
X87051Y69704D01*
X86301Y68954D01*
X87300Y68954D01*
X87800Y69454D02*
X88050Y69704D01*
X88550Y69704D01*
X88800Y69454D01*
X88800Y68454D01*
X88550Y68204D01*
X88050Y68204D01*
X87800Y68454D01*
X87800Y69454D01*
X89300Y68204D02*
X89300Y68454D01*
X89550Y68454D01*
X89550Y68204D01*
X89300Y68204D01*
X90549Y68204D02*
X91049Y68204D01*
X90799Y68204D01*
X90799Y69704D01*
X90549Y69454D01*
X92799Y69704D02*
X91799Y69704D01*
X91799Y68954D01*
X92299Y69204D01*
X92549Y69204D01*
X92799Y68954D01*
X92799Y68454D01*
X92549Y68204D01*
X92049Y68204D01*
X91799Y68454D01*
X93299Y69704D02*
X94298Y69704D01*
X94298Y69454D01*
X93299Y68454D01*
X93299Y68204D01*
X94798Y68204D02*
X94798Y69204D01*
X95048Y69204D01*
X95298Y68954D01*
X95298Y68204D01*
X95298Y68954D01*
X95548Y69204D01*
X95798Y68954D01*
X95798Y68204D01*
X96298Y68204D02*
X96797Y68204D01*
X96547Y68204D01*
X96547Y69204D01*
X96298Y69204D01*
X97547Y68204D02*
X98047Y68204D01*
X97797Y68204D01*
X97797Y69704D01*
X97547Y69704D01*
X98797Y68204D02*
X99297Y68704D01*
X99297Y69204D01*
X98797Y69704D01*
X107565Y68204D02*
X107565Y69704D01*
X108564Y68204D01*
X108564Y69704D01*
X109064Y68204D02*
X109064Y69704D01*
X109814Y69704D01*
X110064Y69454D01*
X110064Y68954D01*
X109814Y68704D01*
X109064Y68704D01*
X110564Y69704D02*
X111563Y69704D01*
X111064Y69704D01*
X111064Y68204D01*
X112063Y69704D02*
X112063Y68204D01*
X112063Y68954D01*
X113063Y68954D01*
X113063Y69704D01*
X113063Y68204D01*
X119922Y68204D02*
X119922Y69704D01*
X120671Y69704D01*
X120921Y69454D01*
X120921Y68954D01*
X120671Y68704D01*
X119922Y68704D01*
X120421Y68704D02*
X120921Y68204D01*
X121671Y68204D02*
X122171Y68204D01*
X122421Y68454D01*
X122421Y68954D01*
X122171Y69204D01*
X121671Y69204D01*
X121421Y68954D01*
X121421Y68454D01*
X121671Y68204D01*
X122921Y69204D02*
X122921Y68454D01*
X123171Y68204D01*
X123920Y68204D01*
X123920Y69204D01*
X124420Y68204D02*
X124420Y69204D01*
X125170Y69204D01*
X125420Y68954D01*
X125420Y68204D01*
X126919Y69704D02*
X126919Y68204D01*
X126170Y68204D01*
X125920Y68454D01*
X125920Y68954D01*
X126170Y69204D01*
X126919Y69204D01*
X57899Y65204D02*
X58399Y65204D01*
X58149Y65204D01*
X58149Y66704D01*
X57899Y66454D01*
X75054Y65204D02*
X75554Y65204D01*
X75304Y65204D01*
X75304Y66704D01*
X75054Y66454D01*
X76304Y65204D02*
X76304Y65454D01*
X76554Y65454D01*
X76554Y65204D01*
X76304Y65204D01*
X77554Y65204D02*
X78053Y65204D01*
X77804Y65204D01*
X77804Y66704D01*
X77554Y66454D01*
X79803Y66704D02*
X78803Y66704D01*
X78803Y65954D01*
X79303Y66204D01*
X79553Y66204D01*
X79803Y65954D01*
X79803Y65454D01*
X79553Y65204D01*
X79053Y65204D01*
X78803Y65454D01*
X80303Y65204D02*
X80303Y66204D01*
X80553Y66204D01*
X80803Y65954D01*
X80803Y65204D01*
X80803Y65954D01*
X81052Y66204D01*
X81302Y65954D01*
X81302Y65204D01*
X81802Y65204D02*
X81802Y66204D01*
X82052Y66204D01*
X82302Y65954D01*
X82302Y65204D01*
X82302Y65954D01*
X82552Y66204D01*
X82802Y65954D01*
X82802Y65204D01*
X85301Y65204D02*
X84801Y65704D01*
X84801Y66204D01*
X85301Y66704D01*
X86801Y65204D02*
X86801Y66704D01*
X86051Y65954D01*
X87051Y65954D01*
X88550Y66704D02*
X87550Y66704D01*
X87550Y65954D01*
X88050Y66204D01*
X88300Y66204D01*
X88550Y65954D01*
X88550Y65454D01*
X88300Y65204D01*
X87800Y65204D01*
X87550Y65454D01*
X89050Y65204D02*
X89050Y65454D01*
X89300Y65454D01*
X89300Y65204D01*
X89050Y65204D01*
X91299Y65204D02*
X90299Y65204D01*
X91299Y66204D01*
X91299Y66454D01*
X91049Y66704D01*
X90549Y66704D01*
X90299Y66454D01*
X91799Y66704D02*
X92799Y66704D01*
X92799Y66454D01*
X91799Y65454D01*
X91799Y65204D01*
X94298Y66704D02*
X93798Y66454D01*
X93299Y65954D01*
X93299Y65454D01*
X93548Y65204D01*
X94048Y65204D01*
X94298Y65454D01*
X94298Y65704D01*
X94048Y65954D01*
X93299Y65954D01*
X94798Y65204D02*
X94798Y66204D01*
X95048Y66204D01*
X95298Y65954D01*
X95298Y65204D01*
X95298Y65954D01*
X95548Y66204D01*
X95798Y65954D01*
X95798Y65204D01*
X96298Y65204D02*
X96797Y65204D01*
X96547Y65204D01*
X96547Y66204D01*
X96298Y66204D01*
X97547Y65204D02*
X98047Y65204D01*
X97797Y65204D01*
X97797Y66704D01*
X97547Y66704D01*
X98797Y65204D02*
X99297Y65704D01*
X99297Y66204D01*
X98797Y66704D01*
X107565Y65204D02*
X107565Y66704D01*
X108564Y65204D01*
X108564Y66704D01*
X109064Y65204D02*
X109064Y66704D01*
X109814Y66704D01*
X110064Y66454D01*
X110064Y65954D01*
X109814Y65704D01*
X109064Y65704D01*
X110564Y66704D02*
X111563Y66704D01*
X111064Y66704D01*
X111064Y65204D01*
X112063Y66704D02*
X112063Y65204D01*
X112063Y65954D01*
X113063Y65954D01*
X113063Y66704D01*
X113063Y65204D01*
X119922Y65204D02*
X119922Y66704D01*
X120671Y66704D01*
X120921Y66454D01*
X120921Y65954D01*
X120671Y65704D01*
X119922Y65704D01*
X120421Y65704D02*
X120921Y65204D01*
X121671Y65204D02*
X122171Y65204D01*
X122421Y65454D01*
X122421Y65954D01*
X122171Y66204D01*
X121671Y66204D01*
X121421Y65954D01*
X121421Y65454D01*
X121671Y65204D01*
X122921Y66204D02*
X122921Y65454D01*
X123171Y65204D01*
X123920Y65204D01*
X123920Y66204D01*
X124420Y65204D02*
X124420Y66204D01*
X125170Y66204D01*
X125420Y65954D01*
X125420Y65204D01*
X126919Y66704D02*
X126919Y65204D01*
X126170Y65204D01*
X125920Y65454D01*
X125920Y65954D01*
X126170Y66204D01*
X126919Y66204D01*
X57899Y62204D02*
X58399Y62204D01*
X58149Y62204D01*
X58149Y63704D01*
X57899Y63454D01*
X75054Y62204D02*
X75554Y62204D01*
X75304Y62204D01*
X75304Y63704D01*
X75054Y63454D01*
X76304Y62204D02*
X76304Y62454D01*
X76554Y62454D01*
X76554Y62204D01*
X76304Y62204D01*
X78553Y62204D02*
X77554Y62204D01*
X78553Y63204D01*
X78553Y63454D01*
X78303Y63704D01*
X77804Y63704D01*
X77554Y63454D01*
X79053Y62454D02*
X79303Y62204D01*
X79803Y62204D01*
X80053Y62454D01*
X80053Y63454D01*
X79803Y63704D01*
X79303Y63704D01*
X79053Y63454D01*
X79053Y63204D01*
X79303Y62954D01*
X80053Y62954D01*
X80553Y62204D02*
X80553Y63204D01*
X80803Y63204D01*
X81052Y62954D01*
X81052Y62204D01*
X81052Y62954D01*
X81302Y63204D01*
X81552Y62954D01*
X81552Y62204D01*
X82052Y62204D02*
X82052Y63204D01*
X82302Y63204D01*
X82552Y62954D01*
X82552Y62204D01*
X82552Y62954D01*
X82802Y63204D01*
X83052Y62954D01*
X83052Y62204D01*
X85551Y62204D02*
X85051Y62704D01*
X85051Y63204D01*
X85551Y63704D01*
X87300Y63704D02*
X86301Y63704D01*
X86301Y62954D01*
X86801Y63204D01*
X87051Y63204D01*
X87300Y62954D01*
X87300Y62454D01*
X87051Y62204D01*
X86551Y62204D01*
X86301Y62454D01*
X87800Y63454D02*
X88050Y63704D01*
X88550Y63704D01*
X88800Y63454D01*
X88800Y62454D01*
X88550Y62204D01*
X88050Y62204D01*
X87800Y62454D01*
X87800Y63454D01*
X89300Y62204D02*
X89300Y62454D01*
X89550Y62454D01*
X89550Y62204D01*
X89300Y62204D01*
X90549Y63704D02*
X91549Y63704D01*
X91549Y63454D01*
X90549Y62454D01*
X90549Y62204D01*
X92049Y63454D02*
X92299Y63704D01*
X92799Y63704D01*
X93049Y63454D01*
X93049Y63204D01*
X92799Y62954D01*
X93049Y62704D01*
X93049Y62454D01*
X92799Y62204D01*
X92299Y62204D01*
X92049Y62454D01*
X92049Y62704D01*
X92299Y62954D01*
X92049Y63204D01*
X92049Y63454D01*
X92299Y62954D02*
X92799Y62954D01*
X93548Y63704D02*
X94548Y63704D01*
X94548Y63454D01*
X93548Y62454D01*
X93548Y62204D01*
X95048Y62204D02*
X95048Y63204D01*
X95298Y63204D01*
X95548Y62954D01*
X95548Y62204D01*
X95548Y62954D01*
X95798Y63204D01*
X96048Y62954D01*
X96048Y62204D01*
X96547Y62204D02*
X97047Y62204D01*
X96797Y62204D01*
X96797Y63204D01*
X96547Y63204D01*
X97797Y62204D02*
X98297Y62204D01*
X98047Y62204D01*
X98047Y63704D01*
X97797Y63704D01*
X99047Y62204D02*
X99547Y62704D01*
X99547Y63204D01*
X99047Y63704D01*
X107565Y62204D02*
X107565Y63704D01*
X108564Y62204D01*
X108564Y63704D01*
X109064Y62204D02*
X109064Y63704D01*
X109814Y63704D01*
X110064Y63454D01*
X110064Y62954D01*
X109814Y62704D01*
X109064Y62704D01*
X110564Y63704D02*
X111563Y63704D01*
X111064Y63704D01*
X111064Y62204D01*
X112063Y63704D02*
X112063Y62204D01*
X112063Y62954D01*
X113063Y62954D01*
X113063Y63704D01*
X113063Y62204D01*
X119922Y62204D02*
X119922Y63704D01*
X120671Y63704D01*
X120921Y63454D01*
X120921Y62954D01*
X120671Y62704D01*
X119922Y62704D01*
X120421Y62704D02*
X120921Y62204D01*
X121671Y62204D02*
X122171Y62204D01*
X122421Y62454D01*
X122421Y62954D01*
X122171Y63204D01*
X121671Y63204D01*
X121421Y62954D01*
X121421Y62454D01*
X121671Y62204D01*
X122921Y63204D02*
X122921Y62454D01*
X123171Y62204D01*
X123920Y62204D01*
X123920Y63204D01*
X124420Y62204D02*
X124420Y63204D01*
X125170Y63204D01*
X125420Y62954D01*
X125420Y62204D01*
X126919Y63704D02*
X126919Y62204D01*
X126170Y62204D01*
X125920Y62454D01*
X125920Y62954D01*
X126170Y63204D01*
X126919Y63204D01*
X57899Y59204D02*
X58399Y59204D01*
X58149Y59204D01*
X58149Y60704D01*
X57899Y60454D01*
X75054Y59204D02*
X75554Y59204D01*
X75304Y59204D01*
X75304Y60704D01*
X75054Y60454D01*
X76304Y59204D02*
X76304Y59454D01*
X76554Y59454D01*
X76554Y59204D01*
X76304Y59204D01*
X78303Y59204D02*
X78303Y60704D01*
X77554Y59954D01*
X78553Y59954D01*
X80053Y60704D02*
X79053Y60704D01*
X79053Y59954D01*
X79553Y60204D01*
X79803Y60204D01*
X80053Y59954D01*
X80053Y59454D01*
X79803Y59204D01*
X79303Y59204D01*
X79053Y59454D01*
X80553Y59204D02*
X80553Y60204D01*
X80803Y60204D01*
X81052Y59954D01*
X81052Y59204D01*
X81052Y59954D01*
X81302Y60204D01*
X81552Y59954D01*
X81552Y59204D01*
X82052Y59204D02*
X82052Y60204D01*
X82302Y60204D01*
X82552Y59954D01*
X82552Y59204D01*
X82552Y59954D01*
X82802Y60204D01*
X83052Y59954D01*
X83052Y59204D01*
X85551Y59204D02*
X85051Y59704D01*
X85051Y60204D01*
X85551Y60704D01*
X87300Y60704D02*
X86301Y60704D01*
X86301Y59954D01*
X86801Y60204D01*
X87051Y60204D01*
X87300Y59954D01*
X87300Y59454D01*
X87051Y59204D01*
X86551Y59204D01*
X86301Y59454D01*
X87800Y60704D02*
X88800Y60704D01*
X88800Y60454D01*
X87800Y59454D01*
X87800Y59204D01*
X89300Y59204D02*
X89300Y59454D01*
X89550Y59454D01*
X89550Y59204D01*
X89300Y59204D01*
X90549Y60454D02*
X90799Y60704D01*
X91299Y60704D01*
X91549Y60454D01*
X91549Y59454D01*
X91299Y59204D01*
X90799Y59204D01*
X90549Y59454D01*
X90549Y60454D01*
X92049Y60454D02*
X92299Y60704D01*
X92799Y60704D01*
X93049Y60454D01*
X93049Y60204D01*
X92799Y59954D01*
X93049Y59704D01*
X93049Y59454D01*
X92799Y59204D01*
X92299Y59204D01*
X92049Y59454D01*
X92049Y59704D01*
X92299Y59954D01*
X92049Y60204D01*
X92049Y60454D01*
X92299Y59954D02*
X92799Y59954D01*
X93548Y60704D02*
X94548Y60704D01*
X94548Y60454D01*
X93548Y59454D01*
X93548Y59204D01*
X95048Y59204D02*
X95048Y60204D01*
X95298Y60204D01*
X95548Y59954D01*
X95548Y59204D01*
X95548Y59954D01*
X95798Y60204D01*
X96048Y59954D01*
X96048Y59204D01*
X96547Y59204D02*
X97047Y59204D01*
X96797Y59204D01*
X96797Y60204D01*
X96547Y60204D01*
X97797Y59204D02*
X98297Y59204D01*
X98047Y59204D01*
X98047Y60704D01*
X97797Y60704D01*
X99047Y59204D02*
X99547Y59704D01*
X99547Y60204D01*
X99047Y60704D01*
X107565Y59204D02*
X107565Y60704D01*
X108564Y59204D01*
X108564Y60704D01*
X109064Y59204D02*
X109064Y60704D01*
X109814Y60704D01*
X110064Y60454D01*
X110064Y59954D01*
X109814Y59704D01*
X109064Y59704D01*
X110564Y60704D02*
X111563Y60704D01*
X111064Y60704D01*
X111064Y59204D01*
X112063Y60704D02*
X112063Y59204D01*
X112063Y59954D01*
X113063Y59954D01*
X113063Y60704D01*
X113063Y59204D01*
X119922Y59204D02*
X119922Y60704D01*
X120671Y60704D01*
X120921Y60454D01*
X120921Y59954D01*
X120671Y59704D01*
X119922Y59704D01*
X120421Y59704D02*
X120921Y59204D01*
X121671Y59204D02*
X122171Y59204D01*
X122421Y59454D01*
X122421Y59954D01*
X122171Y60204D01*
X121671Y60204D01*
X121421Y59954D01*
X121421Y59454D01*
X121671Y59204D01*
X122921Y60204D02*
X122921Y59454D01*
X123171Y59204D01*
X123920Y59204D01*
X123920Y60204D01*
X124420Y59204D02*
X124420Y60204D01*
X125170Y60204D01*
X125420Y59954D01*
X125420Y59204D01*
X126919Y60704D02*
X126919Y59204D01*
X126170Y59204D01*
X125920Y59454D01*
X125920Y59954D01*
X126170Y60204D01*
X126919Y60204D01*
X57899Y56204D02*
X58399Y56204D01*
X58149Y56204D01*
X58149Y57704D01*
X57899Y57454D01*
X75054Y56204D02*
X75554Y56204D01*
X75304Y56204D01*
X75304Y57704D01*
X75054Y57454D01*
X76304Y56204D02*
X76304Y56454D01*
X76554Y56454D01*
X76554Y56204D01*
X76304Y56204D01*
X78553Y57704D02*
X78053Y57454D01*
X77554Y56954D01*
X77554Y56454D01*
X77804Y56204D01*
X78303Y56204D01*
X78553Y56454D01*
X78553Y56704D01*
X78303Y56954D01*
X77554Y56954D01*
X79053Y57454D02*
X79303Y57704D01*
X79803Y57704D01*
X80053Y57454D01*
X80053Y57204D01*
X79803Y56954D01*
X79553Y56954D01*
X79803Y56954D01*
X80053Y56704D01*
X80053Y56454D01*
X79803Y56204D01*
X79303Y56204D01*
X79053Y56454D01*
X80553Y56204D02*
X80553Y57204D01*
X80803Y57204D01*
X81052Y56954D01*
X81052Y56204D01*
X81052Y56954D01*
X81302Y57204D01*
X81552Y56954D01*
X81552Y56204D01*
X82052Y56204D02*
X82052Y57204D01*
X82302Y57204D01*
X82552Y56954D01*
X82552Y56204D01*
X82552Y56954D01*
X82802Y57204D01*
X83052Y56954D01*
X83052Y56204D01*
X85551Y56204D02*
X85051Y56704D01*
X85051Y57204D01*
X85551Y57704D01*
X87300Y57704D02*
X86801Y57454D01*
X86301Y56954D01*
X86301Y56454D01*
X86551Y56204D01*
X87051Y56204D01*
X87300Y56454D01*
X87300Y56704D01*
X87051Y56954D01*
X86301Y56954D01*
X88550Y56204D02*
X88550Y57704D01*
X87800Y56954D01*
X88800Y56954D01*
X89300Y56204D02*
X89300Y56454D01*
X89550Y56454D01*
X89550Y56204D01*
X89300Y56204D01*
X90549Y56204D02*
X91049Y56204D01*
X90799Y56204D01*
X90799Y57704D01*
X90549Y57454D01*
X91799Y57704D02*
X92799Y57704D01*
X92799Y57454D01*
X91799Y56454D01*
X91799Y56204D01*
X93299Y57454D02*
X93548Y57704D01*
X94048Y57704D01*
X94298Y57454D01*
X94298Y57204D01*
X94048Y56954D01*
X93798Y56954D01*
X94048Y56954D01*
X94298Y56704D01*
X94298Y56454D01*
X94048Y56204D01*
X93548Y56204D01*
X93299Y56454D01*
X94798Y56204D02*
X94798Y57204D01*
X95048Y57204D01*
X95298Y56954D01*
X95298Y56204D01*
X95298Y56954D01*
X95548Y57204D01*
X95798Y56954D01*
X95798Y56204D01*
X96298Y56204D02*
X96797Y56204D01*
X96547Y56204D01*
X96547Y57204D01*
X96298Y57204D01*
X97547Y56204D02*
X98047Y56204D01*
X97797Y56204D01*
X97797Y57704D01*
X97547Y57704D01*
X98797Y56204D02*
X99297Y56704D01*
X99297Y57204D01*
X98797Y57704D01*
X107565Y56204D02*
X107565Y57704D01*
X108564Y56204D01*
X108564Y57704D01*
X109064Y56204D02*
X109064Y57704D01*
X109814Y57704D01*
X110064Y57454D01*
X110064Y56954D01*
X109814Y56704D01*
X109064Y56704D01*
X110564Y57704D02*
X111563Y57704D01*
X111064Y57704D01*
X111064Y56204D01*
X112063Y57704D02*
X112063Y56204D01*
X112063Y56954D01*
X113063Y56954D01*
X113063Y57704D01*
X113063Y56204D01*
X119922Y56204D02*
X119922Y57704D01*
X120671Y57704D01*
X120921Y57454D01*
X120921Y56954D01*
X120671Y56704D01*
X119922Y56704D01*
X120421Y56704D02*
X120921Y56204D01*
X121671Y56204D02*
X122171Y56204D01*
X122421Y56454D01*
X122421Y56954D01*
X122171Y57204D01*
X121671Y57204D01*
X121421Y56954D01*
X121421Y56454D01*
X121671Y56204D01*
X122921Y57204D02*
X122921Y56454D01*
X123171Y56204D01*
X123920Y56204D01*
X123920Y57204D01*
X124420Y56204D02*
X124420Y57204D01*
X125170Y57204D01*
X125420Y56954D01*
X125420Y56204D01*
X126919Y57704D02*
X126919Y56204D01*
X126170Y56204D01*
X125920Y56454D01*
X125920Y56954D01*
X126170Y57204D01*
X126919Y57204D01*
X46101Y53204D02*
X46101Y54204D01*
X46601Y54704D01*
X47101Y54204D01*
X47101Y53204D01*
X47101Y53954D01*
X46101Y53954D01*
X57899Y53204D02*
X58399Y53204D01*
X58149Y53204D01*
X58149Y54704D01*
X57899Y54454D01*
X75054Y53204D02*
X75554Y53204D01*
X75304Y53204D01*
X75304Y54704D01*
X75054Y54454D01*
X76304Y53204D02*
X76304Y53454D01*
X76554Y53454D01*
X76554Y53204D01*
X76304Y53204D01*
X77554Y54454D02*
X77804Y54704D01*
X78303Y54704D01*
X78553Y54454D01*
X78553Y54204D01*
X78303Y53954D01*
X78553Y53704D01*
X78553Y53454D01*
X78303Y53204D01*
X77804Y53204D01*
X77554Y53454D01*
X77554Y53704D01*
X77804Y53954D01*
X77554Y54204D01*
X77554Y54454D01*
X77804Y53954D02*
X78303Y53954D01*
X79053Y54454D02*
X79303Y54704D01*
X79803Y54704D01*
X80053Y54454D01*
X80053Y54204D01*
X79803Y53954D01*
X79553Y53954D01*
X79803Y53954D01*
X80053Y53704D01*
X80053Y53454D01*
X79803Y53204D01*
X79303Y53204D01*
X79053Y53454D01*
X80553Y53204D02*
X80553Y54204D01*
X80803Y54204D01*
X81052Y53954D01*
X81052Y53204D01*
X81052Y53954D01*
X81302Y54204D01*
X81552Y53954D01*
X81552Y53204D01*
X82052Y53204D02*
X82052Y54204D01*
X82302Y54204D01*
X82552Y53954D01*
X82552Y53204D01*
X82552Y53954D01*
X82802Y54204D01*
X83052Y53954D01*
X83052Y53204D01*
X85551Y53204D02*
X85051Y53704D01*
X85051Y54204D01*
X85551Y54704D01*
X86301Y54704D02*
X87300Y54704D01*
X87300Y54454D01*
X86301Y53454D01*
X86301Y53204D01*
X88800Y53204D02*
X87800Y53204D01*
X88800Y54204D01*
X88800Y54454D01*
X88550Y54704D01*
X88050Y54704D01*
X87800Y54454D01*
X89300Y53204D02*
X89300Y53454D01*
X89550Y53454D01*
X89550Y53204D01*
X89300Y53204D01*
X90549Y54454D02*
X90799Y54704D01*
X91299Y54704D01*
X91549Y54454D01*
X91549Y53454D01*
X91299Y53204D01*
X90799Y53204D01*
X90549Y53454D01*
X90549Y54454D01*
X92799Y53204D02*
X92799Y54704D01*
X92049Y53954D01*
X93049Y53954D01*
X93548Y54704D02*
X94548Y54704D01*
X94548Y54454D01*
X93548Y53454D01*
X93548Y53204D01*
X95048Y53204D02*
X95048Y54204D01*
X95298Y54204D01*
X95548Y53954D01*
X95548Y53204D01*
X95548Y53954D01*
X95798Y54204D01*
X96048Y53954D01*
X96048Y53204D01*
X96547Y53204D02*
X97047Y53204D01*
X96797Y53204D01*
X96797Y54204D01*
X96547Y54204D01*
X97797Y53204D02*
X98297Y53204D01*
X98047Y53204D01*
X98047Y54704D01*
X97797Y54704D01*
X99047Y53204D02*
X99547Y53704D01*
X99547Y54204D01*
X99047Y54704D01*
X107565Y53204D02*
X107565Y54704D01*
X108564Y53204D01*
X108564Y54704D01*
X109064Y53204D02*
X109064Y54704D01*
X109814Y54704D01*
X110064Y54454D01*
X110064Y53954D01*
X109814Y53704D01*
X109064Y53704D01*
X110564Y54704D02*
X111563Y54704D01*
X111064Y54704D01*
X111064Y53204D01*
X112063Y54704D02*
X112063Y53204D01*
X112063Y53954D01*
X113063Y53954D01*
X113063Y54704D01*
X113063Y53204D01*
X119922Y53204D02*
X119922Y54704D01*
X120671Y54704D01*
X120921Y54454D01*
X120921Y53954D01*
X120671Y53704D01*
X119922Y53704D01*
X120421Y53704D02*
X120921Y53204D01*
X121671Y53204D02*
X122171Y53204D01*
X122421Y53454D01*
X122421Y53954D01*
X122171Y54204D01*
X121671Y54204D01*
X121421Y53954D01*
X121421Y53454D01*
X121671Y53204D01*
X122921Y54204D02*
X122921Y53454D01*
X123171Y53204D01*
X123920Y53204D01*
X123920Y54204D01*
X124420Y53204D02*
X124420Y54204D01*
X125170Y54204D01*
X125420Y53954D01*
X125420Y53204D01*
X126919Y54704D02*
X126919Y53204D01*
X126170Y53204D01*
X125920Y53454D01*
X125920Y53954D01*
X126170Y54204D01*
X126919Y54204D01*
X46101Y51704D02*
X46101Y50204D01*
X46851Y50204D01*
X47101Y50454D01*
X47101Y50704D01*
X46851Y50954D01*
X46101Y50954D01*
X46851Y50954D01*
X47101Y51204D01*
X47101Y51454D01*
X46851Y51704D01*
X46101Y51704D01*
X57899Y50204D02*
X58399Y50204D01*
X58149Y50204D01*
X58149Y51704D01*
X57899Y51454D01*
X76054Y50204D02*
X75054Y50204D01*
X76054Y51204D01*
X76054Y51454D01*
X75804Y51704D01*
X75304Y51704D01*
X75054Y51454D01*
X76554Y50204D02*
X76554Y50454D01*
X76804Y50454D01*
X76804Y50204D01*
X76554Y50204D01*
X77804Y51454D02*
X78053Y51704D01*
X78553Y51704D01*
X78803Y51454D01*
X78803Y50454D01*
X78553Y50204D01*
X78053Y50204D01*
X77804Y50454D01*
X77804Y51454D01*
X80303Y51704D02*
X79303Y51704D01*
X79303Y50954D01*
X79803Y51204D01*
X80053Y51204D01*
X80303Y50954D01*
X80303Y50454D01*
X80053Y50204D01*
X79553Y50204D01*
X79303Y50454D01*
X80803Y50204D02*
X80803Y51204D01*
X81052Y51204D01*
X81302Y50954D01*
X81302Y50204D01*
X81302Y50954D01*
X81552Y51204D01*
X81802Y50954D01*
X81802Y50204D01*
X82302Y50204D02*
X82302Y51204D01*
X82552Y51204D01*
X82802Y50954D01*
X82802Y50204D01*
X82802Y50954D01*
X83052Y51204D01*
X83302Y50954D01*
X83302Y50204D01*
X85801Y50204D02*
X85301Y50704D01*
X85301Y51204D01*
X85801Y51704D01*
X86551Y51454D02*
X86801Y51704D01*
X87300Y51704D01*
X87550Y51454D01*
X87550Y51204D01*
X87300Y50954D01*
X87550Y50704D01*
X87550Y50454D01*
X87300Y50204D01*
X86801Y50204D01*
X86551Y50454D01*
X86551Y50704D01*
X86801Y50954D01*
X86551Y51204D01*
X86551Y51454D01*
X86801Y50954D02*
X87300Y50954D01*
X88050Y51454D02*
X88300Y51704D01*
X88800Y51704D01*
X89050Y51454D01*
X89050Y50454D01*
X88800Y50204D01*
X88300Y50204D01*
X88050Y50454D01*
X88050Y51454D01*
X89550Y50204D02*
X89550Y50454D01*
X89800Y50454D01*
X89800Y50204D01*
X89550Y50204D01*
X90799Y51704D02*
X91799Y51704D01*
X91799Y51454D01*
X90799Y50454D01*
X90799Y50204D01*
X92299Y51454D02*
X92549Y51704D01*
X93049Y51704D01*
X93299Y51454D01*
X93299Y50454D01*
X93049Y50204D01*
X92549Y50204D01*
X92299Y50454D01*
X92299Y51454D01*
X93798Y50454D02*
X94048Y50204D01*
X94548Y50204D01*
X94798Y50454D01*
X94798Y51454D01*
X94548Y51704D01*
X94048Y51704D01*
X93798Y51454D01*
X93798Y51204D01*
X94048Y50954D01*
X94798Y50954D01*
X95298Y50204D02*
X95298Y51204D01*
X95548Y51204D01*
X95798Y50954D01*
X95798Y50204D01*
X95798Y50954D01*
X96048Y51204D01*
X96298Y50954D01*
X96298Y50204D01*
X96797Y50204D02*
X97297Y50204D01*
X97047Y50204D01*
X97047Y51204D01*
X96797Y51204D01*
X98047Y50204D02*
X98547Y50204D01*
X98297Y50204D01*
X98297Y51704D01*
X98047Y51704D01*
X99297Y50204D02*
X99796Y50704D01*
X99796Y51204D01*
X99297Y51704D01*
X107565Y50204D02*
X107565Y51704D01*
X108564Y50204D01*
X108564Y51704D01*
X109064Y50204D02*
X109064Y51704D01*
X109814Y51704D01*
X110064Y51454D01*
X110064Y50954D01*
X109814Y50704D01*
X109064Y50704D01*
X110564Y51704D02*
X111563Y51704D01*
X111064Y51704D01*
X111064Y50204D01*
X112063Y51704D02*
X112063Y50204D01*
X112063Y50954D01*
X113063Y50954D01*
X113063Y51704D01*
X113063Y50204D01*
X119922Y50204D02*
X119922Y51704D01*
X120671Y51704D01*
X120921Y51454D01*
X120921Y50954D01*
X120671Y50704D01*
X119922Y50704D01*
X120421Y50704D02*
X120921Y50204D01*
X121671Y50204D02*
X122171Y50204D01*
X122421Y50454D01*
X122421Y50954D01*
X122171Y51204D01*
X121671Y51204D01*
X121421Y50954D01*
X121421Y50454D01*
X121671Y50204D01*
X122921Y51204D02*
X122921Y50454D01*
X123171Y50204D01*
X123920Y50204D01*
X123920Y51204D01*
X124420Y50204D02*
X124420Y51204D01*
X125170Y51204D01*
X125420Y50954D01*
X125420Y50204D01*
X126919Y51704D02*
X126919Y50204D01*
X126170Y50204D01*
X125920Y50454D01*
X125920Y50954D01*
X126170Y51204D01*
X126919Y51204D01*
X47101Y48454D02*
X46851Y48704D01*
X46351Y48704D01*
X46101Y48454D01*
X46101Y47454D01*
X46351Y47204D01*
X46851Y47204D01*
X47101Y47454D01*
X57899Y47204D02*
X58399Y47204D01*
X58149Y47204D01*
X58149Y48704D01*
X57899Y48454D01*
X76054Y47204D02*
X75054Y47204D01*
X76054Y48204D01*
X76054Y48454D01*
X75804Y48704D01*
X75304Y48704D01*
X75054Y48454D01*
X76554Y47204D02*
X76554Y47454D01*
X76804Y47454D01*
X76804Y47204D01*
X76554Y47204D01*
X77804Y48454D02*
X78053Y48704D01*
X78553Y48704D01*
X78803Y48454D01*
X78803Y48204D01*
X78553Y47954D01*
X78303Y47954D01*
X78553Y47954D01*
X78803Y47704D01*
X78803Y47454D01*
X78553Y47204D01*
X78053Y47204D01*
X77804Y47454D01*
X79303Y47204D02*
X79303Y48204D01*
X79553Y48204D01*
X79803Y47954D01*
X79803Y47204D01*
X79803Y47954D01*
X80053Y48204D01*
X80303Y47954D01*
X80303Y47204D01*
X80803Y47204D02*
X80803Y48204D01*
X81052Y48204D01*
X81302Y47954D01*
X81302Y47204D01*
X81302Y47954D01*
X81552Y48204D01*
X81802Y47954D01*
X81802Y47204D01*
X84301Y47204D02*
X83802Y47704D01*
X83802Y48204D01*
X84301Y48704D01*
X85051Y47454D02*
X85301Y47204D01*
X85801Y47204D01*
X86051Y47454D01*
X86051Y48454D01*
X85801Y48704D01*
X85301Y48704D01*
X85051Y48454D01*
X85051Y48204D01*
X85301Y47954D01*
X86051Y47954D01*
X86551Y48454D02*
X86801Y48704D01*
X87300Y48704D01*
X87550Y48454D01*
X87550Y47454D01*
X87300Y47204D01*
X86801Y47204D01*
X86551Y47454D01*
X86551Y48454D01*
X88050Y47204D02*
X88050Y47454D01*
X88300Y47454D01*
X88300Y47204D01*
X88050Y47204D01*
X90299Y48704D02*
X89300Y48704D01*
X89300Y47954D01*
X89800Y48204D01*
X90050Y48204D01*
X90299Y47954D01*
X90299Y47454D01*
X90050Y47204D01*
X89550Y47204D01*
X89300Y47454D01*
X91799Y48704D02*
X90799Y48704D01*
X90799Y47954D01*
X91299Y48204D01*
X91549Y48204D01*
X91799Y47954D01*
X91799Y47454D01*
X91549Y47204D01*
X91049Y47204D01*
X90799Y47454D01*
X92299Y47204D02*
X92799Y47204D01*
X92549Y47204D01*
X92549Y48704D01*
X92299Y48454D01*
X93548Y47204D02*
X93548Y48204D01*
X93798Y48204D01*
X94048Y47954D01*
X94048Y47204D01*
X94048Y47954D01*
X94298Y48204D01*
X94548Y47954D01*
X94548Y47204D01*
X95048Y47204D02*
X95548Y47204D01*
X95298Y47204D01*
X95298Y48204D01*
X95048Y48204D01*
X96298Y47204D02*
X96797Y47204D01*
X96547Y47204D01*
X96547Y48704D01*
X96298Y48704D01*
X97547Y47204D02*
X98047Y47704D01*
X98047Y48204D01*
X97547Y48704D01*
X107565Y47204D02*
X107565Y48704D01*
X108564Y47204D01*
X108564Y48704D01*
X109064Y47204D02*
X109064Y48704D01*
X109814Y48704D01*
X110064Y48454D01*
X110064Y47954D01*
X109814Y47704D01*
X109064Y47704D01*
X110564Y48704D02*
X111563Y48704D01*
X111064Y48704D01*
X111064Y47204D01*
X112063Y48704D02*
X112063Y47204D01*
X112063Y47954D01*
X113063Y47954D01*
X113063Y48704D01*
X113063Y47204D01*
X119922Y47204D02*
X119922Y48704D01*
X120671Y48704D01*
X120921Y48454D01*
X120921Y47954D01*
X120671Y47704D01*
X119922Y47704D01*
X120421Y47704D02*
X120921Y47204D01*
X121671Y47204D02*
X122171Y47204D01*
X122421Y47454D01*
X122421Y47954D01*
X122171Y48204D01*
X121671Y48204D01*
X121421Y47954D01*
X121421Y47454D01*
X121671Y47204D01*
X122921Y48204D02*
X122921Y47454D01*
X123171Y47204D01*
X123920Y47204D01*
X123920Y48204D01*
X124420Y47204D02*
X124420Y48204D01*
X125170Y48204D01*
X125420Y47954D01*
X125420Y47204D01*
X126919Y48704D02*
X126919Y47204D01*
X126170Y47204D01*
X125920Y47454D01*
X125920Y47954D01*
X126170Y48204D01*
X126919Y48204D01*
X46101Y45704D02*
X46101Y44204D01*
X46851Y44204D01*
X47101Y44454D01*
X47101Y45454D01*
X46851Y45704D01*
X46101Y45704D01*
X57899Y44204D02*
X58399Y44204D01*
X58149Y44204D01*
X58149Y45704D01*
X57899Y45454D01*
X76054Y44204D02*
X75054Y44204D01*
X76054Y45204D01*
X76054Y45454D01*
X75804Y45704D01*
X75304Y45704D01*
X75054Y45454D01*
X76554Y44204D02*
X76554Y44454D01*
X76804Y44454D01*
X76804Y44204D01*
X76554Y44204D01*
X78803Y45704D02*
X77804Y45704D01*
X77804Y44954D01*
X78303Y45204D01*
X78553Y45204D01*
X78803Y44954D01*
X78803Y44454D01*
X78553Y44204D01*
X78053Y44204D01*
X77804Y44454D01*
X79303Y44454D02*
X79553Y44204D01*
X80053Y44204D01*
X80303Y44454D01*
X80303Y45454D01*
X80053Y45704D01*
X79553Y45704D01*
X79303Y45454D01*
X79303Y45204D01*
X79553Y44954D01*
X80303Y44954D01*
X80803Y45454D02*
X81052Y45704D01*
X81552Y45704D01*
X81802Y45454D01*
X81802Y44454D01*
X81552Y44204D01*
X81052Y44204D01*
X80803Y44454D01*
X80803Y45454D01*
X82302Y45454D02*
X82552Y45704D01*
X83052Y45704D01*
X83302Y45454D01*
X83302Y44454D01*
X83052Y44204D01*
X82552Y44204D01*
X82302Y44454D01*
X82302Y45454D01*
X83802Y44204D02*
X84301Y44204D01*
X84052Y44204D01*
X84052Y45704D01*
X83802Y45454D01*
X85051Y44204D02*
X85051Y45204D01*
X85301Y45204D01*
X85551Y44954D01*
X85551Y44204D01*
X85551Y44954D01*
X85801Y45204D01*
X86051Y44954D01*
X86051Y44204D01*
X86551Y44204D02*
X86551Y45204D01*
X86801Y45204D01*
X87051Y44954D01*
X87051Y44204D01*
X87051Y44954D01*
X87300Y45204D01*
X87550Y44954D01*
X87550Y44204D01*
X90050Y44204D02*
X89550Y44704D01*
X89550Y45204D01*
X90050Y45704D01*
X90799Y44204D02*
X91299Y44204D01*
X91049Y44204D01*
X91049Y45704D01*
X90799Y45454D01*
X92049Y45454D02*
X92299Y45704D01*
X92799Y45704D01*
X93049Y45454D01*
X93049Y44454D01*
X92799Y44204D01*
X92299Y44204D01*
X92049Y44454D01*
X92049Y45454D01*
X93548Y44204D02*
X94048Y44204D01*
X93798Y44204D01*
X93798Y45704D01*
X93548Y45454D01*
X94798Y44204D02*
X94798Y44454D01*
X95048Y44454D01*
X95048Y44204D01*
X94798Y44204D01*
X96048Y44454D02*
X96298Y44204D01*
X96797Y44204D01*
X97047Y44454D01*
X97047Y45454D01*
X96797Y45704D01*
X96298Y45704D01*
X96048Y45454D01*
X96048Y45204D01*
X96298Y44954D01*
X97047Y44954D01*
X98547Y45704D02*
X98047Y45454D01*
X97547Y44954D01*
X97547Y44454D01*
X97797Y44204D01*
X98297Y44204D01*
X98547Y44454D01*
X98547Y44704D01*
X98297Y44954D01*
X97547Y44954D01*
X99047Y44454D02*
X99297Y44204D01*
X99796Y44204D01*
X100046Y44454D01*
X100046Y45454D01*
X99796Y45704D01*
X99297Y45704D01*
X99047Y45454D01*
X99047Y45204D01*
X99297Y44954D01*
X100046Y44954D01*
X100546Y44204D02*
X100546Y45204D01*
X100796Y45204D01*
X101046Y44954D01*
X101046Y44204D01*
X101046Y44954D01*
X101296Y45204D01*
X101546Y44954D01*
X101546Y44204D01*
X102046Y44204D02*
X102546Y44204D01*
X102296Y44204D01*
X102296Y45204D01*
X102046Y45204D01*
X103295Y44204D02*
X103795Y44204D01*
X103545Y44204D01*
X103545Y45704D01*
X103295Y45704D01*
X104545Y44204D02*
X105045Y44704D01*
X105045Y45204D01*
X104545Y45704D01*
X107565Y44204D02*
X107565Y45704D01*
X108564Y44204D01*
X108564Y45704D01*
X109064Y44204D02*
X109064Y45704D01*
X109814Y45704D01*
X110064Y45454D01*
X110064Y44954D01*
X109814Y44704D01*
X109064Y44704D01*
X110564Y45704D02*
X111563Y45704D01*
X111064Y45704D01*
X111064Y44204D01*
X112063Y45704D02*
X112063Y44204D01*
X112063Y44954D01*
X113063Y44954D01*
X113063Y45704D01*
X113063Y44204D01*
X119922Y44204D02*
X119922Y45704D01*
X120671Y45704D01*
X120921Y45454D01*
X120921Y44954D01*
X120671Y44704D01*
X119922Y44704D01*
X120421Y44704D02*
X120921Y44204D01*
X121671Y44204D02*
X122171Y44204D01*
X122421Y44454D01*
X122421Y44954D01*
X122171Y45204D01*
X121671Y45204D01*
X121421Y44954D01*
X121421Y44454D01*
X121671Y44204D01*
X122921Y45204D02*
X122921Y44454D01*
X123171Y44204D01*
X123920Y44204D01*
X123920Y45204D01*
X124420Y44204D02*
X124420Y45204D01*
X125170Y45204D01*
X125420Y44954D01*
X125420Y44204D01*
X126919Y45704D02*
X126919Y44204D01*
X126170Y44204D01*
X125920Y44454D01*
X125920Y44954D01*
X126170Y45204D01*
X126919Y45204D01*
X47101Y42704D02*
X46101Y42704D01*
X46101Y41204D01*
X47101Y41204D01*
X46101Y41954D02*
X46601Y41954D01*
X57899Y41204D02*
X58399Y41204D01*
X58149Y41204D01*
X58149Y42704D01*
X57899Y42454D01*
X76054Y41204D02*
X75054Y41204D01*
X76054Y42204D01*
X76054Y42454D01*
X75804Y42704D01*
X75304Y42704D01*
X75054Y42454D01*
X76554Y41204D02*
X76554Y41454D01*
X76804Y41454D01*
X76804Y41204D01*
X76554Y41204D01*
X77804Y41454D02*
X78053Y41204D01*
X78553Y41204D01*
X78803Y41454D01*
X78803Y42454D01*
X78553Y42704D01*
X78053Y42704D01*
X77804Y42454D01*
X77804Y42204D01*
X78053Y41954D01*
X78803Y41954D01*
X79303Y41204D02*
X79803Y41204D01*
X79553Y41204D01*
X79553Y42704D01*
X79303Y42454D01*
X80553Y41204D02*
X80553Y42204D01*
X80803Y42204D01*
X81052Y41954D01*
X81052Y41204D01*
X81052Y41954D01*
X81302Y42204D01*
X81552Y41954D01*
X81552Y41204D01*
X82052Y41204D02*
X82052Y42204D01*
X82302Y42204D01*
X82552Y41954D01*
X82552Y41204D01*
X82552Y41954D01*
X82802Y42204D01*
X83052Y41954D01*
X83052Y41204D01*
X85551Y41204D02*
X85051Y41704D01*
X85051Y42204D01*
X85551Y42704D01*
X86301Y41204D02*
X86801Y41204D01*
X86551Y41204D01*
X86551Y42704D01*
X86301Y42454D01*
X87550Y41204D02*
X88050Y41204D01*
X87800Y41204D01*
X87800Y42704D01*
X87550Y42454D01*
X89550Y41204D02*
X89550Y42704D01*
X88800Y41954D01*
X89800Y41954D01*
X90299Y41204D02*
X90299Y41454D01*
X90549Y41454D01*
X90549Y41204D01*
X90299Y41204D01*
X92549Y42704D02*
X91549Y42704D01*
X91549Y41954D01*
X92049Y42204D01*
X92299Y42204D01*
X92549Y41954D01*
X92549Y41454D01*
X92299Y41204D01*
X91799Y41204D01*
X91549Y41454D01*
X94048Y42704D02*
X93548Y42454D01*
X93049Y41954D01*
X93049Y41454D01*
X93299Y41204D01*
X93798Y41204D01*
X94048Y41454D01*
X94048Y41704D01*
X93798Y41954D01*
X93049Y41954D01*
X94548Y42704D02*
X95548Y42704D01*
X95548Y42454D01*
X94548Y41454D01*
X94548Y41204D01*
X96048Y41204D02*
X96048Y42204D01*
X96298Y42204D01*
X96547Y41954D01*
X96547Y41204D01*
X96547Y41954D01*
X96797Y42204D01*
X97047Y41954D01*
X97047Y41204D01*
X97547Y41204D02*
X98047Y41204D01*
X97797Y41204D01*
X97797Y42204D01*
X97547Y42204D01*
X98797Y41204D02*
X99297Y41204D01*
X99047Y41204D01*
X99047Y42704D01*
X98797Y42704D01*
X100046Y41204D02*
X100546Y41704D01*
X100546Y42204D01*
X100046Y42704D01*
X107565Y41204D02*
X107565Y42704D01*
X108564Y41204D01*
X108564Y42704D01*
X109064Y41204D02*
X109064Y42704D01*
X109814Y42704D01*
X110064Y42454D01*
X110064Y41954D01*
X109814Y41704D01*
X109064Y41704D01*
X110564Y42704D02*
X111563Y42704D01*
X111064Y42704D01*
X111064Y41204D01*
X112063Y42704D02*
X112063Y41204D01*
X112063Y41954D01*
X113063Y41954D01*
X113063Y42704D01*
X113063Y41204D01*
X119922Y41204D02*
X119922Y42704D01*
X120671Y42704D01*
X120921Y42454D01*
X120921Y41954D01*
X120671Y41704D01*
X119922Y41704D01*
X120421Y41704D02*
X120921Y41204D01*
X121671Y41204D02*
X122171Y41204D01*
X122421Y41454D01*
X122421Y41954D01*
X122171Y42204D01*
X121671Y42204D01*
X121421Y41954D01*
X121421Y41454D01*
X121671Y41204D01*
X122921Y42204D02*
X122921Y41454D01*
X123171Y41204D01*
X123920Y41204D01*
X123920Y42204D01*
X124420Y41204D02*
X124420Y42204D01*
X125170Y42204D01*
X125420Y41954D01*
X125420Y41204D01*
X126919Y42704D02*
X126919Y41204D01*
X126170Y41204D01*
X125920Y41454D01*
X125920Y41954D01*
X126170Y42204D01*
X126919Y42204D01*
X47101Y39704D02*
X46101Y39704D01*
X46101Y38954D01*
X46601Y38954D01*
X46101Y38954D01*
X46101Y38204D01*
X57899Y38204D02*
X58399Y38204D01*
X58149Y38204D01*
X58149Y39704D01*
X57899Y39454D01*
X75054Y39454D02*
X75304Y39704D01*
X75804Y39704D01*
X76054Y39454D01*
X76054Y39204D01*
X75804Y38954D01*
X75554Y38954D01*
X75804Y38954D01*
X76054Y38704D01*
X76054Y38454D01*
X75804Y38204D01*
X75304Y38204D01*
X75054Y38454D01*
X76554Y38204D02*
X76554Y38454D01*
X76804Y38454D01*
X76804Y38204D01*
X76554Y38204D01*
X78803Y38204D02*
X77804Y38204D01*
X78803Y39204D01*
X78803Y39454D01*
X78553Y39704D01*
X78053Y39704D01*
X77804Y39454D01*
X80303Y39704D02*
X79303Y39704D01*
X79303Y38954D01*
X79803Y39204D01*
X80053Y39204D01*
X80303Y38954D01*
X80303Y38454D01*
X80053Y38204D01*
X79553Y38204D01*
X79303Y38454D01*
X80803Y38454D02*
X81052Y38204D01*
X81552Y38204D01*
X81802Y38454D01*
X81802Y39454D01*
X81552Y39704D01*
X81052Y39704D01*
X80803Y39454D01*
X80803Y39204D01*
X81052Y38954D01*
X81802Y38954D01*
X82302Y38454D02*
X82552Y38204D01*
X83052Y38204D01*
X83302Y38454D01*
X83302Y39454D01*
X83052Y39704D01*
X82552Y39704D01*
X82302Y39454D01*
X82302Y39204D01*
X82552Y38954D01*
X83302Y38954D01*
X83802Y38454D02*
X84052Y38204D01*
X84551Y38204D01*
X84801Y38454D01*
X84801Y39454D01*
X84551Y39704D01*
X84052Y39704D01*
X83802Y39454D01*
X83802Y39204D01*
X84052Y38954D01*
X84801Y38954D01*
X85301Y38204D02*
X85301Y39204D01*
X85551Y39204D01*
X85801Y38954D01*
X85801Y38204D01*
X85801Y38954D01*
X86051Y39204D01*
X86301Y38954D01*
X86301Y38204D01*
X86801Y38204D02*
X86801Y39204D01*
X87051Y39204D01*
X87300Y38954D01*
X87300Y38204D01*
X87300Y38954D01*
X87550Y39204D01*
X87800Y38954D01*
X87800Y38204D01*
X90299Y38204D02*
X89800Y38704D01*
X89800Y39204D01*
X90299Y39704D01*
X91049Y38204D02*
X91549Y38204D01*
X91299Y38204D01*
X91299Y39704D01*
X91049Y39454D01*
X93299Y38204D02*
X92299Y38204D01*
X93299Y39204D01*
X93299Y39454D01*
X93049Y39704D01*
X92549Y39704D01*
X92299Y39454D01*
X93798Y39454D02*
X94048Y39704D01*
X94548Y39704D01*
X94798Y39454D01*
X94798Y39204D01*
X94548Y38954D01*
X94798Y38704D01*
X94798Y38454D01*
X94548Y38204D01*
X94048Y38204D01*
X93798Y38454D01*
X93798Y38704D01*
X94048Y38954D01*
X93798Y39204D01*
X93798Y39454D01*
X94048Y38954D02*
X94548Y38954D01*
X95298Y38204D02*
X95298Y38454D01*
X95548Y38454D01*
X95548Y38204D01*
X95298Y38204D01*
X96547Y39454D02*
X96797Y39704D01*
X97297Y39704D01*
X97547Y39454D01*
X97547Y39204D01*
X97297Y38954D01*
X97047Y38954D01*
X97297Y38954D01*
X97547Y38704D01*
X97547Y38454D01*
X97297Y38204D01*
X96797Y38204D01*
X96547Y38454D01*
X98797Y38204D02*
X98797Y39704D01*
X98047Y38954D01*
X99047Y38954D01*
X100546Y39704D02*
X100046Y39454D01*
X99547Y38954D01*
X99547Y38454D01*
X99796Y38204D01*
X100296Y38204D01*
X100546Y38454D01*
X100546Y38704D01*
X100296Y38954D01*
X99547Y38954D01*
X101046Y38204D02*
X101046Y39204D01*
X101296Y39204D01*
X101546Y38954D01*
X101546Y38204D01*
X101546Y38954D01*
X101796Y39204D01*
X102046Y38954D01*
X102046Y38204D01*
X102546Y38204D02*
X103045Y38204D01*
X102795Y38204D01*
X102795Y39204D01*
X102546Y39204D01*
X103795Y38204D02*
X104295Y38204D01*
X104045Y38204D01*
X104045Y39704D01*
X103795Y39704D01*
X105045Y38204D02*
X105545Y38704D01*
X105545Y39204D01*
X105045Y39704D01*
X107565Y38204D02*
X107565Y39704D01*
X108564Y38204D01*
X108564Y39704D01*
X109064Y38204D02*
X109064Y39704D01*
X109814Y39704D01*
X110064Y39454D01*
X110064Y38954D01*
X109814Y38704D01*
X109064Y38704D01*
X110564Y39704D02*
X111563Y39704D01*
X111064Y39704D01*
X111064Y38204D01*
X112063Y39704D02*
X112063Y38204D01*
X112063Y38954D01*
X113063Y38954D01*
X113063Y39704D01*
X113063Y38204D01*
X119922Y38204D02*
X119922Y39704D01*
X120671Y39704D01*
X120921Y39454D01*
X120921Y38954D01*
X120671Y38704D01*
X119922Y38704D01*
X120421Y38704D02*
X120921Y38204D01*
X121671Y38204D02*
X122171Y38204D01*
X122421Y38454D01*
X122421Y38954D01*
X122171Y39204D01*
X121671Y39204D01*
X121421Y38954D01*
X121421Y38454D01*
X121671Y38204D01*
X122921Y39204D02*
X122921Y38454D01*
X123171Y38204D01*
X123920Y38204D01*
X123920Y39204D01*
X124420Y38204D02*
X124420Y39204D01*
X125170Y39204D01*
X125420Y38954D01*
X125420Y38204D01*
X126919Y39704D02*
X126919Y38204D01*
X126170Y38204D01*
X125920Y38454D01*
X125920Y38954D01*
X126170Y39204D01*
X126919Y39204D01*
X58649Y35204D02*
X58649Y36704D01*
X57899Y35954D01*
X58899Y35954D01*
X59399Y36454D02*
X59649Y36704D01*
X60148Y36704D01*
X60398Y36454D01*
X60398Y35454D01*
X60148Y35204D01*
X59649Y35204D01*
X59399Y35454D01*
X59399Y36454D01*
X62918Y36704D02*
X63918Y36704D01*
X63418Y36704D01*
X63418Y35204D01*
X64668Y35204D02*
X65168Y35204D01*
X65417Y35454D01*
X65417Y35954D01*
X65168Y36204D01*
X64668Y36204D01*
X64418Y35954D01*
X64418Y35454D01*
X64668Y35204D01*
X66167Y36454D02*
X66167Y36204D01*
X65917Y36204D01*
X66417Y36204D01*
X66167Y36204D01*
X66167Y35454D01*
X66417Y35204D01*
X67417Y36204D02*
X67917Y36204D01*
X68167Y35954D01*
X68167Y35204D01*
X67417Y35204D01*
X67167Y35454D01*
X67417Y35704D01*
X68167Y35704D01*
X68666Y35204D02*
X69166Y35204D01*
X68916Y35204D01*
X68916Y36704D01*
X68666Y36704D01*
D178*
X108712Y18635D02*
X108712Y19652D01*
X109728Y19652D01*
X109728Y18635D01*
X108712Y18635D01*
X112268Y18594D02*
X111760Y19610D01*
X112776Y19610D01*
X112268Y18594D01*
X113792Y18568D02*
X114046Y18822D01*
X114300Y18822D01*
X114046Y19076D01*
X114300Y19330D01*
X114046Y19330D01*
X113792Y19584D01*
X113538Y19330D01*
X113284Y19330D01*
X113538Y19076D01*
X113284Y18822D01*
X113538Y18822D01*
X113792Y18568D01*
X114808Y18541D02*
X115062Y19049D01*
X114808Y19556D01*
X115316Y19302D01*
X115824Y19556D01*
X115570Y19049D01*
X115824Y18541D01*
X115316Y18795D01*
X114808Y18541D01*
X116586Y18763D02*
X116586Y18509D01*
X117094Y18509D01*
X117094Y18763D01*
X117348Y18763D01*
X117348Y19271D01*
X117094Y19271D01*
X117094Y19525D01*
X116586Y19525D01*
X116586Y19271D01*
X116332Y19271D01*
X116332Y18763D01*
X116586Y18763D01*
X117856Y18474D02*
X118110Y18474D01*
X118364Y18728D01*
X118618Y18474D01*
X118872Y18474D01*
X118872Y18728D01*
X118618Y18982D01*
X118872Y19236D01*
X118872Y19490D01*
X118618Y19490D01*
X118364Y19236D01*
X118110Y19490D01*
X117856Y19490D01*
X117856Y19236D01*
X118110Y18982D01*
X117856Y18728D01*
X117856Y18474D01*
X119380Y18943D02*
X119888Y19451D01*
X120396Y18943D01*
X119888Y18435D01*
X119380Y18943D01*
X120947Y18390D02*
X120947Y19406D01*
X121963Y19406D01*
X121963Y18390D01*
X120947Y18390D01*
X121151Y18593D02*
X121151Y19203D01*
X121760Y19203D01*
X121760Y18593D01*
X121151Y18593D01*
X124883Y18286D02*
X124375Y19302D01*
X125391Y19302D01*
X124883Y18286D01*
X124883Y18489D02*
X124579Y19099D01*
X125188Y19099D01*
X124883Y18489D01*
X126769Y18221D02*
X127023Y18475D01*
X127277Y18475D01*
X127023Y18729D01*
X127277Y18983D01*
X127023Y18983D01*
X126769Y19237D01*
X126515Y18983D01*
X126261Y18983D01*
X126515Y18729D01*
X126261Y18475D01*
X126515Y18475D01*
X126769Y18221D01*
X126769Y18424D02*
X126921Y18577D01*
X127073Y18577D01*
X126921Y18729D01*
X127073Y18881D01*
X126921Y18881D01*
X126769Y19034D01*
X126616Y18881D01*
X126464Y18881D01*
X126616Y18729D01*
X126464Y18577D01*
X126616Y18577D01*
X126769Y18424D01*
X128280Y18151D02*
X128534Y18659D01*
X128280Y19167D01*
X128788Y18913D01*
X129296Y19167D01*
X129042Y18659D01*
X129296Y18151D01*
X128788Y18405D01*
X128280Y18151D01*
X128484Y18354D02*
X128636Y18659D01*
X128484Y18964D01*
X128788Y18811D01*
X129093Y18964D01*
X128941Y18659D01*
X129093Y18354D01*
X128788Y18507D01*
X128484Y18354D01*
X130705Y18325D02*
X130705Y18071D01*
X131213Y18071D01*
X131213Y18325D01*
X131467Y18325D01*
X131467Y18833D01*
X131213Y18833D01*
X131213Y19087D01*
X130705Y19087D01*
X130705Y18833D01*
X130451Y18833D01*
X130451Y18325D01*
X130705Y18325D01*
X130806Y18427D02*
X130806Y18274D01*
X131111Y18274D01*
X131111Y18427D01*
X131263Y18427D01*
X131263Y18731D01*
X131111Y18731D01*
X131111Y18884D01*
X130806Y18884D01*
X130806Y18731D01*
X130654Y18731D01*
X130654Y18427D01*
X130806Y18427D01*
X132790Y17981D02*
X133044Y17981D01*
X133298Y18235D01*
X133552Y17981D01*
X133806Y17981D01*
X133806Y18235D01*
X133552Y18489D01*
X133806Y18743D01*
X133806Y18997D01*
X133552Y18997D01*
X133298Y18743D01*
X133044Y18997D01*
X132790Y18997D01*
X132790Y18743D01*
X133044Y18489D01*
X132790Y18235D01*
X132790Y17981D01*
X132994Y18184D02*
X133146Y18184D01*
X133298Y18337D01*
X133451Y18184D01*
X133603Y18184D01*
X133603Y18337D01*
X133451Y18489D01*
X133603Y18641D01*
X133603Y18794D01*
X133451Y18794D01*
X133298Y18641D01*
X133146Y18794D01*
X132994Y18794D01*
X132994Y18641D01*
X133146Y18489D01*
X132994Y18337D01*
X132994Y18184D01*
X135829Y18389D02*
X135829Y19235D01*
X136252Y19659D01*
X136675Y19235D01*
X136675Y18389D01*
X136675Y19024D01*
X135829Y19024D01*
X138568Y19549D02*
X138568Y18279D01*
X139203Y18279D01*
X139415Y18491D01*
X139415Y18702D01*
X139203Y18914D01*
X138568Y18914D01*
X139203Y18914D01*
X139415Y19125D01*
X139415Y19337D01*
X139203Y19549D01*
X138568Y19549D01*
X142390Y19212D02*
X142178Y19424D01*
X141755Y19424D01*
X141544Y19212D01*
X141544Y18366D01*
X141755Y18154D01*
X142178Y18154D01*
X142390Y18366D01*
X144788Y19279D02*
X144788Y18009D01*
X145423Y18009D01*
X145635Y18221D01*
X145635Y19067D01*
X145423Y19279D01*
X144788Y19279D01*
X149185Y19119D02*
X148339Y19119D01*
X148339Y17849D01*
X149185Y17849D01*
X148339Y18484D02*
X148762Y18484D01*
X153070Y18944D02*
X152223Y18944D01*
X152223Y18309D01*
X152647Y18309D01*
X152223Y18309D01*
X152223Y17674D01*
X80540Y4758D02*
X80329Y4970D01*
X79906Y4970D01*
X79694Y4758D01*
X79694Y3912D01*
X79906Y3700D01*
X80329Y3700D01*
X80540Y3912D01*
X80540Y4335D01*
X80117Y4335D01*
X86540Y6758D02*
X86329Y6970D01*
X85906Y6970D01*
X85694Y6758D01*
X85694Y5912D01*
X85906Y5700D01*
X86329Y5700D01*
X86540Y5912D01*
X86540Y6335D01*
X86117Y6335D01*
X80540Y6758D02*
X80329Y6970D01*
X79906Y6970D01*
X79694Y6758D01*
X79694Y5912D01*
X79906Y5700D01*
X80329Y5700D01*
X80540Y5912D01*
X80540Y6335D01*
X80117Y6335D01*
X80540Y8758D02*
X80329Y8970D01*
X79906Y8970D01*
X79694Y8758D01*
X79694Y7912D01*
X79906Y7700D01*
X80329Y7700D01*
X80540Y7912D01*
X80540Y8335D01*
X80117Y8335D01*
X86540Y8758D02*
X86329Y8970D01*
X85906Y8970D01*
X85694Y8758D01*
X85694Y7912D01*
X85906Y7700D01*
X86329Y7700D01*
X86540Y7912D01*
X86540Y8335D01*
X86117Y8335D01*
X80540Y10758D02*
X80329Y10970D01*
X79906Y10970D01*
X79694Y10758D01*
X79694Y9912D01*
X79906Y9700D01*
X80329Y9700D01*
X80540Y9912D01*
X80540Y10335D01*
X80117Y10335D01*
X86540Y10758D02*
X86329Y10970D01*
X85906Y10970D01*
X85694Y10758D01*
X85694Y9912D01*
X85906Y9700D01*
X86329Y9700D01*
X86540Y9912D01*
X86540Y10335D01*
X86117Y10335D01*
X80540Y12758D02*
X80329Y12970D01*
X79906Y12970D01*
X79694Y12758D01*
X79694Y11912D01*
X79906Y11700D01*
X80329Y11700D01*
X80540Y11912D01*
X80540Y12335D01*
X80117Y12335D01*
X86540Y12758D02*
X86329Y12970D01*
X85906Y12970D01*
X85694Y12758D01*
X85694Y11912D01*
X85906Y11700D01*
X86329Y11700D01*
X86540Y11912D01*
X86540Y12335D01*
X86117Y12335D01*
X80540Y14758D02*
X80329Y14970D01*
X79906Y14970D01*
X79694Y14758D01*
X79694Y13912D01*
X79906Y13700D01*
X80329Y13700D01*
X80540Y13912D01*
X80540Y14335D01*
X80117Y14335D01*
X86540Y14758D02*
X86329Y14970D01*
X85906Y14970D01*
X85694Y14758D01*
X85694Y13912D01*
X85906Y13700D01*
X86329Y13700D01*
X86540Y13912D01*
X86540Y14335D01*
X86117Y14335D01*
X80540Y16758D02*
X80329Y16970D01*
X79906Y16970D01*
X79694Y16758D01*
X79694Y15912D01*
X79906Y15700D01*
X80329Y15700D01*
X80540Y15912D01*
X80540Y16335D01*
X80117Y16335D01*
X86540Y16758D02*
X86329Y16970D01*
X85906Y16970D01*
X85694Y16758D01*
X85694Y15912D01*
X85906Y15700D01*
X86329Y15700D01*
X86540Y15912D01*
X86540Y16335D01*
X86117Y16335D01*
X80540Y18758D02*
X80329Y18970D01*
X79906Y18970D01*
X79694Y18758D01*
X79694Y17912D01*
X79906Y17700D01*
X80329Y17700D01*
X80540Y17912D01*
X80540Y18335D01*
X80117Y18335D01*
X86540Y18758D02*
X86329Y18970D01*
X85906Y18970D01*
X85694Y18758D01*
X85694Y17912D01*
X85906Y17700D01*
X86329Y17700D01*
X86540Y17912D01*
X86540Y18335D01*
X86117Y18335D01*
X80540Y20758D02*
X80329Y20970D01*
X79906Y20970D01*
X79694Y20758D01*
X79694Y19912D01*
X79906Y19700D01*
X80329Y19700D01*
X80540Y19912D01*
X80540Y20335D01*
X80117Y20335D01*
X86540Y20758D02*
X86329Y20970D01*
X85906Y20970D01*
X85694Y20758D01*
X85694Y19912D01*
X85906Y19700D01*
X86329Y19700D01*
X86540Y19912D01*
X86540Y20335D01*
X86117Y20335D01*
X80540Y22758D02*
X80329Y22970D01*
X79906Y22970D01*
X79694Y22758D01*
X79694Y21912D01*
X79906Y21700D01*
X80329Y21700D01*
X80540Y21912D01*
X80540Y22335D01*
X80117Y22335D01*
X86540Y22758D02*
X86329Y22970D01*
X85906Y22970D01*
X85694Y22758D01*
X85694Y21912D01*
X85906Y21700D01*
X86329Y21700D01*
X86540Y21912D01*
X86540Y22335D01*
X86117Y22335D01*
X45542Y101396D02*
X45542Y102513D01*
X46660Y102513D01*
X46660Y101396D01*
X45542Y101396D01*
X46101Y95396D02*
X45542Y96513D01*
X46660Y96513D01*
X46101Y95396D01*
X46101Y92396D02*
X46380Y92675D01*
X46660Y92675D01*
X46380Y92954D01*
X46660Y93234D01*
X46380Y93234D01*
X46101Y93513D01*
X45822Y93234D01*
X45542Y93234D01*
X45822Y92954D01*
X45542Y92675D01*
X45822Y92675D01*
X46101Y92396D01*
X45542Y86396D02*
X45822Y86954D01*
X45542Y87513D01*
X46101Y87234D01*
X46660Y87513D01*
X46380Y86954D01*
X46660Y86396D01*
X46101Y86675D01*
X45542Y86396D01*
X45822Y83675D02*
X45822Y83396D01*
X46380Y83396D01*
X46380Y83675D01*
X46660Y83675D01*
X46660Y84234D01*
X46380Y84234D01*
X46380Y84513D01*
X45822Y84513D01*
X45822Y84234D01*
X45542Y84234D01*
X45542Y83675D01*
X45822Y83675D01*
X45542Y80396D02*
X45822Y80396D01*
X46101Y80675D01*
X46380Y80396D01*
X46660Y80396D01*
X46660Y80675D01*
X46380Y80954D01*
X46660Y81234D01*
X46660Y81513D01*
X46380Y81513D01*
X46101Y81234D01*
X45822Y81513D01*
X45542Y81513D01*
X45542Y81234D01*
X45822Y80954D01*
X45542Y80675D01*
X45542Y80396D01*
X45542Y77954D02*
X46101Y78513D01*
X46660Y77954D01*
X46101Y77396D01*
X45542Y77954D01*
X45542Y74396D02*
X45542Y75513D01*
X46660Y75513D01*
X46660Y74396D01*
X45542Y74396D01*
X45745Y74599D02*
X45745Y75310D01*
X46457Y75310D01*
X46457Y74599D01*
X45745Y74599D01*
X46101Y68396D02*
X45542Y69513D01*
X46660Y69513D01*
X46101Y68396D01*
X46101Y68599D02*
X45745Y69310D01*
X46457Y69310D01*
X46101Y68599D01*
X46101Y65396D02*
X46380Y65675D01*
X46660Y65675D01*
X46380Y65954D01*
X46660Y66234D01*
X46380Y66234D01*
X46101Y66513D01*
X45822Y66234D01*
X45542Y66234D01*
X45822Y65954D01*
X45542Y65675D01*
X45822Y65675D01*
X46101Y65396D01*
X46101Y65599D02*
X46279Y65777D01*
X46457Y65777D01*
X46279Y65954D01*
X46457Y66132D01*
X46279Y66132D01*
X46101Y66310D01*
X45923Y66132D01*
X45745Y66132D01*
X45923Y65954D01*
X45745Y65777D01*
X45923Y65777D01*
X46101Y65599D01*
X45542Y62396D02*
X45822Y62954D01*
X45542Y63513D01*
X46101Y63234D01*
X46660Y63513D01*
X46380Y62954D01*
X46660Y62396D01*
X46101Y62675D01*
X45542Y62396D01*
X45745Y62599D02*
X45923Y62954D01*
X45745Y63310D01*
X46101Y63132D01*
X46457Y63310D01*
X46279Y62954D01*
X46457Y62599D01*
X46101Y62777D01*
X45745Y62599D01*
X45822Y59675D02*
X45822Y59396D01*
X46380Y59396D01*
X46380Y59675D01*
X46660Y59675D01*
X46660Y60234D01*
X46380Y60234D01*
X46380Y60513D01*
X45822Y60513D01*
X45822Y60234D01*
X45542Y60234D01*
X45542Y59675D01*
X45822Y59675D01*
X45923Y59777D02*
X45923Y59599D01*
X46279Y59599D01*
X46279Y59777D01*
X46457Y59777D01*
X46457Y60132D01*
X46279Y60132D01*
X46279Y60310D01*
X45923Y60310D01*
X45923Y60132D01*
X45745Y60132D01*
X45745Y59777D01*
X45923Y59777D01*
X45542Y56396D02*
X45822Y56396D01*
X46101Y56675D01*
X46380Y56396D01*
X46660Y56396D01*
X46660Y56675D01*
X46380Y56954D01*
X46660Y57234D01*
X46660Y57513D01*
X46380Y57513D01*
X46101Y57234D01*
X45822Y57513D01*
X45542Y57513D01*
X45542Y57234D01*
X45822Y56954D01*
X45542Y56675D01*
X45542Y56396D01*
X45745Y56599D02*
X45923Y56599D01*
X46101Y56777D01*
X46279Y56599D01*
X46457Y56599D01*
X46457Y56777D01*
X46279Y56954D01*
X46457Y57132D01*
X46457Y57310D01*
X46279Y57310D01*
X46101Y57132D01*
X45923Y57310D01*
X45745Y57310D01*
X45745Y57132D01*
X45923Y56954D01*
X45745Y56777D01*
X45745Y56599D01*
D179*
X111252Y19124D02*
G03*
X111252Y19124I-508J0D01*
G01*
X123626Y18848D02*
G03*
X123626Y18848I-508J0D01*
G01*
D180*
X123422Y18848D02*
G03*
X123422Y18848I-305J0D01*
G01*
D181*
X46742Y106304D02*
X46442Y106604D01*
X45842Y106604D01*
X45542Y106304D01*
X45542Y106004D01*
X45842Y105704D01*
X46442Y105704D01*
X46742Y105404D01*
X46742Y105104D01*
X46442Y104804D01*
X45842Y104804D01*
X45542Y105104D01*
X47342Y106004D02*
X47342Y105104D01*
X47642Y104804D01*
X48541Y104804D01*
X48541Y104504D01*
X48241Y104205D01*
X47941Y104205D01*
X48541Y104804D02*
X48541Y106004D01*
X49141Y104804D02*
X49141Y106004D01*
X49441Y106004D01*
X49741Y105704D01*
X49741Y104804D01*
X49741Y105704D01*
X50041Y106004D01*
X50341Y105704D01*
X50341Y104804D01*
X50940Y106604D02*
X50940Y104804D01*
X51840Y104804D01*
X52140Y105104D01*
X52140Y105404D01*
X52140Y105704D01*
X51840Y106004D01*
X50940Y106004D01*
X53040Y104804D02*
X53640Y104804D01*
X53939Y105104D01*
X53939Y105704D01*
X53640Y106004D01*
X53040Y106004D01*
X52740Y105704D01*
X52740Y105104D01*
X53040Y104804D01*
X54539Y104804D02*
X55139Y104804D01*
X54839Y104804D01*
X54839Y106604D01*
X54539Y106604D01*
X57899Y106604D02*
X57899Y104804D01*
X57899Y105704D01*
X59099Y105704D01*
X59099Y106604D01*
X59099Y104804D01*
X59699Y104804D02*
X60298Y104804D01*
X59998Y104804D01*
X59998Y106004D01*
X59699Y106004D01*
X61498Y106304D02*
X61498Y106004D01*
X61198Y106004D01*
X61798Y106004D01*
X61498Y106004D01*
X61498Y105104D01*
X61798Y104804D01*
X65697Y106304D02*
X65397Y106604D01*
X64797Y106604D01*
X64497Y106304D01*
X64497Y105104D01*
X64797Y104804D01*
X65397Y104804D01*
X65697Y105104D01*
X66596Y104804D02*
X67196Y104804D01*
X67496Y105104D01*
X67496Y105704D01*
X67196Y106004D01*
X66596Y106004D01*
X66296Y105704D01*
X66296Y105104D01*
X66596Y104804D01*
X68096Y106004D02*
X68096Y105104D01*
X68396Y104804D01*
X69295Y104804D01*
X69295Y106004D01*
X69895Y104804D02*
X69895Y106004D01*
X70795Y106004D01*
X71095Y105704D01*
X71095Y104804D01*
X71995Y106304D02*
X71995Y106004D01*
X71695Y106004D01*
X72294Y106004D01*
X71995Y106004D01*
X71995Y105104D01*
X72294Y104804D01*
X75054Y106604D02*
X76254Y106604D01*
X75654Y106604D01*
X75654Y104804D01*
X77154Y104804D02*
X77754Y104804D01*
X78053Y105104D01*
X78053Y105704D01*
X77754Y106004D01*
X77154Y106004D01*
X76854Y105704D01*
X76854Y105104D01*
X77154Y104804D01*
X78953Y104804D02*
X79553Y104804D01*
X79853Y105104D01*
X79853Y105704D01*
X79553Y106004D01*
X78953Y106004D01*
X78653Y105704D01*
X78653Y105104D01*
X78953Y104804D01*
X80453Y104804D02*
X81052Y104804D01*
X80753Y104804D01*
X80753Y106604D01*
X80453Y106604D01*
X84951Y106304D02*
X84651Y106604D01*
X84052Y106604D01*
X83752Y106304D01*
X83752Y106004D01*
X84052Y105704D01*
X84651Y105704D01*
X84951Y105404D01*
X84951Y105104D01*
X84651Y104804D01*
X84052Y104804D01*
X83752Y105104D01*
X85551Y104804D02*
X86151Y104804D01*
X85851Y104804D01*
X85851Y106004D01*
X85551Y106004D01*
X87051Y106004D02*
X88250Y106004D01*
X87051Y104804D01*
X88250Y104804D01*
X89750Y104804D02*
X89150Y104804D01*
X88850Y105104D01*
X88850Y105704D01*
X89150Y106004D01*
X89750Y106004D01*
X90050Y105704D01*
X90050Y105404D01*
X88850Y105404D01*
X107565Y104804D02*
X107565Y106604D01*
X108464Y106604D01*
X108764Y106304D01*
X108764Y105704D01*
X108464Y105404D01*
X107565Y105404D01*
X109364Y104804D02*
X109964Y104804D01*
X109664Y104804D01*
X109664Y106604D01*
X109364Y106604D01*
X111164Y106004D02*
X111763Y106004D01*
X112063Y105704D01*
X112063Y104804D01*
X111164Y104804D01*
X110864Y105104D01*
X111164Y105404D01*
X112063Y105404D01*
X112963Y106304D02*
X112963Y106004D01*
X112663Y106004D01*
X113263Y106004D01*
X112963Y106004D01*
X112963Y105104D01*
X113263Y104804D01*
X115062Y104804D02*
X114462Y104804D01*
X114163Y105104D01*
X114163Y105704D01*
X114462Y106004D01*
X115062Y106004D01*
X115362Y105704D01*
X115362Y105404D01*
X114163Y105404D01*
X117162Y106604D02*
X117162Y104804D01*
X116262Y104804D01*
X115962Y105104D01*
X115962Y105704D01*
X116262Y106004D01*
X117162Y106004D01*
X119922Y106604D02*
X119922Y104804D01*
X119922Y105704D01*
X121121Y105704D01*
X121121Y106604D01*
X121121Y104804D01*
X122021Y104804D02*
X122621Y104804D01*
X122921Y105104D01*
X122921Y105704D01*
X122621Y106004D01*
X122021Y106004D01*
X121721Y105704D01*
X121721Y105104D01*
X122021Y104804D01*
X123520Y104804D02*
X124120Y104804D01*
X123820Y104804D01*
X123820Y106604D01*
X123520Y106604D01*
X125920Y104804D02*
X125320Y104804D01*
X125020Y105104D01*
X125020Y105704D01*
X125320Y106004D01*
X125920Y106004D01*
X126220Y105704D01*
X126220Y105404D01*
X125020Y105404D01*
X128619Y106604D02*
X129818Y106604D01*
X129219Y106604D01*
X129219Y104804D01*
X130418Y106004D02*
X130418Y105104D01*
X130718Y104804D01*
X131618Y104804D01*
X131618Y104504D01*
X131318Y104205D01*
X131018Y104205D01*
X131618Y104804D02*
X131618Y106004D01*
X132218Y104205D02*
X132218Y106004D01*
X133117Y106004D01*
X133417Y105704D01*
X133417Y105104D01*
X133117Y104804D01*
X132218Y104804D01*
X134917Y104804D02*
X134317Y104804D01*
X134017Y105104D01*
X134017Y105704D01*
X134317Y106004D01*
X134917Y106004D01*
X135217Y105704D01*
X135217Y105404D01*
X134017Y105404D01*
X43422Y107504D02*
X137977Y107504D01*
X43422Y103454D02*
X137977Y103454D01*
X43422Y107504D02*
X43422Y34454D01*
X137977Y107504D02*
X137977Y34454D01*
X56839Y107504D02*
X56839Y34454D01*
X73994Y107504D02*
X73994Y34454D01*
X106505Y107504D02*
X106505Y34454D01*
X118862Y107504D02*
X118862Y34454D01*
X43422Y37454D02*
X137977Y37454D01*
X43422Y34454D02*
X137977Y34454D01*
D182*
X46660Y98954D02*
G03*
X46660Y98954I-559J0D01*
G01*
X46660Y71954D02*
G03*
X46660Y71954I-559J0D01*
G01*
D183*
X46457Y71954D02*
G03*
X46457Y71954I-356J0D01*
G01*
M02*
