%FSLAX43Y43*%
%MOMM*%
G71*
G01*
G75*
G04 Layer_Color=16711935*
%ADD10R,0.250X0.800*%
%ADD11R,0.800X0.250*%
%ADD12R,1.300X1.200*%
%ADD13R,1.600X0.900*%
%ADD14R,2.800X1.000*%
%ADD15R,2.800X1.000*%
%ADD16R,1.200X1.800*%
%ADD17R,1.200X1.400*%
%ADD18R,0.900X1.050*%
%ADD19R,1.470X1.270*%
%ADD20R,0.830X0.630*%
%ADD21R,0.600X0.500*%
%ADD22R,0.900X0.600*%
%ADD23R,0.300X0.300*%
%ADD24R,0.800X0.900*%
%ADD25R,0.550X1.200*%
%ADD26R,1.143X0.254*%
%ADD27R,0.254X1.143*%
%ADD28R,4.826X5.715*%
%ADD29R,1.600X3.000*%
%ADD30R,2.400X2.400*%
%ADD31R,3.800X2.800*%
%ADD32R,0.400X0.750*%
%ADD33R,1.219X2.235*%
%ADD34R,3.600X2.200*%
%ADD35R,5.334X1.930*%
%ADD36R,2.210X0.610*%
%ADD37R,0.580X1.200*%
%ADD38R,2.000X2.000*%
%ADD39R,1.000X1.400*%
%ADD40C,1.000*%
%ADD41R,0.350X0.350*%
%ADD42R,1.800X1.400*%
%ADD43R,2.100X1.400*%
%ADD44R,1.600X0.350*%
%ADD45R,1.200X0.800*%
%ADD46C,1.000*%
%ADD47C,0.152*%
%ADD48R,2.400X2.400*%
%ADD49R,0.300X3.000*%
%ADD50R,0.200X1.000*%
%ADD51R,0.200X2.000*%
%ADD52R,0.300X3.500*%
%ADD53R,0.300X1.500*%
%ADD54R,0.300X2.500*%
%ADD55R,9.398X1.016*%
%ADD56R,9.398X0.762*%
%ADD57R,9.398X0.610*%
%ADD58R,9.398X0.457*%
%ADD59R,9.398X0.305*%
%ADD60R,9.398X0.254*%
%ADD61R,9.398X0.203*%
%ADD62R,9.398X0.152*%
%ADD63R,0.330X0.686*%
%ADD64R,0.400X0.750*%
%ADD65C,0.321*%
%ADD66C,0.361*%
%ADD67C,0.405*%
%ADD68C,0.455*%
%ADD69C,0.511*%
%ADD70C,0.573*%
%ADD71C,0.644*%
%ADD72C,0.723*%
%ADD73C,0.812*%
%ADD74C,0.912*%
%ADD75C,1.020*%
%ADD76C,1.150*%
%ADD77C,1.290*%
%ADD78C,1.450*%
%ADD79C,1.630*%
%ADD80C,1.830*%
%ADD81C,2.050*%
%ADD82C,2.300*%
%ADD83C,2.590*%
%ADD84C,2.910*%
%ADD85C,3.260*%
%ADD86R,1.270X0.559*%
%ADD87R,0.559X1.270*%
%ADD88R,0.890X2.600*%
%ADD89R,5.600X3.600*%
%ADD90R,0.320X0.600*%
%ADD91R,0.600X0.320*%
%ADD92R,1.000X1.950*%
%ADD93C,0.154*%
%ADD94C,0.200*%
%ADD95C,0.150*%
%ADD96C,0.170*%
%ADD97C,0.160*%
%ADD98C,0.155*%
%ADD99C,0.100*%
%ADD100C,0.120*%
%ADD101C,0.127*%
%ADD102C,0.250*%
%ADD103C,0.250*%
%ADD104C,0.254*%
%ADD105R,0.300X2.400*%
%ADD106R,0.864X1.093*%
%ADD107R,9.398X0.406*%
%ADD108R,9.398X0.508*%
%ADD109R,9.398X0.914*%
%ADD110R,9.398X1.168*%
%ADD111R,0.377X0.927*%
%ADD112R,0.927X0.377*%
%ADD113R,1.427X1.327*%
%ADD114R,1.727X1.027*%
%ADD115R,2.927X1.127*%
%ADD116R,2.927X1.127*%
%ADD117R,1.327X1.927*%
%ADD118R,1.327X1.527*%
%ADD119R,1.027X1.177*%
%ADD120R,1.597X1.397*%
%ADD121R,0.957X0.757*%
%ADD122R,0.727X0.627*%
%ADD123R,1.027X0.727*%
%ADD124R,0.427X0.427*%
%ADD125R,0.927X1.027*%
%ADD126R,0.677X1.327*%
%ADD127R,1.270X0.381*%
%ADD128R,0.381X1.270*%
%ADD129R,4.953X5.842*%
%ADD130R,1.727X3.127*%
%ADD131R,2.527X2.527*%
%ADD132R,3.927X2.927*%
%ADD133R,0.527X0.877*%
%ADD134R,1.346X2.362*%
%ADD135R,3.727X2.327*%
%ADD136R,5.461X2.057*%
%ADD137R,2.337X0.737*%
%ADD138R,0.707X1.327*%
%ADD139R,2.127X2.127*%
%ADD140R,1.127X1.527*%
%ADD141C,1.127*%
%ADD142R,0.477X0.477*%
%ADD143R,1.927X1.527*%
%ADD144R,2.227X1.527*%
%ADD145R,1.727X0.477*%
%ADD146R,1.327X0.927*%
%ADD147C,0.448*%
%ADD148C,0.488*%
%ADD149C,0.532*%
%ADD150C,0.582*%
%ADD151C,0.638*%
%ADD152C,0.700*%
%ADD153C,0.771*%
%ADD154C,0.850*%
%ADD155C,0.939*%
%ADD156C,1.039*%
%ADD157C,1.147*%
%ADD158C,1.277*%
%ADD159C,1.417*%
%ADD160C,1.577*%
%ADD161C,1.757*%
%ADD162C,1.957*%
%ADD163C,2.177*%
%ADD164C,2.427*%
%ADD165C,2.717*%
%ADD166C,3.037*%
%ADD167C,3.387*%
%ADD168R,1.397X0.686*%
%ADD169R,0.686X1.397*%
%ADD170R,1.017X2.727*%
%ADD171R,5.727X3.727*%
%ADD172R,0.447X0.727*%
%ADD173R,0.727X0.447*%
%ADD174R,1.127X2.077*%
D47*
X101304Y34206D02*
X101546Y34448D01*
X101909Y34569D01*
X102392Y34569D01*
X102755Y34448D01*
X102997Y34206D01*
X102997Y33964D01*
X102876Y33722D01*
X102755Y33601D01*
X102513Y33481D01*
X101788Y33239D01*
X101546Y33118D01*
X101425Y32997D01*
X101304Y32755D01*
X101304Y32392D01*
X101546Y32150D01*
X101909Y32029D01*
X102392Y32029D01*
X102755Y32150D01*
X102997Y32392D01*
X100736Y34569D02*
X100736Y32029D01*
X98390Y33964D02*
X98511Y34206D01*
X98752Y34448D01*
X98994Y34569D01*
X99478Y34569D01*
X99720Y34448D01*
X99962Y34206D01*
X100083Y33964D01*
X100204Y33601D01*
X100204Y32997D01*
X100083Y32634D01*
X99962Y32392D01*
X99720Y32150D01*
X99478Y32029D01*
X98994Y32029D01*
X98752Y32150D01*
X98511Y32392D01*
X98390Y32634D01*
X98390Y32997D01*
X98994Y32997D02*
X98390Y32997D01*
X97809Y34569D02*
X97809Y32029D01*
X97809Y34569D02*
X96237Y34569D01*
X97809Y33360D02*
X96842Y33360D01*
X95221Y34569D02*
X95463Y34448D01*
X95705Y34206D01*
X95826Y33964D01*
X95947Y33601D01*
X95947Y32997D01*
X95826Y32634D01*
X95705Y32392D01*
X95463Y32150D01*
X95221Y32029D01*
X94738Y32029D01*
X94496Y32150D01*
X94254Y32392D01*
X94133Y32634D01*
X94012Y32997D01*
X94012Y33601D01*
X94133Y33964D01*
X94254Y34206D01*
X94496Y34448D01*
X94738Y34569D01*
X95221Y34569D01*
X93420Y34569D02*
X91727Y32029D01*
X91727Y34569D02*
X93420Y32029D01*
X89163Y33239D02*
X88075Y33239D01*
X87712Y33360D01*
X87591Y33481D01*
X87470Y33722D01*
X87470Y34085D01*
X87591Y34327D01*
X87712Y34448D01*
X88075Y34569D01*
X89163Y34569D01*
X89163Y32029D01*
X85088Y33964D02*
X85209Y34206D01*
X85451Y34448D01*
X85692Y34569D01*
X86176Y34569D01*
X86418Y34448D01*
X86660Y34206D01*
X86781Y33964D01*
X86902Y33601D01*
X86902Y32997D01*
X86781Y32634D01*
X86660Y32392D01*
X86418Y32150D01*
X86176Y32029D01*
X85692Y32029D01*
X85451Y32150D01*
X85209Y32392D01*
X85088Y32634D01*
X84374Y34569D02*
X84374Y32029D01*
X84374Y34569D02*
X83286Y34569D01*
X82923Y34448D01*
X82802Y34327D01*
X82681Y34085D01*
X82681Y33843D01*
X82802Y33601D01*
X82923Y33481D01*
X83286Y33360D01*
X84374Y33360D02*
X83286Y33360D01*
X82923Y33239D01*
X82802Y33118D01*
X82681Y32876D01*
X82681Y32513D01*
X82802Y32271D01*
X82923Y32150D01*
X83286Y32029D01*
X84374Y32029D01*
X80118Y34569D02*
X80118Y32029D01*
X80118Y34569D02*
X79029Y34569D01*
X78667Y34448D01*
X78546Y34327D01*
X78425Y34085D01*
X78425Y33843D01*
X78546Y33601D01*
X78667Y33481D01*
X79029Y33360D01*
X80118Y33360D01*
X79271Y33360D02*
X78425Y32029D01*
X77856Y34569D02*
X77856Y32755D01*
X77735Y32392D01*
X77494Y32150D01*
X77131Y32029D01*
X76889Y32029D01*
X76526Y32150D01*
X76284Y32392D01*
X76163Y32755D01*
X76163Y34569D01*
X75462Y34569D02*
X75462Y32029D01*
X74011Y32029D01*
X72161Y34569D02*
X73733Y34569D01*
X73733Y32029D01*
X72161Y32029D01*
X73733Y33360D02*
X72765Y33360D01*
X71738Y34569D02*
X71738Y32029D01*
X71738Y34569D02*
X70649Y34569D01*
X70286Y34448D01*
X70165Y34327D01*
X70045Y34085D01*
X70045Y33843D01*
X70165Y33601D01*
X70286Y33481D01*
X70649Y33360D01*
X71738Y33360D01*
X70891Y33360D02*
X70045Y32029D01*
X67481Y34569D02*
X67481Y32029D01*
X67481Y34569D02*
X66393Y34569D01*
X66030Y34448D01*
X65909Y34327D01*
X65788Y34085D01*
X65788Y33843D01*
X65909Y33601D01*
X66030Y33481D01*
X66393Y33360D01*
X67481Y33360D02*
X66393Y33360D01*
X66030Y33239D01*
X65909Y33118D01*
X65788Y32876D01*
X65788Y32513D01*
X65909Y32271D01*
X66030Y32150D01*
X66393Y32029D01*
X67481Y32029D01*
X64494Y34569D02*
X64736Y34448D01*
X64978Y34206D01*
X65099Y33964D01*
X65220Y33601D01*
X65220Y32997D01*
X65099Y32634D01*
X64978Y32392D01*
X64736Y32150D01*
X64494Y32029D01*
X64010Y32029D01*
X63768Y32150D01*
X63527Y32392D01*
X63406Y32634D01*
X63285Y32997D01*
X63285Y33601D01*
X63406Y33964D01*
X63527Y34206D01*
X63768Y34448D01*
X64010Y34569D01*
X64494Y34569D01*
X61846Y34569D02*
X61846Y32029D01*
X62692Y34569D02*
X60999Y34569D01*
X59850Y34569D02*
X59850Y32029D01*
X60697Y34569D02*
X59004Y34569D01*
X57976Y34569D02*
X58218Y34448D01*
X58460Y34206D01*
X58581Y33964D01*
X58702Y33601D01*
X58702Y32997D01*
X58581Y32634D01*
X58460Y32392D01*
X58218Y32150D01*
X57976Y32029D01*
X57492Y32029D01*
X57251Y32150D01*
X57009Y32392D01*
X56888Y32634D01*
X56767Y32997D01*
X56767Y33601D01*
X56888Y33964D01*
X57009Y34206D01*
X57251Y34448D01*
X57492Y34569D01*
X57976Y34569D01*
X56174Y34569D02*
X56174Y32029D01*
X56174Y34569D02*
X55207Y32029D01*
X54239Y34569D02*
X55207Y32029D01*
X54239Y34569D02*
X54239Y32029D01*
X49826Y34206D02*
X50067Y34448D01*
X50430Y34569D01*
X50914Y34569D01*
X51277Y34448D01*
X51519Y34206D01*
X51519Y33964D01*
X51398Y33722D01*
X51277Y33601D01*
X51035Y33481D01*
X50309Y33239D01*
X50067Y33118D01*
X49947Y32997D01*
X49826Y32755D01*
X49826Y32392D01*
X50067Y32150D01*
X50430Y32029D01*
X50914Y32029D01*
X51277Y32150D01*
X51519Y32392D01*
X48532Y34569D02*
X48774Y34448D01*
X49015Y34206D01*
X49136Y33964D01*
X49257Y33601D01*
X49257Y32997D01*
X49136Y32634D01*
X49015Y32392D01*
X48774Y32150D01*
X48532Y32029D01*
X48048Y32029D01*
X47806Y32150D01*
X47564Y32392D01*
X47443Y32634D01*
X47322Y32997D01*
X47322Y33601D01*
X47443Y33964D01*
X47564Y34206D01*
X47806Y34448D01*
X48048Y34569D01*
X48532Y34569D01*
X46730Y34569D02*
X46730Y32029D01*
X45279Y32029D01*
X45001Y34569D02*
X45001Y32029D01*
X45001Y34569D02*
X44154Y34569D01*
X43791Y34448D01*
X43550Y34206D01*
X43429Y33964D01*
X43308Y33601D01*
X43308Y32997D01*
X43429Y32634D01*
X43550Y32392D01*
X43791Y32150D01*
X44154Y32029D01*
X45001Y32029D01*
X41167Y34569D02*
X42739Y34569D01*
X42739Y32029D01*
X41167Y32029D01*
X42739Y33360D02*
X41772Y33360D01*
X40744Y34569D02*
X40744Y32029D01*
X40744Y34569D02*
X39656Y34569D01*
X39293Y34448D01*
X39172Y34327D01*
X39051Y34085D01*
X39051Y33843D01*
X39172Y33601D01*
X39293Y33481D01*
X39656Y33360D01*
X40744Y33360D01*
X39898Y33360D02*
X39051Y32029D01*
X36487Y34569D02*
X36487Y32029D01*
X36487Y34569D02*
X35520Y32029D01*
X34553Y34569D02*
X35520Y32029D01*
X34553Y34569D02*
X34553Y32029D01*
X31892Y32029D02*
X32860Y34569D01*
X33827Y32029D01*
X33464Y32876D02*
X32255Y32876D01*
X29607Y34206D02*
X29849Y34448D01*
X30211Y34569D01*
X30695Y34569D01*
X31058Y34448D01*
X31300Y34206D01*
X31300Y33964D01*
X31179Y33722D01*
X31058Y33601D01*
X30816Y33481D01*
X30090Y33239D01*
X29849Y33118D01*
X29728Y32997D01*
X29607Y32755D01*
X29607Y32392D01*
X29849Y32150D01*
X30211Y32029D01*
X30695Y32029D01*
X31058Y32150D01*
X31300Y32392D01*
X29038Y34569D02*
X29038Y32029D01*
X27345Y34569D02*
X29038Y32876D01*
X28434Y33481D02*
X27345Y32029D01*
D127*
X115387Y10950D02*
D03*
X115387Y11450D02*
D03*
X115387Y11950D02*
D03*
X115387Y12450D02*
D03*
X115387Y12950D02*
D03*
X115387Y13450D02*
D03*
X115387Y13950D02*
D03*
X115387Y14450D02*
D03*
X108387Y14450D02*
D03*
X108387Y13950D02*
D03*
X108387Y13450D02*
D03*
X108387Y12950D02*
D03*
X108387Y12450D02*
D03*
X108387Y11950D02*
D03*
X108387Y11450D02*
D03*
X108387Y10950D02*
D03*
D128*
X110137Y9200D02*
D03*
X110637Y9200D02*
D03*
X111137Y9200D02*
D03*
X111637Y9200D02*
D03*
X112137Y9200D02*
D03*
X112637Y9200D02*
D03*
X113137Y9200D02*
D03*
X113637Y9200D02*
D03*
X113637Y16200D02*
D03*
X113137Y16200D02*
D03*
X112637Y16200D02*
D03*
X112137Y16200D02*
D03*
X111637Y16200D02*
D03*
X111137Y16200D02*
D03*
X110637Y16200D02*
D03*
X110137Y16200D02*
D03*
D141*
X79694Y3700D02*
D03*
X85694Y5700D02*
D03*
X79694Y5700D02*
D03*
X79694Y7700D02*
D03*
X85694Y7700D02*
D03*
X79694Y9700D02*
D03*
X85694Y9700D02*
D03*
X79694Y11700D02*
D03*
X85694Y11700D02*
D03*
X79694Y13700D02*
D03*
X85694Y13700D02*
D03*
X79694Y15700D02*
D03*
X85694Y15700D02*
D03*
X79694Y17700D02*
D03*
X85694Y17700D02*
D03*
X79694Y19700D02*
D03*
X85694Y19700D02*
D03*
X79694Y21700D02*
D03*
X85694Y21700D02*
D03*
D147*
X109220Y19143D02*
D03*
D148*
X110744Y19124D02*
D03*
D149*
X112268Y19102D02*
D03*
D150*
X113792Y19076D02*
D03*
D151*
X115316Y19049D02*
D03*
D152*
X116840Y19017D02*
D03*
D153*
X118364Y18982D02*
D03*
D154*
X119888Y18943D02*
D03*
D155*
X121455Y18898D02*
D03*
D156*
X123118Y18848D02*
D03*
D157*
X124883Y18794D02*
D03*
D158*
X126769Y18729D02*
D03*
D159*
X128788Y18659D02*
D03*
D160*
X130959Y18579D02*
D03*
D161*
X133298Y18489D02*
D03*
D162*
X135829Y18389D02*
D03*
D163*
X138568Y18279D02*
D03*
D164*
X141544Y18154D02*
D03*
D165*
X144788Y18009D02*
D03*
D166*
X148339Y17849D02*
D03*
D167*
X152223Y17674D02*
D03*
D168*
X104496Y15500D02*
D03*
X104496Y14700D02*
D03*
X104496Y13900D02*
D03*
X104496Y13100D02*
D03*
X104496Y12300D02*
D03*
X104496Y11500D02*
D03*
X104496Y10700D02*
D03*
X104496Y9900D02*
D03*
X95910Y9900D02*
D03*
X95910Y10700D02*
D03*
X95910Y11500D02*
D03*
X95910Y12300D02*
D03*
X95910Y13100D02*
D03*
X95910Y13900D02*
D03*
X95910Y14700D02*
D03*
X95910Y15500D02*
D03*
D169*
X103003Y8407D02*
D03*
X102203Y8407D02*
D03*
X101403Y8407D02*
D03*
X100603Y8407D02*
D03*
X99803Y8407D02*
D03*
X99003Y8407D02*
D03*
X98203Y8407D02*
D03*
X97403Y8407D02*
D03*
X97403Y16993D02*
D03*
X98203Y16993D02*
D03*
X99003Y16993D02*
D03*
X99803Y16993D02*
D03*
X100603Y16993D02*
D03*
X101403Y16993D02*
D03*
X102203Y16993D02*
D03*
X103003Y16993D02*
D03*
D170*
X3414Y6450D02*
D03*
X4684Y6450D02*
D03*
X5954Y6450D02*
D03*
X12334Y6450D02*
D03*
X13604Y6450D02*
D03*
X14874Y6450D02*
D03*
X16144Y6450D02*
D03*
X17414Y6450D02*
D03*
X18684Y6450D02*
D03*
X19954Y6450D02*
D03*
X21224Y6450D02*
D03*
X22494Y6450D02*
D03*
X23764Y6450D02*
D03*
X25034Y6450D02*
D03*
X25034Y18950D02*
D03*
X23764Y18950D02*
D03*
X22494Y18950D02*
D03*
X21224Y18950D02*
D03*
X19954Y18950D02*
D03*
X18684Y18950D02*
D03*
X17414Y18950D02*
D03*
X16144Y18950D02*
D03*
X14874Y18950D02*
D03*
X13604Y18950D02*
D03*
X12334Y18950D02*
D03*
D171*
X34659Y12700D02*
D03*
D172*
X37409Y15050D02*
D03*
X36909Y15050D02*
D03*
X36409Y15050D02*
D03*
X35909Y15050D02*
D03*
X35409Y15050D02*
D03*
X34909Y15050D02*
D03*
X34409Y15050D02*
D03*
X33909Y15050D02*
D03*
X33409Y15050D02*
D03*
X32909Y15050D02*
D03*
X32409Y15050D02*
D03*
X31909Y15050D02*
D03*
X31909Y10350D02*
D03*
X32409Y10350D02*
D03*
X32909Y10350D02*
D03*
X33409Y10350D02*
D03*
X33909Y10350D02*
D03*
X34409Y10350D02*
D03*
X34909Y10350D02*
D03*
X35409Y10350D02*
D03*
X35909Y10350D02*
D03*
X36409Y10350D02*
D03*
X36909Y10350D02*
D03*
X37409Y10350D02*
D03*
D173*
X31309Y14450D02*
D03*
X31309Y13950D02*
D03*
X31309Y13450D02*
D03*
X31309Y12950D02*
D03*
X31309Y12450D02*
D03*
X31309Y11950D02*
D03*
X31309Y11450D02*
D03*
X31309Y10950D02*
D03*
X38009Y10950D02*
D03*
X38009Y11450D02*
D03*
X38009Y11950D02*
D03*
X38009Y12450D02*
D03*
X38009Y12950D02*
D03*
X38009Y13450D02*
D03*
X38009Y13950D02*
D03*
X38009Y14450D02*
D03*
D174*
X75895Y17600D02*
D03*
X70795Y17600D02*
D03*
X64095Y17600D02*
D03*
X47295Y17600D02*
D03*
X47295Y7800D02*
D03*
X70795Y7800D02*
D03*
M02*
