%FSLAX43Y43*%
%MOMM*%
G71*
G01*
G75*
G04 Layer_Color=33789*
%ADD10R,0.250X0.800*%
%ADD11R,0.800X0.250*%
%ADD12R,1.300X1.200*%
%ADD13R,1.600X0.900*%
%ADD14R,2.800X1.000*%
%ADD15R,2.800X1.000*%
%ADD16R,1.200X1.800*%
%ADD17R,1.200X1.400*%
%ADD18R,0.900X1.050*%
%ADD19R,1.470X1.270*%
%ADD20R,0.830X0.630*%
%ADD21R,0.600X0.500*%
%ADD22R,0.900X0.600*%
%ADD23R,0.300X0.300*%
%ADD24R,0.800X0.900*%
%ADD25R,0.550X1.200*%
%ADD26R,1.143X0.254*%
%ADD27R,0.254X1.143*%
%ADD28R,4.826X5.715*%
%ADD29R,1.600X3.000*%
%ADD30R,2.400X2.400*%
%ADD31R,3.800X2.800*%
%ADD32R,0.400X0.750*%
%ADD33R,1.219X2.235*%
%ADD34R,3.600X2.200*%
%ADD35R,5.334X1.930*%
%ADD36R,2.210X0.610*%
%ADD37R,0.580X1.200*%
%ADD38R,2.000X2.000*%
%ADD39R,1.000X1.400*%
%ADD40C,1.000*%
%ADD41R,0.350X0.350*%
%ADD42R,1.800X1.400*%
%ADD43R,2.100X1.400*%
%ADD44R,1.600X0.350*%
%ADD45R,1.200X0.800*%
%ADD46C,1.000*%
%ADD47C,0.152*%
%ADD48R,2.400X2.400*%
%ADD49R,0.300X3.000*%
%ADD50R,0.200X1.000*%
%ADD51R,0.200X2.000*%
%ADD52R,0.300X3.500*%
%ADD53R,0.300X1.500*%
%ADD54R,0.300X2.500*%
%ADD55R,9.398X1.016*%
%ADD56R,9.398X0.762*%
%ADD57R,9.398X0.610*%
%ADD58R,9.398X0.457*%
%ADD59R,9.398X0.305*%
%ADD60R,9.398X0.254*%
%ADD61R,9.398X0.203*%
%ADD62R,9.398X0.152*%
%ADD63R,0.330X0.686*%
%ADD64R,0.400X0.750*%
%ADD65C,0.321*%
%ADD66C,0.361*%
%ADD67C,0.405*%
%ADD68C,0.455*%
%ADD69C,0.511*%
%ADD70C,0.573*%
%ADD71C,0.644*%
%ADD72C,0.723*%
%ADD73C,0.812*%
%ADD74C,0.912*%
%ADD75C,1.020*%
%ADD76C,1.150*%
%ADD77C,1.290*%
%ADD78C,1.450*%
%ADD79C,1.630*%
%ADD80C,1.830*%
%ADD81C,2.050*%
%ADD82C,2.300*%
%ADD83C,2.590*%
%ADD84C,2.910*%
%ADD85C,3.260*%
%ADD86R,1.270X0.559*%
%ADD87R,0.559X1.270*%
%ADD88R,0.890X2.600*%
%ADD89R,5.600X3.600*%
%ADD90R,0.320X0.600*%
%ADD91R,0.600X0.320*%
%ADD92R,1.000X1.950*%
%ADD93C,0.154*%
%ADD94C,0.200*%
%ADD95C,0.150*%
%ADD96C,0.170*%
%ADD97C,0.160*%
%ADD98C,0.155*%
%ADD99C,0.100*%
%ADD100C,0.120*%
%ADD101C,0.127*%
%ADD102C,0.250*%
%ADD103C,0.250*%
%ADD104C,0.254*%
%ADD105R,0.300X2.400*%
%ADD106R,0.864X1.093*%
%ADD107R,9.398X0.406*%
%ADD108R,9.398X0.508*%
%ADD109R,9.398X0.914*%
%ADD110R,9.398X1.168*%
%ADD111R,0.377X0.927*%
%ADD112R,0.927X0.377*%
%ADD113R,1.427X1.327*%
%ADD114R,1.727X1.027*%
%ADD115R,2.927X1.127*%
%ADD116R,2.927X1.127*%
%ADD117R,1.327X1.927*%
%ADD118R,1.327X1.527*%
%ADD119R,1.027X1.177*%
%ADD120R,1.597X1.397*%
%ADD121R,0.957X0.757*%
%ADD122R,0.727X0.627*%
%ADD123R,1.027X0.727*%
%ADD124R,0.427X0.427*%
%ADD125R,0.927X1.027*%
%ADD126R,0.677X1.327*%
%ADD127R,1.270X0.381*%
%ADD128R,0.381X1.270*%
%ADD129R,4.953X5.842*%
%ADD130R,1.727X3.127*%
%ADD131R,2.527X2.527*%
%ADD132R,3.927X2.927*%
%ADD133R,0.527X0.877*%
%ADD134R,1.346X2.362*%
%ADD135R,3.727X2.327*%
%ADD136R,5.461X2.057*%
%ADD137R,2.337X0.737*%
%ADD138R,0.707X1.327*%
%ADD139R,2.127X2.127*%
%ADD140R,1.127X1.527*%
%ADD141C,1.127*%
%ADD142R,0.477X0.477*%
%ADD143R,1.927X1.527*%
%ADD144R,2.227X1.527*%
%ADD145R,1.727X0.477*%
%ADD146R,1.327X0.927*%
%ADD147C,0.448*%
%ADD148C,0.488*%
%ADD149C,0.532*%
%ADD150C,0.582*%
%ADD151C,0.638*%
%ADD152C,0.700*%
%ADD153C,0.771*%
%ADD154C,0.850*%
%ADD155C,0.939*%
%ADD156C,1.039*%
%ADD157C,1.147*%
%ADD158C,1.277*%
%ADD159C,1.417*%
%ADD160C,1.577*%
%ADD161C,1.757*%
%ADD162C,1.957*%
%ADD163C,2.177*%
%ADD164C,2.427*%
%ADD165C,2.717*%
%ADD166C,3.037*%
%ADD167C,3.387*%
%ADD168R,1.397X0.686*%
%ADD169R,0.686X1.397*%
%ADD170R,1.017X2.727*%
%ADD171R,5.727X3.727*%
%ADD172R,0.447X0.727*%
%ADD173R,0.727X0.447*%
%ADD174R,1.127X2.077*%
%ADD175C,0.050*%
%ADD176C,0.508*%
%ADD177C,0.076*%
D47*
X30497Y34227D02*
X30255Y34469D01*
X29892Y34590D01*
X29409Y34590D01*
X29046Y34469D01*
X28804Y34227D01*
X28804Y33985D01*
X28925Y33743D01*
X29046Y33622D01*
X29288Y33501D01*
X30013Y33259D01*
X30255Y33138D01*
X30376Y33018D01*
X30497Y32776D01*
X30497Y32413D01*
X30255Y32171D01*
X29892Y32050D01*
X29409Y32050D01*
X29046Y32171D01*
X28804Y32413D01*
X31065Y34590D02*
X31065Y32050D01*
X33411Y33985D02*
X33290Y34227D01*
X33049Y34469D01*
X32807Y34590D01*
X32323Y34590D01*
X32081Y34469D01*
X31839Y34227D01*
X31718Y33985D01*
X31597Y33622D01*
X31597Y33018D01*
X31718Y32655D01*
X31839Y32413D01*
X32081Y32171D01*
X32323Y32050D01*
X32807Y32050D01*
X33049Y32171D01*
X33290Y32413D01*
X33411Y32655D01*
X33411Y33018D01*
X32807Y33018D02*
X33411Y33018D01*
X33992Y34590D02*
X33992Y32050D01*
X33992Y34590D02*
X35564Y34590D01*
X33992Y33380D02*
X34959Y33380D01*
X36580Y34590D02*
X36338Y34469D01*
X36096Y34227D01*
X35975Y33985D01*
X35854Y33622D01*
X35854Y33018D01*
X35975Y32655D01*
X36096Y32413D01*
X36338Y32171D01*
X36580Y32050D01*
X37063Y32050D01*
X37305Y32171D01*
X37547Y32413D01*
X37668Y32655D01*
X37789Y33018D01*
X37789Y33622D01*
X37668Y33985D01*
X37547Y34227D01*
X37305Y34469D01*
X37063Y34590D01*
X36580Y34590D01*
X38381Y34590D02*
X40074Y32050D01*
X40074Y34590D02*
X38381Y32050D01*
X42638Y33259D02*
X43726Y33259D01*
X44089Y33380D01*
X44210Y33501D01*
X44331Y33743D01*
X44331Y34106D01*
X44210Y34348D01*
X44089Y34469D01*
X43726Y34590D01*
X42638Y34590D01*
X42638Y32050D01*
X46713Y33985D02*
X46592Y34227D01*
X46350Y34469D01*
X46109Y34590D01*
X45625Y34590D01*
X45383Y34469D01*
X45141Y34227D01*
X45020Y33985D01*
X44899Y33622D01*
X44899Y33018D01*
X45020Y32655D01*
X45141Y32413D01*
X45383Y32171D01*
X45625Y32050D01*
X46109Y32050D01*
X46350Y32171D01*
X46592Y32413D01*
X46713Y32655D01*
X47427Y34590D02*
X47427Y32050D01*
X47427Y34590D02*
X48515Y34590D01*
X48878Y34469D01*
X48999Y34348D01*
X49120Y34106D01*
X49120Y33864D01*
X48999Y33622D01*
X48878Y33501D01*
X48515Y33380D01*
X47427Y33380D02*
X48515Y33380D01*
X48878Y33259D01*
X48999Y33138D01*
X49120Y32897D01*
X49120Y32534D01*
X48999Y32292D01*
X48878Y32171D01*
X48515Y32050D01*
X47427Y32050D01*
X51683Y34590D02*
X51683Y32050D01*
X51683Y34590D02*
X52772Y34590D01*
X53134Y34469D01*
X53255Y34348D01*
X53376Y34106D01*
X53376Y33864D01*
X53255Y33622D01*
X53134Y33501D01*
X52772Y33380D01*
X51683Y33380D01*
X52530Y33380D02*
X53376Y32050D01*
X53945Y34590D02*
X53945Y32776D01*
X54066Y32413D01*
X54307Y32171D01*
X54670Y32050D01*
X54912Y32050D01*
X55275Y32171D01*
X55517Y32413D01*
X55638Y32776D01*
X55638Y34590D01*
X56339Y34590D02*
X56339Y32050D01*
X57790Y32050D01*
X59640Y34590D02*
X58068Y34590D01*
X58068Y32050D01*
X59640Y32050D01*
X58068Y33380D02*
X59036Y33380D01*
X60063Y34590D02*
X60063Y32050D01*
X60063Y34590D02*
X61152Y34590D01*
X61515Y34469D01*
X61636Y34348D01*
X61756Y34106D01*
X61756Y33864D01*
X61636Y33622D01*
X61515Y33501D01*
X61152Y33380D01*
X60063Y33380D01*
X60910Y33380D02*
X61756Y32050D01*
X64320Y34590D02*
X64320Y32050D01*
X64320Y34590D02*
X65408Y34590D01*
X65771Y34469D01*
X65892Y34348D01*
X66013Y34106D01*
X66013Y33864D01*
X65892Y33622D01*
X65771Y33501D01*
X65408Y33380D01*
X64320Y33380D02*
X65408Y33380D01*
X65771Y33259D01*
X65892Y33138D01*
X66013Y32897D01*
X66013Y32534D01*
X65892Y32292D01*
X65771Y32171D01*
X65408Y32050D01*
X64320Y32050D01*
X67307Y34590D02*
X67065Y34469D01*
X66823Y34227D01*
X66702Y33985D01*
X66581Y33622D01*
X66581Y33018D01*
X66702Y32655D01*
X66823Y32413D01*
X67065Y32171D01*
X67307Y32050D01*
X67791Y32050D01*
X68033Y32171D01*
X68274Y32413D01*
X68395Y32655D01*
X68516Y33018D01*
X68516Y33622D01*
X68395Y33985D01*
X68274Y34227D01*
X68033Y34469D01*
X67791Y34590D01*
X67307Y34590D01*
X71044Y32050D02*
X70076Y34590D01*
X69109Y32050D01*
X69472Y32897D02*
X70681Y32897D01*
X71636Y34590D02*
X71636Y32050D01*
X71636Y34590D02*
X72724Y34590D01*
X73087Y34469D01*
X73208Y34348D01*
X73329Y34106D01*
X73329Y33864D01*
X73208Y33622D01*
X73087Y33501D01*
X72724Y33380D01*
X71636Y33380D01*
X72483Y33380D02*
X73329Y32050D01*
X73897Y34590D02*
X73897Y32050D01*
X73897Y34590D02*
X74744Y34590D01*
X75107Y34469D01*
X75349Y34227D01*
X75470Y33985D01*
X75590Y33622D01*
X75590Y33018D01*
X75470Y32655D01*
X75349Y32413D01*
X75107Y32171D01*
X74744Y32050D01*
X73897Y32050D01*
X78880Y34590D02*
X78638Y34469D01*
X78396Y34227D01*
X78275Y33985D01*
X78154Y33622D01*
X78154Y33018D01*
X78275Y32655D01*
X78396Y32413D01*
X78638Y32171D01*
X78880Y32050D01*
X79363Y32050D01*
X79605Y32171D01*
X79847Y32413D01*
X79968Y32655D01*
X80089Y33018D01*
X80089Y33622D01*
X79968Y33985D01*
X79847Y34227D01*
X79605Y34469D01*
X79363Y34590D01*
X78880Y34590D01*
X80681Y34590D02*
X80681Y32776D01*
X80802Y32413D01*
X81044Y32171D01*
X81407Y32050D01*
X81649Y32050D01*
X82012Y32171D01*
X82253Y32413D01*
X82374Y32776D01*
X82374Y34590D01*
X83922Y34590D02*
X83922Y32050D01*
X83076Y34590D02*
X84769Y34590D01*
X85071Y34590D02*
X85071Y32050D01*
X86522Y32050D01*
X86800Y34590D02*
X86800Y32050D01*
X87332Y34590D02*
X87332Y32050D01*
X87332Y34590D02*
X89025Y32050D01*
X89025Y34590D02*
X89025Y32050D01*
X91299Y34590D02*
X89727Y34590D01*
X89727Y32050D01*
X91299Y32050D01*
X89727Y33380D02*
X90694Y33380D01*
D104*
X0Y0D02*
X0Y25400D01*
X154940Y25400D01*
X154940Y0D02*
X154940Y25400D01*
X0Y0D02*
X154940Y0D01*
M02*
