%FSLAX43Y43*%
%MOMM*%
G71*
G01*
G75*
G04 Layer_Color=8421504*
%ADD10R,0.250X0.800*%
%ADD11R,0.800X0.250*%
%ADD12R,1.300X1.200*%
%ADD13R,1.600X0.900*%
%ADD14R,2.800X1.000*%
%ADD15R,2.800X1.000*%
%ADD16R,1.200X1.800*%
%ADD17R,1.200X1.400*%
%ADD18R,0.900X1.050*%
%ADD19R,1.470X1.270*%
%ADD20R,0.830X0.630*%
%ADD21R,0.600X0.500*%
%ADD22R,0.900X0.600*%
%ADD23R,0.300X0.300*%
%ADD24R,0.800X0.900*%
%ADD25R,0.550X1.200*%
%ADD26R,1.143X0.254*%
%ADD27R,0.254X1.143*%
%ADD28R,4.826X5.715*%
%ADD29R,1.600X3.000*%
%ADD30R,2.400X2.400*%
%ADD31R,3.800X2.800*%
%ADD32R,0.400X0.750*%
%ADD33R,1.219X2.235*%
%ADD34R,3.600X2.200*%
%ADD35R,5.334X1.930*%
%ADD36R,2.210X0.610*%
%ADD37R,0.580X1.200*%
%ADD38R,2.000X2.000*%
%ADD39R,1.000X1.400*%
%ADD40C,1.000*%
%ADD41R,0.350X0.350*%
%ADD42R,1.800X1.400*%
%ADD43R,2.100X1.400*%
%ADD44R,1.600X0.350*%
%ADD45R,1.200X0.800*%
%ADD46C,1.000*%
%ADD47C,0.152*%
%ADD48R,2.400X2.400*%
%ADD49R,0.300X3.000*%
%ADD50R,0.200X1.000*%
%ADD51R,0.200X2.000*%
%ADD52R,0.300X3.500*%
%ADD53R,0.300X1.500*%
%ADD54R,0.300X2.500*%
%ADD55R,9.398X1.016*%
%ADD56R,9.398X0.762*%
%ADD57R,9.398X0.610*%
%ADD58R,9.398X0.457*%
%ADD59R,9.398X0.305*%
%ADD60R,9.398X0.254*%
%ADD61R,9.398X0.203*%
%ADD62R,9.398X0.152*%
%ADD63R,0.330X0.686*%
%ADD64R,0.400X0.750*%
%ADD65C,0.321*%
%ADD66C,0.361*%
%ADD67C,0.405*%
%ADD68C,0.455*%
%ADD69C,0.511*%
%ADD70C,0.573*%
%ADD71C,0.644*%
%ADD72C,0.723*%
%ADD73C,0.812*%
%ADD74C,0.912*%
%ADD75C,1.020*%
%ADD76C,1.150*%
%ADD77C,1.290*%
%ADD78C,1.450*%
%ADD79C,1.630*%
%ADD80C,1.830*%
%ADD81C,2.050*%
%ADD82C,2.300*%
%ADD83C,2.590*%
%ADD84C,2.910*%
%ADD85C,3.260*%
%ADD86R,1.270X0.559*%
%ADD87R,0.559X1.270*%
%ADD88R,0.890X2.600*%
%ADD89R,5.600X3.600*%
%ADD90R,0.320X0.600*%
%ADD91R,0.600X0.320*%
%ADD92R,1.000X1.950*%
%ADD93C,0.154*%
%ADD94C,0.200*%
%ADD95C,0.150*%
%ADD96C,0.170*%
%ADD97C,0.160*%
%ADD98C,0.155*%
%ADD99C,0.100*%
%ADD100C,0.120*%
%ADD101C,0.127*%
%ADD102C,0.250*%
%ADD103C,0.250*%
%ADD104C,0.254*%
%ADD105R,0.300X2.400*%
%ADD106R,0.864X1.093*%
D10*
X111526Y16732D02*
D03*
X112026Y16732D02*
D03*
X112526Y16732D02*
D03*
X113026Y16732D02*
D03*
X113526Y16732D02*
D03*
X114026Y16732D02*
D03*
X114026Y12732D02*
D03*
X113526Y12732D02*
D03*
X113026Y12732D02*
D03*
X112526Y12732D02*
D03*
X112026Y12732D02*
D03*
X111526Y12732D02*
D03*
D11*
X114776Y15982D02*
D03*
X114776Y15482D02*
D03*
X114776Y14982D02*
D03*
X114776Y14482D02*
D03*
X114776Y13982D02*
D03*
X114776Y13482D02*
D03*
X110776Y13482D02*
D03*
X110776Y13982D02*
D03*
X110776Y14482D02*
D03*
X110776Y14982D02*
D03*
X110776Y15482D02*
D03*
X110776Y15982D02*
D03*
D12*
X23622Y10321D02*
D03*
X23622Y8221D02*
D03*
D13*
X25578Y10467D02*
D03*
X25578Y7567D02*
D03*
D14*
X28296Y7415D02*
D03*
X28296Y10415D02*
D03*
D15*
X31623Y10428D02*
D03*
X31623Y5828D02*
D03*
D16*
X93313Y14891D02*
D03*
X93313Y18891D02*
D03*
X95713Y18891D02*
D03*
X95713Y14891D02*
D03*
D17*
X99888Y16682D02*
D03*
X99888Y19082D02*
D03*
X101788Y19082D02*
D03*
X101788Y16682D02*
D03*
D18*
X105978Y17696D02*
D03*
X105978Y19286D02*
D03*
X107178Y19286D02*
D03*
X107178Y17696D02*
D03*
D19*
X45872Y6003D02*
D03*
X45872Y10303D02*
D03*
D20*
X37846Y5657D02*
D03*
X37846Y7957D02*
D03*
D21*
X20574Y6596D02*
D03*
X20574Y5596D02*
D03*
X20574Y10660D02*
D03*
X20574Y9660D02*
D03*
D22*
X22098Y7125D02*
D03*
X22098Y5625D02*
D03*
X22098Y10605D02*
D03*
X22098Y9105D02*
D03*
D23*
X19050Y8428D02*
D03*
X19050Y7828D02*
D03*
X19050Y6091D02*
D03*
X19050Y5491D02*
D03*
X19050Y10765D02*
D03*
X19050Y10165D02*
D03*
D24*
X61026Y17796D02*
D03*
X62926Y17796D02*
D03*
X61976Y19896D02*
D03*
D25*
X61026Y12162D02*
D03*
X61976Y12162D02*
D03*
X62926Y12162D02*
D03*
X62926Y14762D02*
D03*
X61026Y14762D02*
D03*
D26*
X117658Y15720D02*
D03*
X117658Y15220D02*
D03*
X117658Y14720D02*
D03*
X117658Y14220D02*
D03*
X117658Y13720D02*
D03*
X117658Y13220D02*
D03*
X117658Y12720D02*
D03*
X117658Y12220D02*
D03*
X124658Y12220D02*
D03*
X124658Y12720D02*
D03*
X124658Y13220D02*
D03*
X124658Y13720D02*
D03*
X124658Y14220D02*
D03*
X124658Y14720D02*
D03*
X124658Y15220D02*
D03*
X124658Y15720D02*
D03*
D27*
X119408Y10470D02*
D03*
X119908Y10470D02*
D03*
X120408Y10470D02*
D03*
X120908Y10470D02*
D03*
X121408Y10470D02*
D03*
X121908Y10470D02*
D03*
X122408Y10470D02*
D03*
X122908Y10470D02*
D03*
X122908Y17470D02*
D03*
X122408Y17470D02*
D03*
X121908Y17470D02*
D03*
X121408Y17470D02*
D03*
X120908Y17470D02*
D03*
X120408Y17470D02*
D03*
X119908Y17470D02*
D03*
X119408Y17470D02*
D03*
D28*
X74930Y15685D02*
D03*
D29*
X77210Y8787D02*
D03*
X72650Y8787D02*
D03*
D30*
X49784Y6563D02*
D03*
X49784Y10963D02*
D03*
D31*
X55347Y14139D02*
D03*
X55347Y6739D02*
D03*
D32*
X61326Y8953D02*
D03*
X62626Y8953D02*
D03*
X62626Y7303D02*
D03*
X61976Y7303D02*
D03*
X61326Y7303D02*
D03*
D33*
X65253Y6553D02*
D03*
X67564Y6553D02*
D03*
X69875Y6553D02*
D03*
D34*
X67564Y12751D02*
D03*
D35*
X105156Y7874D02*
D03*
X95504Y7874D02*
D03*
D36*
X118542Y8763D02*
D03*
X118542Y7493D02*
D03*
X118542Y6223D02*
D03*
X118542Y4953D02*
D03*
X123774Y4953D02*
D03*
X123774Y6223D02*
D03*
X123774Y7493D02*
D03*
X123774Y8763D02*
D03*
D37*
X66064Y16234D02*
D03*
X67564Y16234D02*
D03*
X69064Y16234D02*
D03*
D38*
X67564Y19334D02*
D03*
D39*
X107276Y12700D02*
D03*
X105576Y12700D02*
D03*
D40*
X91694Y3700D02*
D03*
D41*
X34544Y5523D02*
D03*
X34544Y6873D02*
D03*
D42*
X39878Y6047D02*
D03*
X39878Y9447D02*
D03*
D43*
X42672Y6080D02*
D03*
X42672Y10480D02*
D03*
D44*
X109926Y10099D02*
D03*
X109926Y9449D02*
D03*
X109926Y8799D02*
D03*
X109926Y8149D02*
D03*
X109926Y7499D02*
D03*
X109926Y6849D02*
D03*
X109926Y6199D02*
D03*
X109926Y5549D02*
D03*
X115826Y5549D02*
D03*
X115826Y6199D02*
D03*
X115826Y6849D02*
D03*
X115826Y7499D02*
D03*
X115826Y8149D02*
D03*
X115826Y8799D02*
D03*
X115826Y9449D02*
D03*
X115826Y10099D02*
D03*
D45*
X36068Y7353D02*
D03*
X36068Y5753D02*
D03*
D47*
X30497Y34227D02*
X30255Y34469D01*
X29892Y34590D01*
X29409Y34590D01*
X29046Y34469D01*
X28804Y34227D01*
X28804Y33985D01*
X28925Y33743D01*
X29046Y33622D01*
X29288Y33501D01*
X30013Y33259D01*
X30255Y33138D01*
X30376Y33018D01*
X30497Y32776D01*
X30497Y32413D01*
X30255Y32171D01*
X29892Y32050D01*
X29409Y32050D01*
X29046Y32171D01*
X28804Y32413D01*
X31065Y34590D02*
X31065Y32050D01*
X33411Y33985D02*
X33290Y34227D01*
X33049Y34469D01*
X32807Y34590D01*
X32323Y34590D01*
X32081Y34469D01*
X31839Y34227D01*
X31718Y33985D01*
X31597Y33622D01*
X31597Y33018D01*
X31718Y32655D01*
X31839Y32413D01*
X32081Y32171D01*
X32323Y32050D01*
X32807Y32050D01*
X33049Y32171D01*
X33290Y32413D01*
X33411Y32655D01*
X33411Y33018D01*
X32807Y33018D02*
X33411Y33018D01*
X33992Y34590D02*
X33992Y32050D01*
X33992Y34590D02*
X35564Y34590D01*
X33992Y33380D02*
X34959Y33380D01*
X36580Y34590D02*
X36338Y34469D01*
X36096Y34227D01*
X35975Y33985D01*
X35854Y33622D01*
X35854Y33018D01*
X35975Y32655D01*
X36096Y32413D01*
X36338Y32171D01*
X36580Y32050D01*
X37063Y32050D01*
X37305Y32171D01*
X37547Y32413D01*
X37668Y32655D01*
X37789Y33018D01*
X37789Y33622D01*
X37668Y33985D01*
X37547Y34227D01*
X37305Y34469D01*
X37063Y34590D01*
X36580Y34590D01*
X38381Y34590D02*
X40074Y32050D01*
X40074Y34590D02*
X38381Y32050D01*
X42638Y33259D02*
X43726Y33259D01*
X44089Y33380D01*
X44210Y33501D01*
X44331Y33743D01*
X44331Y34106D01*
X44210Y34348D01*
X44089Y34469D01*
X43726Y34590D01*
X42638Y34590D01*
X42638Y32050D01*
X46713Y33985D02*
X46592Y34227D01*
X46350Y34469D01*
X46109Y34590D01*
X45625Y34590D01*
X45383Y34469D01*
X45141Y34227D01*
X45020Y33985D01*
X44899Y33622D01*
X44899Y33018D01*
X45020Y32655D01*
X45141Y32413D01*
X45383Y32171D01*
X45625Y32050D01*
X46109Y32050D01*
X46350Y32171D01*
X46592Y32413D01*
X46713Y32655D01*
X47427Y34590D02*
X47427Y32050D01*
X47427Y34590D02*
X48515Y34590D01*
X48878Y34469D01*
X48999Y34348D01*
X49120Y34106D01*
X49120Y33864D01*
X48999Y33622D01*
X48878Y33501D01*
X48515Y33380D01*
X47427Y33380D02*
X48515Y33380D01*
X48878Y33259D01*
X48999Y33138D01*
X49120Y32897D01*
X49120Y32534D01*
X48999Y32292D01*
X48878Y32171D01*
X48515Y32050D01*
X47427Y32050D01*
X51683Y34590D02*
X51683Y32050D01*
X51683Y34590D02*
X52772Y34590D01*
X53134Y34469D01*
X53255Y34348D01*
X53376Y34106D01*
X53376Y33864D01*
X53255Y33622D01*
X53134Y33501D01*
X52772Y33380D01*
X51683Y33380D01*
X52530Y33380D02*
X53376Y32050D01*
X53945Y34590D02*
X53945Y32776D01*
X54066Y32413D01*
X54307Y32171D01*
X54670Y32050D01*
X54912Y32050D01*
X55275Y32171D01*
X55517Y32413D01*
X55638Y32776D01*
X55638Y34590D01*
X56339Y34590D02*
X56339Y32050D01*
X57790Y32050D01*
X59640Y34590D02*
X58068Y34590D01*
X58068Y32050D01*
X59640Y32050D01*
X58068Y33380D02*
X59036Y33380D01*
X60063Y34590D02*
X60063Y32050D01*
X60063Y34590D02*
X61152Y34590D01*
X61515Y34469D01*
X61636Y34348D01*
X61756Y34106D01*
X61756Y33864D01*
X61636Y33622D01*
X61515Y33501D01*
X61152Y33380D01*
X60063Y33380D01*
X60910Y33380D02*
X61756Y32050D01*
X67162Y34590D02*
X67162Y32050D01*
X66315Y34590D02*
X68008Y34590D01*
X69036Y34590D02*
X68794Y34469D01*
X68553Y34227D01*
X68432Y33985D01*
X68311Y33622D01*
X68311Y33018D01*
X68432Y32655D01*
X68553Y32413D01*
X68794Y32171D01*
X69036Y32050D01*
X69520Y32050D01*
X69762Y32171D01*
X70004Y32413D01*
X70125Y32655D01*
X70245Y33018D01*
X70245Y33622D01*
X70125Y33985D01*
X70004Y34227D01*
X69762Y34469D01*
X69520Y34590D01*
X69036Y34590D01*
X70838Y33259D02*
X71926Y33259D01*
X72289Y33380D01*
X72410Y33501D01*
X72531Y33743D01*
X72531Y34106D01*
X72410Y34348D01*
X72289Y34469D01*
X71926Y34590D01*
X70838Y34590D01*
X70838Y32050D01*
X75095Y33259D02*
X76183Y33259D01*
X76546Y33380D01*
X76667Y33501D01*
X76788Y33743D01*
X76788Y34106D01*
X76667Y34348D01*
X76546Y34469D01*
X76183Y34590D01*
X75095Y34590D01*
X75095Y32050D01*
X79291Y32050D02*
X78323Y34590D01*
X77356Y32050D01*
X77719Y32897D02*
X78928Y32897D01*
X81576Y34227D02*
X81334Y34469D01*
X80972Y34590D01*
X80488Y34590D01*
X80125Y34469D01*
X79883Y34227D01*
X79883Y33985D01*
X80004Y33743D01*
X80125Y33622D01*
X80367Y33501D01*
X81093Y33259D01*
X81334Y33138D01*
X81455Y33018D01*
X81576Y32776D01*
X81576Y32413D01*
X81334Y32171D01*
X80972Y32050D01*
X80488Y32050D01*
X80125Y32171D01*
X79883Y32413D01*
X82991Y34590D02*
X82991Y32050D01*
X82145Y34590D02*
X83838Y34590D01*
X85712Y34590D02*
X84140Y34590D01*
X84140Y32050D01*
X85712Y32050D01*
X84140Y33380D02*
X85107Y33380D01*
D48*
X112776Y14732D02*
D03*
M02*
