%FSLAX43Y43*%
%MOMM*%
G71*
G01*
G75*
G04 Layer_Color=65535*
%ADD10R,0.250X0.800*%
%ADD11R,0.800X0.250*%
%ADD12R,1.300X1.200*%
%ADD13R,1.600X0.900*%
%ADD14R,2.800X1.000*%
%ADD15R,2.800X1.000*%
%ADD16R,1.200X1.800*%
%ADD17R,1.200X1.400*%
%ADD18R,0.900X1.050*%
%ADD19R,1.470X1.270*%
%ADD20R,0.830X0.630*%
%ADD21R,0.600X0.500*%
%ADD22R,0.900X0.600*%
%ADD23R,0.300X0.300*%
%ADD24R,0.800X0.900*%
%ADD25R,0.550X1.200*%
%ADD26R,1.143X0.254*%
%ADD27R,0.254X1.143*%
%ADD28R,4.826X5.715*%
%ADD29R,1.600X3.000*%
%ADD30R,2.400X2.400*%
%ADD31R,3.800X2.800*%
%ADD32R,0.400X0.750*%
%ADD33R,1.219X2.235*%
%ADD34R,3.600X2.200*%
%ADD35R,5.334X1.930*%
%ADD36R,2.210X0.610*%
%ADD37R,0.580X1.200*%
%ADD38R,2.000X2.000*%
%ADD39R,1.000X1.400*%
%ADD40C,1.000*%
%ADD41R,0.350X0.350*%
%ADD42R,1.800X1.400*%
%ADD43R,2.100X1.400*%
%ADD44R,1.600X0.350*%
%ADD45R,1.200X0.800*%
%ADD46C,1.000*%
%ADD47C,0.152*%
%ADD48R,2.400X2.400*%
%ADD49R,0.300X3.000*%
%ADD50R,0.200X1.000*%
%ADD51R,0.200X2.000*%
%ADD52R,0.300X3.500*%
%ADD53R,0.300X1.500*%
%ADD54R,0.300X2.500*%
%ADD55R,9.398X1.016*%
%ADD56R,9.398X0.762*%
%ADD57R,9.398X0.610*%
%ADD58R,9.398X0.457*%
%ADD59R,9.398X0.305*%
%ADD60R,9.398X0.254*%
%ADD61R,9.398X0.203*%
%ADD62R,9.398X0.152*%
%ADD63R,0.330X0.686*%
%ADD64R,0.400X0.750*%
%ADD65C,0.321*%
%ADD66C,0.361*%
%ADD67C,0.405*%
%ADD68C,0.455*%
%ADD69C,0.511*%
%ADD70C,0.573*%
%ADD71C,0.644*%
%ADD72C,0.723*%
%ADD73C,0.812*%
%ADD74C,0.912*%
%ADD75C,1.020*%
%ADD76C,1.150*%
%ADD77C,1.290*%
%ADD78C,1.450*%
%ADD79C,1.630*%
%ADD80C,1.830*%
%ADD81C,2.050*%
%ADD82C,2.300*%
%ADD83C,2.590*%
%ADD84C,2.910*%
%ADD85C,3.260*%
%ADD86R,1.270X0.559*%
%ADD87R,0.559X1.270*%
%ADD88R,0.890X2.600*%
%ADD89R,5.600X3.600*%
%ADD90R,0.320X0.600*%
%ADD91R,0.600X0.320*%
%ADD92R,1.000X1.950*%
%ADD93C,0.154*%
%ADD94C,0.200*%
%ADD95C,0.150*%
%ADD96C,0.170*%
%ADD97C,0.160*%
%ADD98C,0.155*%
%ADD99C,0.100*%
%ADD100C,0.120*%
%ADD101C,0.127*%
%ADD102C,0.250*%
%ADD103C,0.250*%
%ADD104C,0.254*%
%ADD105R,0.300X2.400*%
%ADD106R,0.864X1.093*%
D47*
X44422Y10453D02*
X44872Y10453D01*
X44422Y5853D02*
X44422Y10453D01*
X44422Y5853D02*
X44872Y5853D01*
X46872Y5853D02*
X47322Y5853D01*
X47322Y10453D01*
X46872Y10453D02*
X47322Y10453D01*
X51689Y6502D02*
X51689Y11024D01*
X47879Y6502D02*
X47879Y11024D01*
X52242Y6879D02*
X52242Y14000D01*
X58451Y6879D02*
X58451Y14000D01*
X119355Y4496D02*
X122961Y4496D01*
X121555Y9220D02*
X122961Y9220D01*
X119355Y9220D02*
X120761Y9220D01*
X40665Y6985D02*
X40665Y8509D01*
X39091Y6985D02*
X39091Y8509D01*
X41472Y7010D02*
X41472Y9550D01*
X43872Y7010D02*
X43872Y9550D01*
X30497Y34227D02*
X30255Y34469D01*
X29892Y34590D01*
X29409Y34590D01*
X29046Y34469D01*
X28804Y34227D01*
X28804Y33985D01*
X28925Y33743D01*
X29046Y33622D01*
X29288Y33501D01*
X30013Y33259D01*
X30255Y33138D01*
X30376Y33018D01*
X30497Y32776D01*
X30497Y32413D01*
X30255Y32171D01*
X29892Y32050D01*
X29409Y32050D01*
X29046Y32171D01*
X28804Y32413D01*
X31065Y34590D02*
X31065Y32050D01*
X33411Y33985D02*
X33290Y34227D01*
X33049Y34469D01*
X32807Y34590D01*
X32323Y34590D01*
X32081Y34469D01*
X31839Y34227D01*
X31718Y33985D01*
X31597Y33622D01*
X31597Y33018D01*
X31718Y32655D01*
X31839Y32413D01*
X32081Y32171D01*
X32323Y32050D01*
X32807Y32050D01*
X33049Y32171D01*
X33290Y32413D01*
X33411Y32655D01*
X33411Y33018D01*
X32807Y33018D02*
X33411Y33018D01*
X33992Y34590D02*
X33992Y32050D01*
X33992Y34590D02*
X35564Y34590D01*
X33992Y33380D02*
X34959Y33380D01*
X36580Y34590D02*
X36338Y34469D01*
X36096Y34227D01*
X35975Y33985D01*
X35854Y33622D01*
X35854Y33018D01*
X35975Y32655D01*
X36096Y32413D01*
X36338Y32171D01*
X36580Y32050D01*
X37063Y32050D01*
X37305Y32171D01*
X37547Y32413D01*
X37668Y32655D01*
X37789Y33018D01*
X37789Y33622D01*
X37668Y33985D01*
X37547Y34227D01*
X37305Y34469D01*
X37063Y34590D01*
X36580Y34590D01*
X38381Y34590D02*
X40074Y32050D01*
X40074Y34590D02*
X38381Y32050D01*
X42638Y33259D02*
X43726Y33259D01*
X44089Y33380D01*
X44210Y33501D01*
X44331Y33743D01*
X44331Y34106D01*
X44210Y34348D01*
X44089Y34469D01*
X43726Y34590D01*
X42638Y34590D01*
X42638Y32050D01*
X46713Y33985D02*
X46592Y34227D01*
X46350Y34469D01*
X46109Y34590D01*
X45625Y34590D01*
X45383Y34469D01*
X45141Y34227D01*
X45020Y33985D01*
X44899Y33622D01*
X44899Y33018D01*
X45020Y32655D01*
X45141Y32413D01*
X45383Y32171D01*
X45625Y32050D01*
X46109Y32050D01*
X46350Y32171D01*
X46592Y32413D01*
X46713Y32655D01*
X47427Y34590D02*
X47427Y32050D01*
X47427Y34590D02*
X48515Y34590D01*
X48878Y34469D01*
X48999Y34348D01*
X49120Y34106D01*
X49120Y33864D01*
X48999Y33622D01*
X48878Y33501D01*
X48515Y33380D01*
X47427Y33380D02*
X48515Y33380D01*
X48878Y33259D01*
X48999Y33138D01*
X49120Y32897D01*
X49120Y32534D01*
X48999Y32292D01*
X48878Y32171D01*
X48515Y32050D01*
X47427Y32050D01*
X51683Y34590D02*
X51683Y32050D01*
X51683Y34590D02*
X52772Y34590D01*
X53134Y34469D01*
X53255Y34348D01*
X53376Y34106D01*
X53376Y33864D01*
X53255Y33622D01*
X53134Y33501D01*
X52772Y33380D01*
X51683Y33380D01*
X52530Y33380D02*
X53376Y32050D01*
X53945Y34590D02*
X53945Y32776D01*
X54066Y32413D01*
X54307Y32171D01*
X54670Y32050D01*
X54912Y32050D01*
X55275Y32171D01*
X55517Y32413D01*
X55638Y32776D01*
X55638Y34590D01*
X56339Y34590D02*
X56339Y32050D01*
X57790Y32050D01*
X59640Y34590D02*
X58068Y34590D01*
X58068Y32050D01*
X59640Y32050D01*
X58068Y33380D02*
X59036Y33380D01*
X60063Y34590D02*
X60063Y32050D01*
X60063Y34590D02*
X61152Y34590D01*
X61515Y34469D01*
X61636Y34348D01*
X61756Y34106D01*
X61756Y33864D01*
X61636Y33622D01*
X61515Y33501D01*
X61152Y33380D01*
X60063Y33380D01*
X60910Y33380D02*
X61756Y32050D01*
X65167Y34590D02*
X65167Y32050D01*
X64320Y34590D02*
X66013Y34590D01*
X67041Y34590D02*
X66799Y34469D01*
X66557Y34227D01*
X66436Y33985D01*
X66315Y33622D01*
X66315Y33018D01*
X66436Y32655D01*
X66557Y32413D01*
X66799Y32171D01*
X67041Y32050D01*
X67525Y32050D01*
X67767Y32171D01*
X68008Y32413D01*
X68129Y32655D01*
X68250Y33018D01*
X68250Y33622D01*
X68129Y33985D01*
X68008Y34227D01*
X67767Y34469D01*
X67525Y34590D01*
X67041Y34590D01*
X68843Y33259D02*
X69931Y33259D01*
X70294Y33380D01*
X70415Y33501D01*
X70536Y33743D01*
X70536Y34106D01*
X70415Y34348D01*
X70294Y34469D01*
X69931Y34590D01*
X68843Y34590D01*
X68843Y32050D01*
X74792Y34227D02*
X74550Y34469D01*
X74188Y34590D01*
X73704Y34590D01*
X73341Y34469D01*
X73099Y34227D01*
X73099Y33985D01*
X73220Y33743D01*
X73341Y33622D01*
X73583Y33501D01*
X74309Y33259D01*
X74550Y33138D01*
X74671Y33018D01*
X74792Y32776D01*
X74792Y32413D01*
X74550Y32171D01*
X74188Y32050D01*
X73704Y32050D01*
X73341Y32171D01*
X73099Y32413D01*
X75361Y34590D02*
X75361Y32050D01*
X75893Y34590D02*
X75893Y32050D01*
X77344Y32050D01*
X77622Y34590D02*
X77622Y32050D01*
X79315Y34590D02*
X77622Y32897D01*
X78227Y33501D02*
X79315Y32050D01*
X81576Y34227D02*
X81334Y34469D01*
X80972Y34590D01*
X80488Y34590D01*
X80125Y34469D01*
X79883Y34227D01*
X79883Y33985D01*
X80004Y33743D01*
X80125Y33622D01*
X80367Y33501D01*
X81093Y33259D01*
X81334Y33138D01*
X81455Y33018D01*
X81576Y32776D01*
X81576Y32413D01*
X81334Y32171D01*
X80972Y32050D01*
X80488Y32050D01*
X80125Y32171D01*
X79883Y32413D01*
X83959Y33985D02*
X83838Y34227D01*
X83596Y34469D01*
X83354Y34590D01*
X82870Y34590D01*
X82628Y34469D01*
X82387Y34227D01*
X82266Y33985D01*
X82145Y33622D01*
X82145Y33018D01*
X82266Y32655D01*
X82387Y32413D01*
X82628Y32171D01*
X82870Y32050D01*
X83354Y32050D01*
X83596Y32171D01*
X83838Y32413D01*
X83959Y32655D01*
X84672Y34590D02*
X84672Y32050D01*
X84672Y34590D02*
X85760Y34590D01*
X86123Y34469D01*
X86244Y34348D01*
X86365Y34106D01*
X86365Y33864D01*
X86244Y33622D01*
X86123Y33501D01*
X85760Y33380D01*
X84672Y33380D01*
X85519Y33380D02*
X86365Y32050D01*
X88505Y34590D02*
X86933Y34590D01*
X86933Y32050D01*
X88505Y32050D01*
X86933Y33380D02*
X87901Y33380D01*
X90501Y34590D02*
X88929Y34590D01*
X88929Y32050D01*
X90501Y32050D01*
X88929Y33380D02*
X89896Y33380D01*
X90924Y34590D02*
X90924Y32050D01*
X90924Y34590D02*
X92617Y32050D01*
X92617Y34590D02*
X92617Y32050D01*
D93*
X80162Y8433D02*
X80162Y9113D01*
X80502Y9113D01*
X80616Y8999D01*
X80616Y8773D01*
X80502Y8659D01*
X80162Y8659D01*
X81295Y8999D02*
X81182Y9113D01*
X80955Y9113D01*
X80842Y8999D01*
X80842Y8546D01*
X80955Y8433D01*
X81182Y8433D01*
X81295Y8546D01*
X81522Y9113D02*
X81522Y8433D01*
X81862Y8433D01*
X81975Y8546D01*
X81975Y8659D01*
X81862Y8773D01*
X81522Y8773D01*
X81862Y8773D01*
X81975Y8886D01*
X81975Y8999D01*
X81862Y9113D01*
X81522Y9113D01*
X82882Y9113D02*
X83335Y9113D01*
X83108Y9113D01*
X83108Y8433D01*
X83561Y8886D02*
X83561Y8433D01*
X83561Y8659D01*
X83675Y8773D01*
X83788Y8886D01*
X83901Y8886D01*
X84354Y8886D02*
X84581Y8886D01*
X84694Y8773D01*
X84694Y8433D01*
X84354Y8433D01*
X84241Y8546D01*
X84354Y8659D01*
X84694Y8659D01*
X85374Y8886D02*
X85034Y8886D01*
X84921Y8773D01*
X84921Y8546D01*
X85034Y8433D01*
X85374Y8433D01*
X85941Y8433D02*
X85714Y8433D01*
X85601Y8546D01*
X85601Y8773D01*
X85714Y8886D01*
X85941Y8886D01*
X86054Y8773D01*
X86054Y8659D01*
X85601Y8659D01*
X86960Y8433D02*
X86960Y8886D01*
X87187Y9113D01*
X87413Y8886D01*
X87413Y8433D01*
X87413Y8773D01*
X86960Y8773D01*
X87640Y8433D02*
X87640Y8886D01*
X87980Y8886D01*
X88093Y8773D01*
X88093Y8433D01*
X88433Y8999D02*
X88433Y8886D01*
X88320Y8886D01*
X88546Y8886D01*
X88433Y8886D01*
X88433Y8546D01*
X88546Y8433D01*
X89226Y8433D02*
X89000Y8433D01*
X88886Y8546D01*
X88886Y8773D01*
X89000Y8886D01*
X89226Y8886D01*
X89339Y8773D01*
X89339Y8659D01*
X88886Y8659D01*
X89566Y8433D02*
X89566Y8886D01*
X89906Y8886D01*
X90019Y8773D01*
X90019Y8433D01*
X90246Y8433D02*
X90246Y8886D01*
X90586Y8886D01*
X90699Y8773D01*
X90699Y8433D01*
X91039Y8886D02*
X91265Y8886D01*
X91379Y8773D01*
X91379Y8433D01*
X91039Y8433D01*
X90926Y8546D01*
X91039Y8659D01*
X91379Y8659D01*
D94*
X144280Y8128D02*
X144380Y8128D01*
X144280Y9228D02*
X144280Y9428D01*
X144280Y8928D02*
X144280Y9228D01*
X144280Y8128D02*
X144280Y8378D01*
X144280Y7878D02*
X144280Y8128D01*
X144280Y7028D02*
X144280Y7328D01*
X144280Y6828D02*
X144280Y7028D01*
X143780Y7128D02*
X143780Y9128D01*
X136406Y9228D02*
X136406Y9428D01*
X136406Y8928D02*
X136406Y9228D01*
X136406Y8128D02*
X136406Y8378D01*
X136406Y7878D02*
X136406Y8128D01*
X136406Y7028D02*
X136406Y7328D01*
X136406Y6828D02*
X136406Y7028D01*
X135906Y7128D02*
X135906Y9128D01*
D95*
X146780Y8128D02*
G03*
X146780Y8128I-2000J0D01*
G01*
X138906Y8128D02*
G03*
X138906Y8128I-2000J0D01*
G01*
X138290Y12970D02*
G03*
X139590Y14270I0J1300D01*
G01*
X139590Y14270D02*
G03*
X138290Y15570I-1300J0D01*
G01*
X119608Y15770D02*
G03*
X119608Y15770I-250J0D01*
G01*
X95221Y6731D02*
G03*
X96901Y5842I1680J1143D01*
G01*
X103759Y5842D02*
G03*
X105439Y6731I-0J2032D01*
G01*
X105439Y9017D02*
G03*
X103759Y9906I-1680J-1143D01*
G01*
X96901Y9906D02*
G03*
X95221Y9017I0J-2032D01*
G01*
X120758Y9158D02*
G03*
X121158Y8758I400J0D01*
G01*
X121158Y8758D02*
G03*
X121558Y9158I0J400D01*
G01*
X112276Y10874D02*
G03*
X113276Y10874I500J0D01*
G01*
X111692Y10174D02*
G03*
X111692Y10174I-316J0D01*
G01*
X24172Y9071D02*
X24172Y9471D01*
X23072Y9071D02*
X23072Y9471D01*
X26278Y8217D02*
X26278Y9817D01*
X24878Y8217D02*
X24878Y9817D01*
X26996Y8115D02*
X26996Y9715D01*
X29596Y8115D02*
X29596Y9715D01*
X32923Y6628D02*
X32923Y9628D01*
X30323Y6628D02*
X30323Y9628D01*
X94213Y14391D02*
X94813Y14391D01*
X96113Y16291D02*
X96113Y17491D01*
X94213Y19391D02*
X94813Y19391D01*
X92913Y16291D02*
X92913Y17491D01*
X37196Y5907D02*
X37196Y7307D01*
X37196Y7707D01*
X38496Y5907D02*
X38496Y7307D01*
X38496Y7707D01*
X145780Y9228D02*
X145780Y11628D01*
X144280Y9228D02*
X145780Y9228D01*
X144280Y7028D02*
X145780Y7028D01*
X145780Y4628D02*
X145780Y7028D01*
X145780Y8128D01*
X145180Y8128D02*
X145780Y8128D01*
X144380Y8128D02*
X145180Y7628D01*
X145180Y8128D01*
X145180Y8628D01*
X144380Y8128D02*
X145180Y8628D01*
X141280Y7128D02*
X143780Y7128D01*
X137906Y8128D02*
X137906Y9228D01*
X137706Y8128D02*
X137906Y8128D01*
X136406Y8128D02*
X136906Y8128D01*
X136906Y8528D02*
X137706Y8128D01*
X136906Y7728D02*
X137706Y8128D01*
X136906Y7728D02*
X136906Y8128D01*
X136906Y8528D01*
X137906Y9228D02*
X137906Y11628D01*
X136406Y9228D02*
X137906Y9228D01*
X136406Y7028D02*
X137906Y7028D01*
X137906Y4628D02*
X137906Y7028D01*
X133406Y9128D02*
X135906Y9128D01*
X133890Y13770D02*
X135890Y13770D01*
X132890Y15070D02*
X135890Y15070D01*
X136490Y13470D02*
X138090Y13470D01*
X138090Y14570D01*
X136490Y14070D02*
X137590Y14070D01*
X138090Y14570D01*
X136490Y14570D02*
X137390Y14570D01*
X137890Y15070D01*
X136490Y15070D02*
X137890Y15070D01*
X136490Y12970D02*
X138290Y12970D01*
X136490Y15570D02*
X138290Y15570D01*
X135890Y16070D02*
X136490Y16070D01*
X136490Y15570D02*
X136490Y16070D01*
X136490Y15070D02*
X136490Y15570D01*
X136490Y14570D02*
X136490Y15070D01*
X136490Y14070D02*
X136490Y14570D01*
X136490Y13470D02*
X136490Y14070D01*
X136490Y12970D02*
X136490Y13470D01*
X135890Y12970D02*
X136490Y12970D01*
X135890Y12970D02*
X135890Y13770D01*
X135890Y15070D01*
X135890Y16070D01*
X129286Y9358D02*
X129286Y9958D01*
X128986Y9658D02*
X129586Y9658D01*
X129286Y16724D02*
X129286Y17324D01*
X128986Y17024D02*
X129586Y17024D01*
X20774Y5996D02*
X20774Y6196D01*
X20374Y5996D02*
X20374Y6196D01*
X22448Y6125D02*
X22448Y6625D01*
X21748Y6125D02*
X21748Y6625D01*
X22448Y9605D02*
X22448Y10105D01*
X21748Y9605D02*
X21748Y10105D01*
X20774Y10060D02*
X20774Y10260D01*
X20374Y10060D02*
X20374Y10260D01*
X60576Y19496D02*
X61176Y19496D01*
X60576Y18696D02*
X60576Y19496D01*
X62776Y19496D02*
X63376Y19496D01*
X63376Y18696D02*
X63376Y19496D01*
X63398Y13033D02*
X63398Y13891D01*
X60554Y13033D02*
X60554Y13891D01*
X61708Y14272D02*
X62244Y14272D01*
X118658Y11470D02*
X118658Y16470D01*
X118658Y11470D02*
X123658Y11470D01*
X123658Y16470D01*
X118658Y16470D02*
X123658Y16470D01*
X118658Y11470D02*
X118658Y16470D01*
X118658Y11470D02*
X123658Y11470D01*
X123658Y16470D01*
X118658Y16470D02*
X123658Y16470D01*
X71653Y10668D02*
X71653Y16562D01*
X71653Y10668D02*
X78207Y10668D01*
X78207Y16562D02*
X78207Y10668D01*
X60976Y7503D02*
X60976Y8753D01*
X62976Y7503D02*
X62976Y8753D01*
X70841Y8001D02*
X70841Y11303D01*
X64287Y8001D02*
X70841Y8001D01*
X64287Y8001D02*
X64287Y11303D01*
X70841Y11303D01*
X96901Y9906D02*
X103759Y9906D01*
X106045Y5461D02*
X106045Y6731D01*
X94615Y5461D02*
X94615Y6731D01*
X94615Y5461D02*
X106045Y5461D01*
X96901Y5842D02*
X103759Y5842D01*
X94615Y9017D02*
X94615Y10287D01*
X106045Y10287D01*
X106045Y9017D02*
X106045Y10287D01*
X68936Y19340D02*
X69855Y19340D01*
X65273Y19328D02*
X66192Y19328D01*
X65264Y16734D02*
X65264Y19334D01*
X69864Y16734D02*
X69864Y19334D01*
X147666Y13724D02*
X147666Y14424D01*
X147666Y13024D02*
X147666Y13724D01*
X146466Y14424D02*
X147666Y13724D01*
X146466Y13724D02*
X146466Y14424D01*
X146466Y13024D02*
X146466Y13724D01*
X146466Y13024D02*
X147666Y13724D01*
X141666Y13724D02*
X146466Y13724D01*
X147666Y13724D02*
X154066Y13724D01*
X34894Y5648D02*
X34894Y6748D01*
X34194Y5648D02*
X34194Y6748D01*
X110376Y4774D02*
X115376Y4774D01*
X115376Y10674D02*
X115376Y10874D01*
X113276Y10874D02*
X115376Y10874D01*
X110376Y10874D02*
X112276Y10874D01*
X110376Y10674D02*
X110376Y10874D01*
X110376Y4774D02*
X110376Y4974D01*
X110376Y4774D02*
X115376Y4774D01*
X115376Y4974D01*
X35518Y6325D02*
X35518Y6782D01*
X36618Y6325D02*
X36618Y6782D01*
D96*
X131286Y6858D02*
G03*
X131286Y6858I-2000J0D01*
G01*
X131286Y14224D02*
G03*
X131286Y14224I-2000J0D01*
G01*
X110776Y16382D02*
X111126Y16732D01*
X114426Y16732D02*
X114776Y16732D01*
X114776Y16382D02*
X114776Y16732D01*
X110776Y12732D02*
X110776Y13082D01*
X110776Y12732D02*
X111126Y12732D01*
X114776Y12732D02*
X114776Y13082D01*
X114426Y12732D02*
X114776Y12732D01*
X126286Y6858D02*
X128486Y6858D01*
X129986Y3858D02*
X129986Y5058D01*
X128486Y6358D02*
X129986Y5058D01*
X129986Y8658D02*
X129986Y9858D01*
X128486Y7358D02*
X129986Y8658D01*
X126286Y14224D02*
X128486Y14224D01*
X129986Y11224D02*
X129986Y12424D01*
X128486Y13724D02*
X129986Y12424D01*
X129986Y16024D02*
X129986Y17224D01*
X128486Y14624D02*
X129986Y16024D01*
D97*
X120347Y8661D02*
G03*
X120347Y8661I-180J0D01*
G01*
D98*
X87130Y15638D02*
G03*
X87079Y12438I1575J-1626D01*
G01*
X87705Y15236D02*
G03*
X87561Y12920I740J-1208D01*
G01*
X87917Y14713D02*
G03*
X87917Y13377I668J-668D01*
G01*
X89916Y12770D02*
X89916Y14139D01*
X89916Y10766D02*
X91260Y10766D01*
X89916Y12770D02*
X91252Y14106D01*
X89916Y10766D02*
X89916Y12770D01*
X88580Y14106D02*
X89916Y12770D01*
D99*
X146330Y10678D02*
X146680Y10678D01*
X146930Y10928D01*
X146930Y11328D01*
X146680Y11578D02*
X146930Y11328D01*
X146330Y11578D02*
X146680Y11578D01*
X146330Y10678D02*
X146330Y11578D01*
X138456Y4678D02*
X138806Y4678D01*
X139056Y4928D01*
X139056Y5328D01*
X138806Y5578D02*
X139056Y5328D01*
X138456Y5578D02*
X138806Y5578D01*
X138456Y4678D02*
X138456Y5578D01*
D100*
X133090Y15970D02*
X133690Y15970D01*
X133390Y15670D02*
X133390Y16270D01*
X135200Y12620D02*
X135350Y12770D01*
X135350Y13080D01*
X135210Y13220D02*
X135350Y13080D01*
X134590Y13220D02*
X135210Y13220D01*
X134440Y13070D02*
X134590Y13220D01*
X134440Y12760D02*
X134440Y13070D01*
X134440Y12760D02*
X134600Y12600D01*
X134780Y15660D02*
X134780Y16260D01*
X134420Y15650D02*
X135040Y15650D01*
X135340Y15950D01*
X135030Y16260D02*
X135340Y15950D01*
X134780Y16260D02*
X135030Y16260D01*
X134420Y16260D02*
X134780Y16260D01*
D101*
X106274Y12100D02*
X106578Y12100D01*
X106274Y13300D02*
X106578Y13300D01*
D102*
X78994Y2904D02*
X80518Y2904D01*
X78994Y2938D02*
X78994Y22496D01*
X91694Y22496D01*
X91694Y4623D02*
X91694Y22496D01*
D103*
X84074Y2904D02*
X90780Y2904D01*
D104*
X145280Y5628D02*
X145280Y4612D01*
X144603Y5628D01*
X144603Y4612D01*
X144264Y5628D02*
X144264Y4612D01*
X143926Y4951D01*
X143587Y4612D01*
X143587Y5628D01*
X142741Y4612D02*
X143079Y4612D01*
X143249Y4782D01*
X143249Y5459D01*
X143079Y5628D01*
X142741Y5628D01*
X142572Y5459D01*
X142572Y4782D01*
X142741Y4612D01*
X141556Y4782D02*
X141725Y4612D01*
X142064Y4612D01*
X142233Y4782D01*
X142233Y4951D01*
X142064Y5120D01*
X141725Y5120D01*
X141556Y5289D01*
X141556Y5459D01*
X141725Y5628D01*
X142064Y5628D01*
X142233Y5459D01*
X144780Y11136D02*
X145457Y11136D01*
X145119Y11474D02*
X145119Y10797D01*
X146957Y5474D02*
X146788Y5644D01*
X146449Y5644D01*
X146280Y5474D01*
X146280Y5305D01*
X146449Y5136D01*
X146788Y5136D01*
X146957Y4967D01*
X146957Y4797D01*
X146788Y4628D01*
X146449Y4628D01*
X146280Y4797D01*
X141957Y8474D02*
X141788Y8644D01*
X141449Y8644D01*
X141280Y8474D01*
X141280Y7797D01*
X141449Y7628D01*
X141788Y7628D01*
X141957Y7797D01*
X141957Y8136D01*
X141618Y8136D01*
X133465Y5928D02*
X133853Y6866D01*
X134322Y6672D01*
X134414Y6451D01*
X134284Y6138D01*
X134063Y6046D01*
X133594Y6241D01*
X134403Y5539D02*
X134792Y6478D01*
X134975Y6035D01*
X135417Y6219D01*
X135028Y5280D01*
X136199Y5895D02*
X135886Y6024D01*
X135665Y5933D01*
X135406Y5307D01*
X135498Y5086D01*
X135810Y4956D01*
X136032Y5048D01*
X136291Y5673D01*
X136199Y5895D01*
X137229Y5285D02*
X137137Y5506D01*
X136825Y5636D01*
X136604Y5544D01*
X136539Y5388D01*
X136630Y5166D01*
X136943Y5037D01*
X137035Y4816D01*
X136970Y4659D01*
X136749Y4568D01*
X136436Y4697D01*
X136344Y4918D01*
X136906Y11136D02*
X137583Y11136D01*
X137245Y11474D02*
X137245Y10797D01*
X139083Y11474D02*
X138914Y11644D01*
X138575Y11644D01*
X138406Y11474D01*
X138406Y11305D01*
X138575Y11136D01*
X138914Y11136D01*
X139083Y10967D01*
X139083Y10797D01*
X138914Y10628D01*
X138575Y10628D01*
X138406Y10797D01*
X134083Y8474D02*
X133914Y8644D01*
X133575Y8644D01*
X133406Y8474D01*
X133406Y7797D01*
X133575Y7628D01*
X133914Y7628D01*
X134083Y7797D01*
X134083Y8136D01*
X133744Y8136D01*
X125986Y5158D02*
X126704Y5876D01*
X126465Y4679D01*
X127183Y5397D01*
X126704Y4440D02*
X127422Y5158D01*
X127782Y4799D01*
X127782Y4560D01*
X127542Y4320D01*
X127303Y4320D01*
X126944Y4679D01*
X127422Y3722D02*
X128141Y4440D01*
X127901Y3243D01*
X128619Y3961D01*
X126286Y8174D02*
X126286Y7158D01*
X126794Y7158D01*
X126963Y7327D01*
X126963Y7497D01*
X126794Y7666D01*
X126286Y7666D01*
X126794Y7666D01*
X126963Y7835D01*
X126963Y8004D01*
X126794Y8174D01*
X126286Y8174D01*
X131063Y9804D02*
X130894Y9974D01*
X130555Y9974D01*
X130386Y9804D01*
X130386Y9127D01*
X130555Y8958D01*
X130894Y8958D01*
X131063Y9127D01*
X131063Y4674D02*
X130386Y4674D01*
X130386Y3658D01*
X131063Y3658D01*
X130386Y4166D02*
X130725Y4166D01*
X125986Y12524D02*
X126704Y13242D01*
X127063Y12883D01*
X127063Y12644D01*
X126824Y12404D01*
X126585Y12404D01*
X126225Y12763D01*
X126704Y11806D02*
X127422Y12524D01*
X127183Y11327D01*
X127901Y12045D01*
X127422Y11088D02*
X128141Y11806D01*
X128500Y11447D01*
X128500Y11207D01*
X128260Y10968D01*
X128021Y10968D01*
X127662Y11327D01*
X126286Y15540D02*
X126286Y14524D01*
X126794Y14524D01*
X126963Y14693D01*
X126963Y14863D01*
X126794Y15032D01*
X126286Y15032D01*
X126794Y15032D01*
X126963Y15201D01*
X126963Y15370D01*
X126794Y15540D01*
X126286Y15540D01*
X131063Y17340D02*
X130386Y17340D01*
X130386Y16324D01*
X131063Y16324D01*
X130386Y16832D02*
X130725Y16832D01*
X131063Y11870D02*
X130894Y12040D01*
X130555Y12040D01*
X130386Y11870D01*
X130386Y11193D01*
X130555Y11024D01*
X130894Y11024D01*
X131063Y11193D01*
X5588Y24892D02*
X5588Y24553D01*
X5588Y24723D01*
X6604Y24723D01*
X6434Y24892D01*
X5588Y24046D02*
X6265Y23368D01*
X6434Y23030D02*
X6604Y22861D01*
X6604Y22522D01*
X6434Y22353D01*
X6265Y22353D01*
X6096Y22522D01*
X5927Y22353D01*
X5757Y22353D01*
X5588Y22522D01*
X5588Y22861D01*
X5757Y23030D01*
X5927Y23030D01*
X6096Y22861D01*
X6265Y23030D01*
X6434Y23030D01*
X6096Y22861D02*
X6096Y22522D01*
X152463Y24859D02*
X151796Y24526D01*
X151130Y23860D01*
X151130Y23193D01*
X151463Y22860D01*
X152130Y22860D01*
X152463Y23193D01*
X152463Y23526D01*
X152130Y23860D01*
X151130Y23860D01*
X151769Y2287D02*
X152277Y2287D01*
X152023Y2287D01*
X152023Y3811D01*
X151769Y3557D01*
X154054Y3811D02*
X153038Y3811D01*
X153038Y3049D01*
X153546Y3303D01*
X153800Y3303D01*
X154054Y3049D01*
X154054Y2541D01*
X153800Y2287D01*
X153292Y2287D01*
X153038Y2541D01*
X41173Y10897D02*
X40158Y10897D01*
X40496Y11235D01*
X40158Y11574D01*
X41173Y11574D01*
X41173Y11912D02*
X41173Y12251D01*
X41173Y12082D01*
X40496Y12082D01*
X40496Y11912D01*
X41173Y12759D02*
X40496Y12759D01*
X40496Y13267D01*
X40666Y13436D01*
X41173Y13436D01*
X41173Y13774D02*
X41173Y14113D01*
X41173Y13944D01*
X40496Y13944D01*
X40496Y13774D01*
X41173Y14621D02*
X40158Y14621D01*
X40496Y14959D01*
X40158Y15298D01*
X41173Y15298D01*
X40158Y16314D02*
X40158Y15636D01*
X41173Y15636D01*
X41173Y16314D01*
X40666Y15636D02*
X40666Y15975D01*
X40158Y16652D02*
X41173Y16652D01*
X41173Y17329D01*
X40158Y18345D02*
X40158Y17668D01*
X40666Y17668D01*
X40666Y18006D01*
X40666Y17668D01*
X41173Y17668D01*
X14936Y6400D02*
X14682Y6147D01*
X14682Y5639D01*
X14936Y5385D01*
X15190Y5385D01*
X15443Y5639D01*
X15443Y6147D01*
X15697Y6400D01*
X15951Y6400D01*
X16205Y6147D01*
X16205Y5639D01*
X15951Y5385D01*
X16205Y6908D02*
X14682Y6908D01*
X15190Y7416D01*
X14682Y7924D01*
X16205Y7924D01*
X14682Y8432D02*
X16205Y8432D01*
X16205Y9194D01*
X15951Y9447D01*
X14936Y9447D01*
X14682Y9194D01*
X14682Y8432D01*
X16205Y11479D02*
X14682Y11479D01*
X14682Y12241D01*
X14936Y12495D01*
X15443Y12495D01*
X15697Y12241D01*
X15697Y11479D01*
X15697Y11987D02*
X16205Y12495D01*
X16205Y13002D02*
X15190Y14018D01*
X14936Y15542D02*
X14682Y15288D01*
X14682Y14780D01*
X14936Y14526D01*
X15951Y14526D01*
X16205Y14780D01*
X16205Y15288D01*
X15951Y15542D01*
X16205Y16049D02*
X15190Y17065D01*
X14682Y17573D02*
X16205Y17573D01*
X16205Y18589D01*
X109813Y14139D02*
X109136Y14139D01*
X108966Y13970D01*
X108966Y13631D01*
X109136Y13462D01*
X109813Y13462D01*
X109982Y13631D01*
X109982Y13970D01*
X109643Y13801D02*
X109982Y14139D01*
X109982Y13970D02*
X109813Y14139D01*
X108966Y15155D02*
X108966Y14478D01*
X109474Y14478D01*
X109474Y14816D01*
X109474Y14478D01*
X109982Y14478D01*
X109982Y15493D02*
X108966Y15493D01*
X109982Y16170D01*
X108966Y16170D01*
X121497Y13377D02*
X120820Y13377D01*
X120650Y13208D01*
X120650Y12869D01*
X120820Y12700D01*
X121497Y12700D01*
X121666Y12869D01*
X121666Y13208D01*
X121327Y13039D02*
X121666Y13377D01*
X121666Y13208D02*
X121497Y13377D01*
X120650Y14393D02*
X120650Y13716D01*
X121158Y13716D01*
X121158Y14054D01*
X121158Y13716D01*
X121666Y13716D01*
X121666Y14731D02*
X120650Y14731D01*
X120650Y15239D01*
X120820Y15408D01*
X121158Y15408D01*
X121327Y15239D01*
X121327Y14731D01*
X120769Y5554D02*
X120600Y5385D01*
X120600Y5046D01*
X120769Y4877D01*
X120938Y4877D01*
X121107Y5046D01*
X121107Y5385D01*
X121277Y5554D01*
X121446Y5554D01*
X121615Y5385D01*
X121615Y5046D01*
X121446Y4877D01*
X120600Y6400D02*
X120600Y6062D01*
X120769Y5892D01*
X121446Y5892D01*
X121615Y6062D01*
X121615Y6400D01*
X121446Y6570D01*
X120769Y6570D01*
X120600Y6400D01*
X120600Y6908D02*
X120600Y7247D01*
X120600Y7077D01*
X121615Y7077D01*
X121615Y6908D01*
X121615Y7247D01*
X120769Y8432D02*
X120600Y8262D01*
X120600Y7924D01*
X120769Y7755D01*
X121446Y7755D01*
X121615Y7924D01*
X121615Y8262D01*
X121446Y8432D01*
X112438Y6773D02*
X112268Y6604D01*
X112268Y6265D01*
X112438Y6096D01*
X112607Y6096D01*
X112776Y6265D01*
X112776Y6604D01*
X112945Y6773D01*
X113115Y6773D01*
X113284Y6604D01*
X113284Y6265D01*
X113115Y6096D01*
X112438Y7789D02*
X112268Y7620D01*
X112268Y7281D01*
X112438Y7112D01*
X112607Y7112D01*
X112776Y7281D01*
X112776Y7620D01*
X112945Y7789D01*
X113115Y7789D01*
X113284Y7620D01*
X113284Y7281D01*
X113115Y7112D01*
X112268Y8635D02*
X112268Y8297D01*
X112438Y8127D01*
X113115Y8127D01*
X113284Y8297D01*
X113284Y8635D01*
X113115Y8804D01*
X112438Y8804D01*
X112268Y8635D01*
X113284Y9143D02*
X112268Y9143D01*
X112268Y9651D01*
X112438Y9820D01*
X112776Y9820D01*
X112945Y9651D01*
X112945Y9143D01*
X150114Y11751D02*
X150453Y12090D01*
X151130Y12090D01*
X151468Y11751D01*
X151468Y11413D01*
X151130Y11074D01*
X151468Y10736D01*
X151468Y10397D01*
X151130Y10058D01*
X150453Y10058D01*
X150114Y10397D01*
X150114Y10736D01*
X150453Y11074D01*
X150114Y11413D01*
X150114Y11751D01*
X150453Y11074D02*
X151130Y11074D01*
X152145Y11751D02*
X152484Y12090D01*
X153161Y12090D01*
X153500Y11751D01*
X153500Y10397D01*
X153161Y10058D01*
X152484Y10058D01*
X152145Y10397D01*
X152145Y11751D01*
X151130Y9550D02*
X150622Y9296D01*
X150114Y8788D01*
X150114Y8280D01*
X150368Y8026D01*
X150876Y8026D01*
X151130Y8280D01*
X151130Y8534D01*
X150876Y8788D01*
X150114Y8788D01*
X151638Y9296D02*
X151891Y9550D01*
X152399Y9550D01*
X152653Y9296D01*
X152653Y8280D01*
X152399Y8026D01*
X151891Y8026D01*
X151638Y8280D01*
X151638Y9296D01*
X150960Y7518D02*
X150114Y7518D01*
X150114Y6883D01*
X150537Y7095D01*
X150749Y7095D01*
X150960Y6883D01*
X150960Y6460D01*
X150749Y6248D01*
X150326Y6248D01*
X150114Y6460D01*
X151384Y7306D02*
X151595Y7518D01*
X152018Y7518D01*
X152230Y7306D01*
X152230Y6460D01*
X152018Y6248D01*
X151595Y6248D01*
X151384Y6460D01*
X151384Y7306D01*
X150622Y4699D02*
X150622Y5715D01*
X150114Y5207D01*
X150791Y5207D01*
X151130Y5545D02*
X151299Y5715D01*
X151638Y5715D01*
X151807Y5545D01*
X151807Y4868D01*
X151638Y4699D01*
X151299Y4699D01*
X151130Y4868D01*
X151130Y5545D01*
X152145Y4699D02*
X152145Y5376D01*
X152315Y5376D01*
X152484Y5207D01*
X152484Y4699D01*
X152484Y5207D01*
X152653Y5376D01*
X152822Y5207D01*
X152822Y4699D01*
X153161Y4699D02*
X153500Y4699D01*
X153330Y4699D01*
X153330Y5376D01*
X153161Y5376D01*
X154007Y4699D02*
X154346Y4699D01*
X154177Y4699D01*
X154177Y5715D01*
X154007Y5715D01*
X148590Y5249D02*
X148590Y4572D01*
X149098Y4572D01*
X149098Y4911D01*
X149098Y4572D01*
X149606Y4572D01*
X149606Y5757D02*
X149606Y6096D01*
X149437Y6265D01*
X149098Y6265D01*
X148929Y6096D01*
X148929Y5757D01*
X149098Y5588D01*
X149437Y5588D01*
X149606Y5757D01*
X149606Y6603D02*
X148929Y6603D01*
X148929Y7111D01*
X149098Y7280D01*
X149606Y7280D01*
X148760Y7788D02*
X148929Y7788D01*
X148929Y7619D01*
X148929Y7958D01*
X148929Y7788D01*
X149437Y7788D01*
X149606Y7958D01*
X148760Y10158D02*
X148590Y9989D01*
X148590Y9650D01*
X148760Y9481D01*
X148929Y9481D01*
X149098Y9650D01*
X149098Y9989D01*
X149267Y10158D01*
X149437Y10158D01*
X149606Y9989D01*
X149606Y9650D01*
X149437Y9481D01*
X149606Y10497D02*
X149606Y10835D01*
X149606Y10666D01*
X148929Y10666D01*
X148929Y10497D01*
X148929Y11343D02*
X148929Y12020D01*
X149606Y11343D01*
X149606Y12020D01*
X149606Y12867D02*
X149606Y12528D01*
X149437Y12359D01*
X149098Y12359D01*
X148929Y12528D01*
X148929Y12867D01*
X149098Y13036D01*
X149267Y13036D01*
X149267Y12359D01*
X34963Y22031D02*
X34763Y22231D01*
X34363Y22231D01*
X34163Y22031D01*
X34163Y21231D01*
X34363Y21031D01*
X34763Y21031D01*
X34963Y21231D01*
X35563Y21031D02*
X35962Y21031D01*
X36162Y21231D01*
X36162Y21631D01*
X35962Y21831D01*
X35563Y21831D01*
X35363Y21631D01*
X35363Y21231D01*
X35563Y21031D01*
X36562Y21031D02*
X36562Y21831D01*
X36762Y21831D01*
X36962Y21631D01*
X36962Y21031D01*
X36962Y21631D01*
X37162Y21831D01*
X37362Y21631D01*
X37362Y21031D01*
X37762Y21031D02*
X37762Y21831D01*
X37962Y21831D01*
X38162Y21631D01*
X38162Y21031D01*
X38162Y21631D01*
X38362Y21831D01*
X38562Y21631D01*
X38562Y21031D01*
X39161Y21031D02*
X39561Y21031D01*
X39761Y21231D01*
X39761Y21631D01*
X39561Y21831D01*
X39161Y21831D01*
X38961Y21631D01*
X38961Y21231D01*
X39161Y21031D01*
X40161Y21031D02*
X40161Y21831D01*
X40761Y21831D01*
X40961Y21631D01*
X40961Y21031D01*
X42560Y22231D02*
X42560Y21031D01*
X43160Y21031D01*
X43360Y21231D01*
X43360Y22031D01*
X43160Y22231D01*
X42560Y22231D01*
X43760Y21031D02*
X44160Y21031D01*
X43960Y21031D01*
X43960Y21831D01*
X43760Y21831D01*
X44960Y21031D02*
X45359Y21031D01*
X45559Y21231D01*
X45559Y21631D01*
X45359Y21831D01*
X44960Y21831D01*
X44760Y21631D01*
X44760Y21231D01*
X44960Y21031D01*
X46759Y22231D02*
X46759Y21031D01*
X46159Y21031D01*
X45959Y21231D01*
X45959Y21631D01*
X46159Y21831D01*
X46759Y21831D01*
X47759Y21031D02*
X47359Y21031D01*
X47159Y21231D01*
X47159Y21631D01*
X47359Y21831D01*
X47759Y21831D01*
X47959Y21631D01*
X47959Y21431D01*
X47159Y21431D01*
X48358Y21031D02*
X48958Y21031D01*
X49158Y21231D01*
X48958Y21431D01*
X48558Y21431D01*
X48358Y21631D01*
X48558Y21831D01*
X49158Y21831D01*
X59605Y16721D02*
X59436Y16891D01*
X59097Y16891D01*
X58928Y16721D01*
X58928Y16552D01*
X59097Y16383D01*
X59436Y16383D01*
X59605Y16214D01*
X59605Y16044D01*
X59436Y15875D01*
X59097Y15875D01*
X58928Y16044D01*
X60452Y16891D02*
X60113Y16891D01*
X59944Y16721D01*
X59944Y16044D01*
X60113Y15875D01*
X60452Y15875D01*
X60621Y16044D01*
X60621Y16721D01*
X60452Y16891D01*
X60959Y16891D02*
X61636Y16891D01*
X61298Y16891D01*
X61298Y15875D01*
X62652Y15875D02*
X61975Y15875D01*
X62652Y16552D01*
X62652Y16721D01*
X62483Y16891D01*
X62144Y16891D01*
X61975Y16721D01*
X62991Y16721D02*
X63160Y16891D01*
X63499Y16891D01*
X63668Y16721D01*
X63668Y16552D01*
X63499Y16383D01*
X63329Y16383D01*
X63499Y16383D01*
X63668Y16214D01*
X63668Y16044D01*
X63499Y15875D01*
X63160Y15875D01*
X62991Y16044D01*
X132690Y21336D02*
X132690Y22352D01*
X133197Y22860D01*
X133705Y22352D01*
X133705Y21336D01*
X133705Y22098D01*
X132690Y22098D01*
X134213Y22860D02*
X134213Y21336D01*
X134721Y21844D01*
X135229Y21336D01*
X135229Y22860D01*
X136752Y22606D02*
X136498Y22860D01*
X135991Y22860D01*
X135737Y22606D01*
X135737Y21590D01*
X135991Y21336D01*
X136498Y21336D01*
X136752Y21590D01*
X136752Y22098D01*
X136244Y22098D01*
X127254Y19812D02*
X127254Y20151D01*
X127254Y19981D01*
X126238Y19981D01*
X126408Y19812D01*
X126238Y20658D02*
X126238Y21336D01*
X126408Y21336D01*
X127085Y20658D01*
X127254Y20658D01*
X125400Y19812D02*
X125400Y20151D01*
X125400Y19981D01*
X124384Y19981D01*
X124553Y19812D01*
X124553Y20658D02*
X124384Y20828D01*
X124384Y21166D01*
X124553Y21336D01*
X124723Y21336D01*
X124892Y21166D01*
X125061Y21336D01*
X125231Y21336D01*
X125400Y21166D01*
X125400Y20828D01*
X125231Y20658D01*
X125061Y20658D01*
X124892Y20828D01*
X124723Y20658D01*
X124553Y20658D01*
X124892Y20828D02*
X124892Y21166D01*
X123546Y19812D02*
X123546Y20151D01*
X123546Y19981D01*
X122530Y19981D01*
X122699Y19812D01*
X123376Y20658D02*
X123546Y20828D01*
X123546Y21166D01*
X123376Y21336D01*
X122699Y21336D01*
X122530Y21166D01*
X122530Y20828D01*
X122699Y20658D01*
X122868Y20658D01*
X123038Y20828D01*
X123038Y21336D01*
X121971Y20489D02*
X121971Y19812D01*
X121294Y20489D01*
X121124Y20489D01*
X120955Y20320D01*
X120955Y19981D01*
X121124Y19812D01*
X121124Y20828D02*
X120955Y20997D01*
X120955Y21336D01*
X121124Y21505D01*
X121802Y21505D01*
X121971Y21336D01*
X121971Y20997D01*
X121802Y20828D01*
X121124Y20828D01*
X120396Y20489D02*
X120396Y19812D01*
X119719Y20489D01*
X119550Y20489D01*
X119380Y20320D01*
X119380Y19981D01*
X119550Y19812D01*
X120396Y20828D02*
X120396Y21166D01*
X120396Y20997D01*
X119380Y20997D01*
X119550Y20828D01*
X118872Y20489D02*
X118872Y19812D01*
X118195Y20489D01*
X118026Y20489D01*
X117856Y20320D01*
X117856Y19981D01*
X118026Y19812D01*
X118872Y21505D02*
X118872Y20828D01*
X118195Y21505D01*
X118026Y21505D01*
X117856Y21336D01*
X117856Y20997D01*
X118026Y20828D01*
X117348Y20489D02*
X117348Y19812D01*
X116671Y20489D01*
X116502Y20489D01*
X116332Y20320D01*
X116332Y19981D01*
X116502Y19812D01*
X116502Y20828D02*
X116332Y20997D01*
X116332Y21336D01*
X116502Y21505D01*
X116671Y21505D01*
X116840Y21336D01*
X116840Y21166D01*
X116840Y21336D01*
X117009Y21505D01*
X117179Y21505D01*
X117348Y21336D01*
X117348Y20997D01*
X117179Y20828D01*
X115824Y20489D02*
X115824Y19812D01*
X115147Y20489D01*
X114978Y20489D01*
X114808Y20320D01*
X114808Y19981D01*
X114978Y19812D01*
X115824Y21336D02*
X114808Y21336D01*
X115316Y20828D01*
X115316Y21505D01*
X114300Y20489D02*
X114300Y19812D01*
X113623Y20489D01*
X113454Y20489D01*
X113284Y20320D01*
X113284Y19981D01*
X113454Y19812D01*
X113284Y21505D02*
X113284Y20828D01*
X113792Y20828D01*
X113623Y21166D01*
X113623Y21336D01*
X113792Y21505D01*
X114131Y21505D01*
X114300Y21336D01*
X114300Y20997D01*
X114131Y20828D01*
X112776Y20489D02*
X112776Y19812D01*
X112099Y20489D01*
X111930Y20489D01*
X111760Y20320D01*
X111760Y19981D01*
X111930Y19812D01*
X111760Y21505D02*
X111930Y21166D01*
X112268Y20828D01*
X112607Y20828D01*
X112776Y20997D01*
X112776Y21336D01*
X112607Y21505D01*
X112437Y21505D01*
X112268Y21336D01*
X112268Y20828D01*
X111252Y20489D02*
X111252Y19812D01*
X110575Y20489D01*
X110406Y20489D01*
X110236Y20320D01*
X110236Y19981D01*
X110406Y19812D01*
X110236Y20828D02*
X110236Y21505D01*
X110406Y21505D01*
X111083Y20828D01*
X111252Y20828D01*
X109728Y20489D02*
X109728Y19812D01*
X109051Y20489D01*
X108882Y20489D01*
X108712Y20320D01*
X108712Y19981D01*
X108882Y19812D01*
X108882Y20828D02*
X108712Y20997D01*
X108712Y21336D01*
X108882Y21505D01*
X109051Y21505D01*
X109220Y21336D01*
X109389Y21505D01*
X109559Y21505D01*
X109728Y21336D01*
X109728Y20997D01*
X109559Y20828D01*
X109389Y20828D01*
X109220Y20997D01*
X109051Y20828D01*
X108882Y20828D01*
X109220Y20997D02*
X109220Y21336D01*
X127965Y19812D02*
X128304Y19812D01*
X128134Y19812D01*
X128134Y20828D01*
X127965Y20658D01*
X129489Y20828D02*
X129150Y20658D01*
X128812Y20320D01*
X128812Y19981D01*
X128981Y19812D01*
X129319Y19812D01*
X129489Y19981D01*
X129489Y20151D01*
X129319Y20320D01*
X128812Y20320D01*
X130124Y19812D02*
X130463Y19812D01*
X130293Y19812D01*
X130293Y20828D01*
X130124Y20658D01*
X131648Y20828D02*
X130971Y20828D01*
X130971Y20320D01*
X131309Y20489D01*
X131478Y20489D01*
X131648Y20320D01*
X131648Y19981D01*
X131478Y19812D01*
X131140Y19812D01*
X130971Y19981D01*
X132461Y19812D02*
X132800Y19812D01*
X132630Y19812D01*
X132630Y20828D01*
X132461Y20658D01*
X133815Y19812D02*
X133815Y20828D01*
X133307Y20320D01*
X133985Y20320D01*
X135001Y19812D02*
X135340Y19812D01*
X135170Y19812D01*
X135170Y20828D01*
X135001Y20658D01*
X135847Y20658D02*
X136017Y20828D01*
X136355Y20828D01*
X136525Y20658D01*
X136525Y20489D01*
X136355Y20320D01*
X136186Y20320D01*
X136355Y20320D01*
X136525Y20151D01*
X136525Y19981D01*
X136355Y19812D01*
X136017Y19812D01*
X135847Y19981D01*
X137744Y19812D02*
X138083Y19812D01*
X137913Y19812D01*
X137913Y20828D01*
X137744Y20658D01*
X139268Y19812D02*
X138591Y19812D01*
X139268Y20489D01*
X139268Y20658D01*
X139098Y20828D01*
X138760Y20828D01*
X138591Y20658D01*
X140716Y19812D02*
X141055Y19812D01*
X140885Y19812D01*
X140885Y20828D01*
X140716Y20658D01*
X141562Y19812D02*
X141901Y19812D01*
X141732Y19812D01*
X141732Y20828D01*
X141562Y20658D01*
X143942Y19812D02*
X144280Y19812D01*
X144111Y19812D01*
X144111Y20828D01*
X143942Y20658D01*
X144788Y20658D02*
X144957Y20828D01*
X145296Y20828D01*
X145465Y20658D01*
X145465Y19981D01*
X145296Y19812D01*
X144957Y19812D01*
X144788Y19981D01*
X144788Y20658D01*
X147980Y19981D02*
X148150Y19812D01*
X148488Y19812D01*
X148658Y19981D01*
X148658Y20658D01*
X148488Y20828D01*
X148150Y20828D01*
X147980Y20658D01*
X147980Y20489D01*
X148150Y20320D01*
X148658Y20320D01*
X151867Y20658D02*
X152036Y20828D01*
X152374Y20828D01*
X152544Y20658D01*
X152544Y20489D01*
X152374Y20320D01*
X152544Y20151D01*
X152544Y19981D01*
X152374Y19812D01*
X152036Y19812D01*
X151867Y19981D01*
X151867Y20151D01*
X152036Y20320D01*
X151867Y20489D01*
X151867Y20658D01*
X152036Y20320D02*
X152374Y20320D01*
X54424Y11921D02*
X54254Y12090D01*
X53916Y12090D01*
X53746Y11921D01*
X53746Y11752D01*
X53916Y11582D01*
X54254Y11582D01*
X54424Y11413D01*
X54424Y11244D01*
X54254Y11074D01*
X53916Y11074D01*
X53746Y11244D01*
X54762Y11074D02*
X54762Y12090D01*
X55101Y11752D01*
X55439Y12090D01*
X55439Y11074D01*
X56455Y11921D02*
X56286Y12090D01*
X55947Y12090D01*
X55778Y11921D01*
X55778Y11244D01*
X55947Y11074D01*
X56286Y11074D01*
X56455Y11244D01*
X49166Y13546D02*
X48996Y13716D01*
X48658Y13716D01*
X48489Y13546D01*
X48489Y13377D01*
X48658Y13208D01*
X48996Y13208D01*
X49166Y13039D01*
X49166Y12869D01*
X48996Y12700D01*
X48658Y12700D01*
X48489Y12869D01*
X49504Y12700D02*
X49504Y13716D01*
X49843Y13377D01*
X50181Y13716D01*
X50181Y12700D01*
X50520Y13716D02*
X50520Y12700D01*
X51028Y12700D01*
X51197Y12869D01*
X51197Y13039D01*
X51028Y13208D01*
X50520Y13208D01*
X51028Y13208D01*
X51197Y13377D01*
X51197Y13546D01*
X51028Y13716D01*
X50520Y13716D01*
X45254Y12276D02*
X45085Y12446D01*
X44746Y12446D01*
X44577Y12276D01*
X44577Y12107D01*
X44746Y11938D01*
X45085Y11938D01*
X45254Y11769D01*
X45254Y11599D01*
X45085Y11430D01*
X44746Y11430D01*
X44577Y11599D01*
X45593Y11430D02*
X45593Y12446D01*
X45931Y12107D01*
X46270Y12446D01*
X46270Y11430D01*
X46608Y11430D02*
X46608Y12107D01*
X46947Y12446D01*
X47285Y12107D01*
X47285Y11430D01*
X47285Y11938D01*
X46608Y11938D01*
X42334Y12361D02*
X42164Y12192D01*
X42164Y11853D01*
X42334Y11684D01*
X42503Y11684D01*
X42672Y11853D01*
X42672Y12192D01*
X42841Y12361D01*
X43011Y12361D01*
X43180Y12192D01*
X43180Y11853D01*
X43011Y11684D01*
X42164Y13208D02*
X42164Y12869D01*
X42334Y12700D01*
X43011Y12700D01*
X43180Y12869D01*
X43180Y13208D01*
X43011Y13377D01*
X42334Y13377D01*
X42164Y13208D01*
X42164Y13715D02*
X43180Y13715D01*
X43180Y14223D01*
X43011Y14392D01*
X42334Y14392D01*
X42164Y14223D01*
X42164Y13715D01*
X43180Y14731D02*
X43180Y15070D01*
X43180Y14900D01*
X42164Y14900D01*
X42334Y14731D01*
X43180Y16255D02*
X43180Y15577D01*
X42503Y16255D01*
X42334Y16255D01*
X42164Y16085D01*
X42164Y15747D01*
X42334Y15577D01*
X42334Y16593D02*
X42164Y16762D01*
X42164Y17101D01*
X42334Y17270D01*
X42503Y17270D01*
X42672Y17101D01*
X42841Y17270D01*
X43011Y17270D01*
X43180Y17101D01*
X43180Y16762D01*
X43011Y16593D01*
X42841Y16593D01*
X42672Y16762D01*
X42503Y16593D01*
X42334Y16593D01*
X42672Y16762D02*
X42672Y17101D01*
X38803Y11599D02*
X38634Y11430D01*
X38634Y11091D01*
X38803Y10922D01*
X38972Y10922D01*
X39142Y11091D01*
X39142Y11430D01*
X39311Y11599D01*
X39480Y11599D01*
X39649Y11430D01*
X39649Y11091D01*
X39480Y10922D01*
X38634Y12446D02*
X38634Y12107D01*
X38803Y11938D01*
X39480Y11938D01*
X39649Y12107D01*
X39649Y12446D01*
X39480Y12615D01*
X38803Y12615D01*
X38634Y12446D01*
X38634Y12953D02*
X39649Y12953D01*
X39649Y13461D01*
X39480Y13630D01*
X38803Y13630D01*
X38634Y13461D01*
X38634Y12953D01*
X38803Y13969D02*
X38634Y14138D01*
X38634Y14477D01*
X38803Y14646D01*
X38972Y14646D01*
X39142Y14477D01*
X39311Y14646D01*
X39480Y14646D01*
X39649Y14477D01*
X39649Y14138D01*
X39480Y13969D01*
X39311Y13969D01*
X39142Y14138D01*
X38972Y13969D01*
X38803Y13969D01*
X39142Y14138D02*
X39142Y14477D01*
X38803Y14985D02*
X38634Y15154D01*
X38634Y15493D01*
X38803Y15662D01*
X39480Y15662D01*
X39649Y15493D01*
X39649Y15154D01*
X39480Y14985D01*
X38803Y14985D01*
X36576Y8280D02*
X35560Y8280D01*
X35899Y8619D01*
X35560Y8958D01*
X36576Y8958D01*
X36576Y9296D02*
X36576Y9635D01*
X36576Y9465D01*
X35899Y9465D01*
X35899Y9296D01*
X35899Y10820D02*
X35899Y10312D01*
X36068Y10142D01*
X36407Y10142D01*
X36576Y10312D01*
X36576Y10820D01*
X35899Y11158D02*
X36576Y11158D01*
X36237Y11158D01*
X36068Y11327D01*
X35899Y11497D01*
X35899Y11666D01*
X36576Y12343D02*
X36576Y12682D01*
X36407Y12851D01*
X36068Y12851D01*
X35899Y12682D01*
X35899Y12343D01*
X36068Y12174D01*
X36407Y12174D01*
X36576Y12343D01*
X36576Y13189D02*
X35560Y13189D01*
X35899Y13528D01*
X35560Y13867D01*
X36576Y13867D01*
X35560Y14882D02*
X35560Y14205D01*
X36576Y14205D01*
X36576Y14882D01*
X36068Y14205D02*
X36068Y14544D01*
X35560Y15221D02*
X36576Y15221D01*
X36576Y15898D01*
X35560Y16914D02*
X35560Y16236D01*
X36068Y16236D01*
X36068Y16575D01*
X36068Y16236D01*
X36576Y16236D01*
X37254Y9974D02*
X37084Y9804D01*
X37084Y9466D01*
X37254Y9296D01*
X37423Y9296D01*
X37592Y9466D01*
X37592Y9804D01*
X37761Y9974D01*
X37931Y9974D01*
X38100Y9804D01*
X38100Y9466D01*
X37931Y9296D01*
X37084Y10820D02*
X37084Y10481D01*
X37254Y10312D01*
X37931Y10312D01*
X38100Y10481D01*
X38100Y10820D01*
X37931Y10989D01*
X37254Y10989D01*
X37084Y10820D01*
X37084Y11328D02*
X38100Y11328D01*
X38100Y11836D01*
X37931Y12005D01*
X37254Y12005D01*
X37084Y11836D01*
X37084Y11328D01*
X37254Y12343D02*
X37084Y12513D01*
X37084Y12851D01*
X37254Y13021D01*
X37423Y13021D01*
X37592Y12851D01*
X37592Y12682D01*
X37592Y12851D01*
X37761Y13021D01*
X37931Y13021D01*
X38100Y12851D01*
X38100Y12513D01*
X37931Y12343D01*
X38100Y14036D02*
X38100Y13359D01*
X37423Y14036D01*
X37254Y14036D01*
X37084Y13867D01*
X37084Y13528D01*
X37254Y13359D01*
X37254Y14375D02*
X37084Y14544D01*
X37084Y14883D01*
X37254Y15052D01*
X37423Y15052D01*
X37592Y14883D01*
X37592Y14713D01*
X37592Y14883D01*
X37761Y15052D01*
X37931Y15052D01*
X38100Y14883D01*
X38100Y14544D01*
X37931Y14375D01*
X34206Y8246D02*
X34036Y8077D01*
X34036Y7738D01*
X34206Y7569D01*
X34375Y7569D01*
X34544Y7738D01*
X34544Y8077D01*
X34713Y8246D01*
X34883Y8246D01*
X35052Y8077D01*
X35052Y7738D01*
X34883Y7569D01*
X34206Y9262D02*
X34036Y9093D01*
X34036Y8754D01*
X34206Y8585D01*
X34883Y8585D01*
X35052Y8754D01*
X35052Y9093D01*
X34883Y9262D01*
X34036Y9601D02*
X34036Y10278D01*
X34206Y10278D01*
X34883Y9601D01*
X35052Y9601D01*
X34883Y10616D02*
X35052Y10785D01*
X35052Y11124D01*
X34883Y11293D01*
X34206Y11293D01*
X34036Y11124D01*
X34036Y10785D01*
X34206Y10616D01*
X34375Y10616D01*
X34544Y10785D01*
X34544Y11293D01*
X100321Y11938D02*
X99644Y11938D01*
X100321Y12615D01*
X100321Y12784D01*
X100152Y12954D01*
X99813Y12954D01*
X99644Y12784D01*
X100660Y12954D02*
X101337Y11938D01*
X101337Y12954D02*
X100660Y11938D01*
X101676Y11938D02*
X102014Y11938D01*
X101845Y11938D01*
X101845Y12954D01*
X101676Y12784D01*
X102522Y11938D02*
X102522Y12107D01*
X102691Y12107D01*
X102691Y11938D01*
X102522Y11938D01*
X104045Y11938D02*
X103368Y11938D01*
X104045Y12615D01*
X104045Y12784D01*
X103876Y12954D01*
X103538Y12954D01*
X103368Y12784D01*
X98552Y8382D02*
X98552Y7366D01*
X98552Y7874D01*
X99229Y7874D01*
X99229Y8382D01*
X99229Y7366D01*
X100245Y8212D02*
X100076Y8382D01*
X99737Y8382D01*
X99568Y8212D01*
X99568Y7535D01*
X99737Y7366D01*
X100076Y7366D01*
X100245Y7535D01*
X101091Y7366D02*
X101091Y8382D01*
X100583Y7874D01*
X101260Y7874D01*
X101599Y7535D02*
X101768Y7366D01*
X102107Y7366D01*
X102276Y7535D01*
X102276Y8212D01*
X102107Y8382D01*
X101768Y8382D01*
X101599Y8212D01*
X101599Y8043D01*
X101768Y7874D01*
X102276Y7874D01*
X104309Y15748D02*
X103632Y15748D01*
X104309Y16425D01*
X104309Y16594D01*
X104140Y16764D01*
X103801Y16764D01*
X103632Y16594D01*
X104648Y15748D02*
X104648Y15917D01*
X104817Y15917D01*
X104817Y15748D01*
X104648Y15748D01*
X106171Y16764D02*
X105494Y16764D01*
X105494Y16256D01*
X105833Y16425D01*
X106002Y16425D01*
X106171Y16256D01*
X106171Y15917D01*
X106002Y15748D01*
X105663Y15748D01*
X105494Y15917D01*
X106510Y16764D02*
X107187Y15748D01*
X107187Y16764D02*
X106510Y15748D01*
X108203Y15748D02*
X107525Y15748D01*
X108203Y16425D01*
X108203Y16594D01*
X108033Y16764D01*
X107695Y16764D01*
X107525Y16594D01*
X98349Y15020D02*
X98518Y15189D01*
X98857Y15189D01*
X99026Y15020D01*
X99026Y14850D01*
X98857Y14681D01*
X98687Y14681D01*
X98857Y14681D01*
X99026Y14512D01*
X99026Y14342D01*
X98857Y14173D01*
X98518Y14173D01*
X98349Y14342D01*
X99364Y14173D02*
X99364Y14342D01*
X99534Y14342D01*
X99534Y14173D01*
X99364Y14173D01*
X100888Y14173D02*
X100211Y14173D01*
X100888Y14850D01*
X100888Y15020D01*
X100719Y15189D01*
X100380Y15189D01*
X100211Y15020D01*
X101227Y15189D02*
X101904Y14173D01*
X101904Y15189D02*
X101227Y14173D01*
X102919Y14173D02*
X102242Y14173D01*
X102919Y14850D01*
X102919Y15020D01*
X102750Y15189D01*
X102411Y15189D01*
X102242Y15020D01*
X103258Y14173D02*
X103258Y14342D01*
X103427Y14342D01*
X103427Y14173D01*
X103258Y14173D01*
X104612Y14173D02*
X104612Y15189D01*
X104104Y14681D01*
X104781Y14681D01*
X93387Y13462D02*
X92710Y13462D01*
X92710Y12954D01*
X93049Y13123D01*
X93218Y13123D01*
X93387Y12954D01*
X93387Y12615D01*
X93218Y12446D01*
X92879Y12446D01*
X92710Y12615D01*
X93726Y13462D02*
X94403Y12446D01*
X94403Y13462D02*
X93726Y12446D01*
X94741Y13292D02*
X94911Y13462D01*
X95249Y13462D01*
X95418Y13292D01*
X95418Y13123D01*
X95249Y12954D01*
X95080Y12954D01*
X95249Y12954D01*
X95418Y12785D01*
X95418Y12615D01*
X95249Y12446D01*
X94911Y12446D01*
X94741Y12615D01*
X95757Y12446D02*
X95757Y12615D01*
X95926Y12615D01*
X95926Y12446D01*
X95757Y12446D01*
X97281Y12446D02*
X96603Y12446D01*
X97281Y13123D01*
X97281Y13292D01*
X97111Y13462D01*
X96773Y13462D01*
X96603Y13292D01*
X92710Y21844D02*
X93556Y20574D01*
X93556Y21844D02*
X92710Y20574D01*
X93980Y21844D02*
X94826Y21844D01*
X94403Y21844D01*
X94403Y20574D01*
X95249Y20574D02*
X95249Y21420D01*
X95672Y21844D01*
X96096Y21420D01*
X96096Y20574D01*
X96096Y21209D01*
X95249Y21209D01*
X96519Y21844D02*
X96519Y20574D01*
X97365Y20574D01*
X97788Y20574D02*
X98635Y21420D01*
X99693Y21844D02*
X99270Y21844D01*
X99058Y21632D01*
X99058Y20786D01*
X99270Y20574D01*
X99693Y20574D01*
X99904Y20786D01*
X99904Y21632D01*
X99693Y21844D01*
X101174Y21632D02*
X100962Y21844D01*
X100539Y21844D01*
X100328Y21632D01*
X100328Y21420D01*
X100539Y21209D01*
X100962Y21209D01*
X101174Y20997D01*
X101174Y20786D01*
X100962Y20574D01*
X100539Y20574D01*
X100328Y20786D01*
X102444Y21632D02*
X102232Y21844D01*
X101809Y21844D01*
X101597Y21632D01*
X101597Y20786D01*
X101809Y20574D01*
X102232Y20574D01*
X102444Y20786D01*
X59606Y7027D02*
X59436Y6858D01*
X59436Y6519D01*
X59606Y6350D01*
X59775Y6350D01*
X59944Y6519D01*
X59944Y6858D01*
X60113Y7027D01*
X60283Y7027D01*
X60452Y6858D01*
X60452Y6519D01*
X60283Y6350D01*
X59606Y8043D02*
X59436Y7874D01*
X59436Y7535D01*
X59606Y7366D01*
X60283Y7366D01*
X60452Y7535D01*
X60452Y7874D01*
X60283Y8043D01*
X59436Y8381D02*
X59436Y9058D01*
X59606Y9058D01*
X60283Y8381D01*
X60452Y8381D01*
X59606Y9397D02*
X59436Y9566D01*
X59436Y9905D01*
X59606Y10074D01*
X60283Y10074D01*
X60452Y9905D01*
X60452Y9566D01*
X60283Y9397D01*
X59606Y9397D01*
X66031Y21674D02*
X65862Y21844D01*
X65523Y21844D01*
X65354Y21674D01*
X65354Y21505D01*
X65523Y21336D01*
X65862Y21336D01*
X66031Y21167D01*
X66031Y20997D01*
X65862Y20828D01*
X65523Y20828D01*
X65354Y20997D01*
X66878Y21844D02*
X66539Y21844D01*
X66370Y21674D01*
X66370Y20997D01*
X66539Y20828D01*
X66878Y20828D01*
X67047Y20997D01*
X67047Y21674D01*
X66878Y21844D01*
X67386Y21844D02*
X68063Y21844D01*
X67724Y21844D01*
X67724Y20828D01*
X68401Y21674D02*
X68571Y21844D01*
X68909Y21844D01*
X69078Y21674D01*
X69078Y21505D01*
X68909Y21336D01*
X69078Y21167D01*
X69078Y20997D01*
X68909Y20828D01*
X68571Y20828D01*
X68401Y20997D01*
X68401Y21167D01*
X68571Y21336D01*
X68401Y21505D01*
X68401Y21674D01*
X68571Y21336D02*
X68909Y21336D01*
X69417Y20997D02*
X69586Y20828D01*
X69925Y20828D01*
X70094Y20997D01*
X70094Y21674D01*
X69925Y21844D01*
X69586Y21844D01*
X69417Y21674D01*
X69417Y21505D01*
X69586Y21336D01*
X70094Y21336D01*
X65422Y9965D02*
X65252Y10134D01*
X64914Y10134D01*
X64745Y9965D01*
X64745Y9796D01*
X64914Y9626D01*
X65252Y9626D01*
X65422Y9457D01*
X65422Y9288D01*
X65252Y9119D01*
X64914Y9119D01*
X64745Y9288D01*
X66268Y10134D02*
X65930Y10134D01*
X65760Y9965D01*
X65760Y9288D01*
X65930Y9119D01*
X66268Y9119D01*
X66437Y9288D01*
X66437Y9965D01*
X66268Y10134D01*
X66776Y10134D02*
X67453Y10134D01*
X67115Y10134D01*
X67115Y9119D01*
X68469Y9119D02*
X67792Y9119D01*
X68469Y9796D01*
X68469Y9965D01*
X68299Y10134D01*
X67961Y10134D01*
X67792Y9965D01*
X69484Y9119D02*
X68807Y9119D01*
X69484Y9796D01*
X69484Y9965D01*
X69315Y10134D01*
X68977Y10134D01*
X68807Y9965D01*
X69823Y9965D02*
X69992Y10134D01*
X70331Y10134D01*
X70500Y9965D01*
X70500Y9796D01*
X70331Y9626D01*
X70162Y9626D01*
X70331Y9626D01*
X70500Y9457D01*
X70500Y9288D01*
X70331Y9119D01*
X69992Y9119D01*
X69823Y9288D01*
X73152Y12192D02*
X73152Y11176D01*
X73660Y11176D01*
X73829Y11345D01*
X73829Y12022D01*
X73660Y12192D01*
X73152Y12192D01*
X74168Y11176D02*
X74168Y12192D01*
X74676Y12192D01*
X74845Y12022D01*
X74845Y11684D01*
X74676Y11515D01*
X74168Y11515D01*
X75183Y11176D02*
X75183Y11853D01*
X75522Y12192D01*
X75860Y11853D01*
X75860Y11176D01*
X75860Y11684D01*
X75183Y11684D01*
X76199Y12192D02*
X76199Y11176D01*
X76199Y11515D01*
X76876Y12192D01*
X76368Y11684D01*
X76876Y11176D01*
X31902Y12107D02*
X31902Y11430D01*
X31225Y12107D01*
X31056Y12107D01*
X30887Y11938D01*
X30887Y11599D01*
X31056Y11430D01*
X31056Y12446D02*
X30887Y12615D01*
X30887Y12954D01*
X31056Y13123D01*
X31733Y13123D01*
X31902Y12954D01*
X31902Y12615D01*
X31733Y12446D01*
X31056Y12446D01*
X31902Y13461D02*
X31902Y13800D01*
X31902Y13631D01*
X30887Y13631D01*
X31056Y13461D01*
X31056Y14308D02*
X30887Y14477D01*
X30887Y14816D01*
X31056Y14985D01*
X31733Y14985D01*
X31902Y14816D01*
X31902Y14477D01*
X31733Y14308D01*
X31056Y14308D01*
X31902Y15662D02*
X31564Y15323D01*
X31225Y15323D01*
X30887Y15662D01*
X30887Y16847D02*
X30887Y16170D01*
X31395Y16170D01*
X31225Y16508D01*
X31225Y16678D01*
X31395Y16847D01*
X31733Y16847D01*
X31902Y16678D01*
X31902Y16339D01*
X31733Y16170D01*
X31056Y17185D02*
X30887Y17355D01*
X30887Y17693D01*
X31056Y17863D01*
X31733Y17863D01*
X31902Y17693D01*
X31902Y17355D01*
X31733Y17185D01*
X31056Y17185D01*
X31902Y18878D02*
X31902Y18201D01*
X31225Y18878D01*
X31056Y18878D01*
X30887Y18709D01*
X30887Y18370D01*
X31056Y18201D01*
X30887Y19894D02*
X30887Y19217D01*
X31395Y19217D01*
X31225Y19555D01*
X31225Y19725D01*
X31395Y19894D01*
X31733Y19894D01*
X31902Y19725D01*
X31902Y19386D01*
X31733Y19217D01*
X31902Y20232D02*
X31564Y20571D01*
X31225Y20571D01*
X30887Y20232D01*
X28600Y11430D02*
X28600Y11769D01*
X28600Y11599D01*
X27585Y11599D01*
X27754Y11430D01*
X28600Y12954D02*
X28600Y12276D01*
X27923Y12954D01*
X27754Y12954D01*
X27585Y12784D01*
X27585Y12446D01*
X27754Y12276D01*
X28600Y13292D02*
X28600Y13631D01*
X28600Y13461D01*
X27585Y13461D01*
X27754Y13292D01*
X27754Y14138D02*
X27585Y14308D01*
X27585Y14646D01*
X27754Y14816D01*
X28431Y14816D01*
X28600Y14646D01*
X28600Y14308D01*
X28431Y14138D01*
X27754Y14138D01*
X28600Y15493D02*
X28262Y15154D01*
X27923Y15154D01*
X27585Y15493D01*
X27754Y16001D02*
X27585Y16170D01*
X27585Y16508D01*
X27754Y16678D01*
X27923Y16678D01*
X28093Y16508D01*
X28093Y16339D01*
X28093Y16508D01*
X28262Y16678D01*
X28431Y16678D01*
X28600Y16508D01*
X28600Y16170D01*
X28431Y16001D01*
X28600Y17693D02*
X28600Y17016D01*
X27923Y17693D01*
X27754Y17693D01*
X27585Y17524D01*
X27585Y17185D01*
X27754Y17016D01*
X28600Y18709D02*
X28600Y18032D01*
X27923Y18709D01*
X27754Y18709D01*
X27585Y18540D01*
X27585Y18201D01*
X27754Y18032D01*
X27585Y19725D02*
X27585Y19048D01*
X28093Y19048D01*
X27923Y19386D01*
X27923Y19555D01*
X28093Y19725D01*
X28431Y19725D01*
X28600Y19555D01*
X28600Y19217D01*
X28431Y19048D01*
X28600Y20063D02*
X28262Y20402D01*
X27923Y20402D01*
X27585Y20063D01*
X25908Y11430D02*
X25908Y11769D01*
X25908Y11599D01*
X24892Y11599D01*
X25062Y11430D01*
X25908Y12954D02*
X25908Y12276D01*
X25231Y12954D01*
X25062Y12954D01*
X24892Y12784D01*
X24892Y12446D01*
X25062Y12276D01*
X25062Y13292D02*
X24892Y13461D01*
X24892Y13800D01*
X25062Y13969D01*
X25739Y13969D01*
X25908Y13800D01*
X25908Y13461D01*
X25739Y13292D01*
X25062Y13292D01*
X24892Y14985D02*
X25062Y14646D01*
X25400Y14308D01*
X25739Y14308D01*
X25908Y14477D01*
X25908Y14816D01*
X25739Y14985D01*
X25569Y14985D01*
X25400Y14816D01*
X25400Y14308D01*
X25908Y15662D02*
X25569Y15323D01*
X25231Y15323D01*
X24892Y15662D01*
X25062Y16170D02*
X24892Y16339D01*
X24892Y16678D01*
X25062Y16847D01*
X25231Y16847D01*
X25400Y16678D01*
X25400Y16508D01*
X25400Y16678D01*
X25569Y16847D01*
X25739Y16847D01*
X25908Y16678D01*
X25908Y16339D01*
X25739Y16170D01*
X25908Y17863D02*
X25908Y17185D01*
X25231Y17863D01*
X25062Y17863D01*
X24892Y17693D01*
X24892Y17355D01*
X25062Y17185D01*
X25908Y18201D02*
X25908Y18540D01*
X25908Y18370D01*
X24892Y18370D01*
X25062Y18201D01*
X24892Y19725D02*
X25062Y19386D01*
X25400Y19048D01*
X25739Y19048D01*
X25908Y19217D01*
X25908Y19555D01*
X25739Y19725D01*
X25569Y19725D01*
X25400Y19555D01*
X25400Y19048D01*
X25908Y20063D02*
X25569Y20402D01*
X25231Y20402D01*
X24892Y20063D01*
X18940Y11786D02*
X18771Y11955D01*
X18771Y12293D01*
X18940Y12463D01*
X19617Y12463D01*
X19787Y12293D01*
X19787Y11955D01*
X19617Y11786D01*
X18940Y11786D01*
X19787Y13478D02*
X19787Y12801D01*
X19109Y13478D01*
X18940Y13478D01*
X18771Y13309D01*
X18771Y12971D01*
X18940Y12801D01*
X18940Y13817D02*
X18771Y13986D01*
X18771Y14325D01*
X18940Y14494D01*
X19617Y14494D01*
X19787Y14325D01*
X19787Y13986D01*
X19617Y13817D01*
X18940Y13817D01*
X19787Y14833D02*
X19787Y15171D01*
X19787Y15002D01*
X18771Y15002D01*
X18940Y14833D01*
X19787Y16018D02*
X19448Y15679D01*
X19109Y15679D01*
X18771Y16018D01*
X18940Y16525D02*
X18771Y16695D01*
X18771Y17033D01*
X18940Y17203D01*
X19617Y17203D01*
X19787Y17033D01*
X19787Y16695D01*
X19617Y16525D01*
X18940Y16525D01*
X18771Y18218D02*
X18940Y17880D01*
X19279Y17541D01*
X19617Y17541D01*
X19787Y17710D01*
X19787Y18049D01*
X19617Y18218D01*
X19448Y18218D01*
X19279Y18049D01*
X19279Y17541D01*
X18940Y18557D02*
X18771Y18726D01*
X18771Y19065D01*
X18940Y19234D01*
X19617Y19234D01*
X19787Y19065D01*
X19787Y18726D01*
X19617Y18557D01*
X18940Y18557D01*
X18940Y19572D02*
X18771Y19742D01*
X18771Y20080D01*
X18940Y20250D01*
X19109Y20250D01*
X19279Y20080D01*
X19279Y19911D01*
X19279Y20080D01*
X19448Y20250D01*
X19617Y20250D01*
X19787Y20080D01*
X19787Y19742D01*
X19617Y19572D01*
X19787Y20588D02*
X19448Y20927D01*
X19109Y20927D01*
X18771Y20588D01*
X17044Y6553D02*
X17044Y6892D01*
X17044Y6722D01*
X18059Y6722D01*
X18059Y6553D01*
X18059Y6892D01*
X18059Y7400D02*
X17382Y7400D01*
X17382Y7569D01*
X17552Y7738D01*
X18059Y7738D01*
X17552Y7738D01*
X17382Y7907D01*
X17552Y8077D01*
X18059Y8077D01*
X18398Y8415D02*
X17382Y8415D01*
X17382Y8923D01*
X17552Y9092D01*
X17890Y9092D01*
X18059Y8923D01*
X18059Y8415D01*
X18059Y9939D02*
X18059Y9600D01*
X17890Y9431D01*
X17552Y9431D01*
X17382Y9600D01*
X17382Y9939D01*
X17552Y10108D01*
X17721Y10108D01*
X17721Y9431D01*
X17382Y10447D02*
X18059Y10447D01*
X17721Y10447D01*
X17552Y10616D01*
X17382Y10785D01*
X17382Y10954D01*
X18059Y11462D02*
X18059Y11801D01*
X18059Y11632D01*
X17382Y11632D01*
X17382Y11462D01*
X17382Y12478D02*
X17382Y12817D01*
X17552Y12986D01*
X18059Y12986D01*
X18059Y12478D01*
X17890Y12309D01*
X17721Y12478D01*
X17721Y12986D01*
X18059Y13324D02*
X18059Y13663D01*
X18059Y13494D01*
X17044Y13494D01*
X17044Y13324D01*
X18059Y15525D02*
X17721Y15186D01*
X17382Y15186D01*
X17044Y15525D01*
X18059Y16033D02*
X17044Y16033D01*
X17382Y16371D01*
X17044Y16710D01*
X18059Y16710D01*
X18059Y17556D02*
X18059Y17218D01*
X17890Y17048D01*
X17552Y17048D01*
X17382Y17218D01*
X17382Y17556D01*
X17552Y17726D01*
X17721Y17726D01*
X17721Y17048D01*
X17213Y18233D02*
X17382Y18233D01*
X17382Y18064D01*
X17382Y18403D01*
X17382Y18233D01*
X17890Y18233D01*
X18059Y18403D01*
X17382Y18911D02*
X18059Y18911D01*
X17721Y18911D01*
X17552Y19080D01*
X17382Y19249D01*
X17382Y19418D01*
X18059Y19926D02*
X18059Y20265D01*
X18059Y20096D01*
X17382Y20096D01*
X17382Y19926D01*
X17382Y21450D02*
X17382Y20942D01*
X17552Y20773D01*
X17890Y20773D01*
X18059Y20942D01*
X18059Y21450D01*
X18059Y21788D02*
X17721Y22127D01*
X17382Y22127D01*
X17044Y21788D01*
X965Y20091D02*
X1642Y20091D01*
X1304Y20091D01*
X1304Y19075D01*
X1981Y19753D02*
X1981Y19075D01*
X1981Y19414D01*
X2150Y19583D01*
X2319Y19753D01*
X2489Y19753D01*
X3166Y19753D02*
X3504Y19753D01*
X3674Y19583D01*
X3674Y19075D01*
X3166Y19075D01*
X2997Y19245D01*
X3166Y19414D01*
X3674Y19414D01*
X4689Y19753D02*
X4181Y19753D01*
X4012Y19583D01*
X4012Y19245D01*
X4181Y19075D01*
X4689Y19075D01*
X5536Y19075D02*
X5197Y19075D01*
X5028Y19245D01*
X5028Y19583D01*
X5197Y19753D01*
X5536Y19753D01*
X5705Y19583D01*
X5705Y19414D01*
X5028Y19414D01*
X7059Y20091D02*
X7059Y19075D01*
X7398Y19414D01*
X7736Y19075D01*
X7736Y20091D01*
X8075Y19075D02*
X8413Y19075D01*
X8244Y19075D01*
X8244Y19753D01*
X8075Y19753D01*
X9598Y20091D02*
X9598Y19075D01*
X9091Y19075D01*
X8921Y19245D01*
X8921Y19583D01*
X9091Y19753D01*
X9598Y19753D01*
X10106Y19922D02*
X10106Y19753D01*
X9937Y19753D01*
X10276Y19753D01*
X10106Y19753D01*
X10106Y19245D01*
X10276Y19075D01*
X10783Y20091D02*
X10783Y19075D01*
X10783Y19583D01*
X10953Y19753D01*
X11291Y19753D01*
X11460Y19583D01*
X11460Y19075D01*
X13153Y19075D02*
X12815Y19414D01*
X12815Y19753D01*
X13153Y20091D01*
X13661Y19075D02*
X13661Y19753D01*
X13830Y19753D01*
X14000Y19583D01*
X14000Y19075D01*
X14000Y19583D01*
X14169Y19753D01*
X14338Y19583D01*
X14338Y19075D01*
X14677Y19075D02*
X15015Y19075D01*
X14846Y19075D01*
X14846Y19753D01*
X14677Y19753D01*
X15523Y19075D02*
X15862Y19075D01*
X15692Y19075D01*
X15692Y20091D01*
X15523Y20091D01*
X16370Y19075D02*
X16708Y19414D01*
X16708Y19753D01*
X16370Y20091D01*
X12615Y9652D02*
X11938Y9652D01*
X12615Y10329D01*
X12615Y10498D01*
X12446Y10668D01*
X12107Y10668D01*
X11938Y10498D01*
X13462Y9652D02*
X13462Y10668D01*
X12954Y10160D01*
X13631Y10160D01*
X11938Y8974D02*
X12107Y9144D01*
X12446Y9144D01*
X12615Y8974D01*
X12615Y8805D01*
X12446Y8636D01*
X12277Y8636D01*
X12446Y8636D01*
X12615Y8467D01*
X12615Y8297D01*
X12446Y8128D01*
X12107Y8128D01*
X11938Y8297D01*
X12954Y8974D02*
X13123Y9144D01*
X13462Y9144D01*
X13631Y8974D01*
X13631Y8297D01*
X13462Y8128D01*
X13123Y8128D01*
X12954Y8297D01*
X12954Y8974D01*
X12446Y6604D02*
X12446Y7620D01*
X11938Y7112D01*
X12615Y7112D01*
X12954Y7450D02*
X13123Y7620D01*
X13462Y7620D01*
X13631Y7450D01*
X13631Y6773D01*
X13462Y6604D01*
X13123Y6604D01*
X12954Y6773D01*
X12954Y7450D01*
X11938Y11176D02*
X12277Y11176D01*
X12107Y11176D01*
X12107Y12192D01*
X11938Y12022D01*
X12784Y12022D02*
X12954Y12192D01*
X13292Y12192D01*
X13462Y12022D01*
X13462Y11853D01*
X13292Y11684D01*
X13462Y11515D01*
X13462Y11345D01*
X13292Y11176D01*
X12954Y11176D01*
X12784Y11345D01*
X12784Y11515D01*
X12954Y11684D01*
X12784Y11853D01*
X12784Y12022D01*
X12954Y11684D02*
X13292Y11684D01*
X11938Y12700D02*
X12277Y12700D01*
X12107Y12700D01*
X12107Y13716D01*
X11938Y13546D01*
X13462Y12700D02*
X12784Y12700D01*
X13462Y13377D01*
X13462Y13546D01*
X13292Y13716D01*
X12954Y13716D01*
X12784Y13546D01*
X11938Y14224D02*
X12277Y14224D01*
X12107Y14224D01*
X12107Y15240D01*
X11938Y15070D01*
X12784Y15070D02*
X12954Y15240D01*
X13292Y15240D01*
X13462Y15070D01*
X13462Y14393D01*
X13292Y14224D01*
X12954Y14224D01*
X12784Y14393D01*
X12784Y15070D01*
X11938Y16594D02*
X12107Y16764D01*
X12446Y16764D01*
X12615Y16594D01*
X12615Y16425D01*
X12446Y16256D01*
X12615Y16087D01*
X12615Y15917D01*
X12446Y15748D01*
X12107Y15748D01*
X11938Y15917D01*
X11938Y16087D01*
X12107Y16256D01*
X11938Y16425D01*
X11938Y16594D01*
X12107Y16256D02*
X12446Y16256D01*
X12615Y18288D02*
X12277Y18118D01*
X11938Y17780D01*
X11938Y17441D01*
X12107Y17272D01*
X12446Y17272D01*
X12615Y17441D01*
X12615Y17611D01*
X12446Y17780D01*
X11938Y17780D01*
X130238Y24859D02*
X128905Y24859D01*
X128905Y23860D01*
X129571Y24193D01*
X129905Y24193D01*
X130238Y23860D01*
X130238Y23193D01*
X129905Y22860D01*
X129238Y22860D01*
X128905Y23193D01*
X104505Y22860D02*
X104505Y24859D01*
X103505Y23860D01*
X104838Y23860D01*
X77978Y24526D02*
X78311Y24859D01*
X78978Y24859D01*
X79311Y24526D01*
X79311Y24193D01*
X78978Y23860D01*
X78644Y23860D01*
X78978Y23860D01*
X79311Y23526D01*
X79311Y23193D01*
X78978Y22860D01*
X78311Y22860D01*
X77978Y23193D01*
X54038Y22860D02*
X52705Y22860D01*
X54038Y24193D01*
X54038Y24526D01*
X53705Y24859D01*
X53038Y24859D01*
X52705Y24526D01*
X27305Y22860D02*
X27971Y22860D01*
X27638Y22860D01*
X27638Y24859D01*
X27305Y24526D01*
X1936Y24526D02*
X2270Y24859D01*
X2936Y24859D01*
X3269Y24526D01*
X3269Y23193D01*
X2936Y22860D01*
X2270Y22860D01*
X1936Y23193D01*
X1936Y24526D01*
X142000Y2000D02*
X142666Y2000D01*
X142333Y2000D01*
X142333Y3999D01*
X142000Y3666D01*
X144666Y2000D02*
X144666Y3999D01*
X143666Y3000D01*
X144999Y3000D01*
X132000Y2000D02*
X132666Y2000D01*
X132333Y2000D01*
X132333Y3999D01*
X132000Y3666D01*
X133666Y3666D02*
X133999Y3999D01*
X134666Y3999D01*
X134999Y3666D01*
X134999Y3333D01*
X134666Y3000D01*
X134333Y3000D01*
X134666Y3000D01*
X134999Y2666D01*
X134999Y2333D01*
X134666Y2000D01*
X133999Y2000D01*
X133666Y2333D01*
X122000Y2000D02*
X122666Y2000D01*
X122333Y2000D01*
X122333Y3999D01*
X122000Y3666D01*
X124999Y2000D02*
X123666Y2000D01*
X124999Y3333D01*
X124999Y3666D01*
X124666Y3999D01*
X123999Y3999D01*
X123666Y3666D01*
X112000Y2000D02*
X112666Y2000D01*
X112333Y2000D01*
X112333Y3999D01*
X112000Y3666D01*
X113666Y2000D02*
X114333Y2000D01*
X113999Y2000D01*
X113999Y3999D01*
X113666Y3666D01*
X102000Y2000D02*
X102666Y2000D01*
X102333Y2000D01*
X102333Y3999D01*
X102000Y3666D01*
X103666Y3666D02*
X103999Y3999D01*
X104666Y3999D01*
X104999Y3666D01*
X104999Y2333D01*
X104666Y2000D01*
X103999Y2000D01*
X103666Y2333D01*
X103666Y3666D01*
X92786Y2340D02*
X93119Y2007D01*
X93786Y2007D01*
X94119Y2340D01*
X94119Y3673D01*
X93786Y4006D01*
X93119Y4006D01*
X92786Y3673D01*
X92786Y3339D01*
X93119Y3006D01*
X94119Y3006D01*
X82000Y3158D02*
X82333Y3491D01*
X83000Y3491D01*
X83333Y3158D01*
X83333Y2825D01*
X83000Y2492D01*
X83333Y2158D01*
X83333Y1825D01*
X83000Y1492D01*
X82333Y1492D01*
X82000Y1825D01*
X82000Y2158D01*
X82333Y2492D01*
X82000Y2825D01*
X82000Y3158D01*
X82333Y2492D02*
X83000Y2492D01*
X72000Y3999D02*
X73333Y3999D01*
X73333Y3666D01*
X72000Y2333D01*
X72000Y2000D01*
X63333Y3999D02*
X62666Y3666D01*
X62000Y3000D01*
X62000Y2333D01*
X62333Y2000D01*
X63000Y2000D01*
X63333Y2333D01*
X63333Y2666D01*
X63000Y3000D01*
X62000Y3000D01*
X53333Y3999D02*
X52000Y3999D01*
X52000Y3000D01*
X52666Y3333D01*
X53000Y3333D01*
X53333Y3000D01*
X53333Y2333D01*
X53000Y2000D01*
X52333Y2000D01*
X52000Y2333D01*
X43000Y2000D02*
X43000Y3999D01*
X42000Y3000D01*
X43333Y3000D01*
X32000Y3666D02*
X32333Y3999D01*
X33000Y3999D01*
X33333Y3666D01*
X33333Y3333D01*
X33000Y3000D01*
X32666Y3000D01*
X33000Y3000D01*
X33333Y2666D01*
X33333Y2333D01*
X33000Y2000D01*
X32333Y2000D01*
X32000Y2333D01*
X23333Y2000D02*
X22000Y2000D01*
X23333Y3333D01*
X23333Y3666D01*
X23000Y3999D01*
X22333Y3999D01*
X22000Y3666D01*
X12000Y2000D02*
X12666Y2000D01*
X12333Y2000D01*
X12333Y3999D01*
X12000Y3666D01*
X2000Y3666D02*
X2333Y3999D01*
X3000Y3999D01*
X3333Y3666D01*
X3333Y2333D01*
X3000Y2000D01*
X2333Y2000D01*
X2000Y2333D01*
X2000Y3666D01*
X34668Y19596D02*
X35068Y19596D01*
X35268Y19396D01*
X35268Y18796D01*
X34668Y18796D01*
X34468Y18996D01*
X34668Y19196D01*
X35268Y19196D01*
X35667Y18796D02*
X35667Y19596D01*
X36267Y19596D01*
X36467Y19396D01*
X36467Y18796D01*
X37667Y19996D02*
X37667Y18796D01*
X37067Y18796D01*
X36867Y18996D01*
X36867Y19396D01*
X37067Y19596D01*
X37667Y19596D01*
X42865Y19996D02*
X43665Y19996D01*
X43265Y19996D01*
X43265Y18796D01*
X44065Y19596D02*
X44065Y18796D01*
X44065Y19196D01*
X44265Y19396D01*
X44465Y19596D01*
X44665Y19596D01*
X45464Y19596D02*
X45864Y19596D01*
X46064Y19396D01*
X46064Y18796D01*
X45464Y18796D01*
X45264Y18996D01*
X45464Y19196D01*
X46064Y19196D01*
X46464Y18796D02*
X46464Y19596D01*
X47064Y19596D01*
X47264Y19396D01*
X47264Y18796D01*
X47664Y18796D02*
X48263Y18796D01*
X48463Y18996D01*
X48263Y19196D01*
X47863Y19196D01*
X47664Y19396D01*
X47863Y19596D01*
X48463Y19596D01*
X48863Y18796D02*
X49263Y18796D01*
X49063Y18796D01*
X49063Y19596D01*
X48863Y19596D01*
X49863Y18796D02*
X50463Y18796D01*
X50663Y18996D01*
X50463Y19196D01*
X50063Y19196D01*
X49863Y19396D01*
X50063Y19596D01*
X50663Y19596D01*
X51262Y19796D02*
X51262Y19596D01*
X51062Y19596D01*
X51462Y19596D01*
X51262Y19596D01*
X51262Y18996D01*
X51462Y18796D01*
X52262Y18796D02*
X52662Y18796D01*
X52862Y18996D01*
X52862Y19396D01*
X52662Y19596D01*
X52262Y19596D01*
X52062Y19396D01*
X52062Y18996D01*
X52262Y18796D01*
X53262Y19596D02*
X53262Y18796D01*
X53262Y19196D01*
X53462Y19396D01*
X53662Y19596D01*
X53862Y19596D01*
X54461Y18796D02*
X55061Y18796D01*
X55261Y18996D01*
X55061Y19196D01*
X54661Y19196D01*
X54461Y19396D01*
X54661Y19596D01*
X55261Y19596D01*
X141148Y14224D02*
X141148Y14901D01*
X141486Y15240D01*
X141825Y14901D01*
X141825Y14224D01*
X141825Y14732D01*
X141148Y14732D01*
X142163Y14224D02*
X142163Y14901D01*
X142671Y14901D01*
X142841Y14732D01*
X142841Y14224D01*
X143348Y14224D02*
X143687Y14224D01*
X143856Y14393D01*
X143856Y14732D01*
X143687Y14901D01*
X143348Y14901D01*
X143179Y14732D01*
X143179Y14393D01*
X143348Y14224D01*
X144872Y15240D02*
X144872Y14224D01*
X144364Y14224D01*
X144195Y14393D01*
X144195Y14732D01*
X144364Y14901D01*
X144872Y14901D01*
X145718Y14224D02*
X145380Y14224D01*
X145210Y14393D01*
X145210Y14732D01*
X145380Y14901D01*
X145718Y14901D01*
X145888Y14732D01*
X145888Y14563D01*
X145210Y14563D01*
X148935Y15070D02*
X148765Y15240D01*
X148427Y15240D01*
X148258Y15070D01*
X148258Y14393D01*
X148427Y14224D01*
X148765Y14224D01*
X148935Y14393D01*
X149442Y14901D02*
X149781Y14901D01*
X149950Y14732D01*
X149950Y14224D01*
X149442Y14224D01*
X149273Y14393D01*
X149442Y14563D01*
X149950Y14563D01*
X150458Y15070D02*
X150458Y14901D01*
X150289Y14901D01*
X150627Y14901D01*
X150458Y14901D01*
X150458Y14393D01*
X150627Y14224D01*
X151135Y15240D02*
X151135Y14224D01*
X151135Y14732D01*
X151305Y14901D01*
X151643Y14901D01*
X151812Y14732D01*
X151812Y14224D01*
X152320Y14224D02*
X152659Y14224D01*
X152828Y14393D01*
X152828Y14732D01*
X152659Y14901D01*
X152320Y14901D01*
X152151Y14732D01*
X152151Y14393D01*
X152320Y14224D01*
X153844Y15240D02*
X153844Y14224D01*
X153336Y14224D01*
X153167Y14393D01*
X153167Y14732D01*
X153336Y14901D01*
X153844Y14901D01*
X154690Y14224D02*
X154352Y14224D01*
X154182Y14393D01*
X154182Y14732D01*
X154352Y14901D01*
X154690Y14901D01*
X154859Y14732D01*
X154859Y14563D01*
X154182Y14563D01*
X141566Y13032D02*
X142243Y13032D01*
X141904Y13370D02*
X141904Y12693D01*
X153366Y13132D02*
X154043Y13132D01*
X20540Y11557D02*
X20371Y11726D01*
X20371Y12065D01*
X20540Y12234D01*
X21218Y12234D01*
X21387Y12065D01*
X21387Y11726D01*
X21218Y11557D01*
X20540Y11557D01*
X21387Y13081D02*
X20371Y13081D01*
X20879Y12573D01*
X20879Y13250D01*
X20540Y13588D02*
X20371Y13758D01*
X20371Y14096D01*
X20540Y14265D01*
X21218Y14265D01*
X21387Y14096D01*
X21387Y13758D01*
X21218Y13588D01*
X20540Y13588D01*
X21387Y15281D02*
X21387Y14604D01*
X20710Y15281D01*
X20540Y15281D01*
X20371Y15112D01*
X20371Y14773D01*
X20540Y14604D01*
X21387Y15958D02*
X21048Y15620D01*
X20710Y15620D01*
X20371Y15958D01*
X21387Y16466D02*
X21387Y16805D01*
X21387Y16635D01*
X20371Y16635D01*
X20540Y16466D01*
X20540Y17312D02*
X20371Y17482D01*
X20371Y17820D01*
X20540Y17990D01*
X21218Y17990D01*
X21387Y17820D01*
X21387Y17482D01*
X21218Y17312D01*
X20540Y17312D01*
X20540Y18328D02*
X20371Y18497D01*
X20371Y18836D01*
X20540Y19005D01*
X21218Y19005D01*
X21387Y18836D01*
X21387Y18497D01*
X21218Y18328D01*
X20540Y18328D01*
X20371Y20021D02*
X20371Y19344D01*
X20879Y19344D01*
X20710Y19682D01*
X20710Y19852D01*
X20879Y20021D01*
X21218Y20021D01*
X21387Y19852D01*
X21387Y19513D01*
X21218Y19344D01*
X21387Y20359D02*
X21048Y20698D01*
X20710Y20698D01*
X20371Y20359D01*
X22039Y11582D02*
X21870Y11752D01*
X21870Y12090D01*
X22039Y12260D01*
X22716Y12260D01*
X22885Y12090D01*
X22885Y11752D01*
X22716Y11582D01*
X22039Y11582D01*
X21870Y13275D02*
X22039Y12937D01*
X22378Y12598D01*
X22716Y12598D01*
X22885Y12767D01*
X22885Y13106D01*
X22716Y13275D01*
X22547Y13275D01*
X22378Y13106D01*
X22378Y12598D01*
X22039Y13614D02*
X21870Y13783D01*
X21870Y14122D01*
X22039Y14291D01*
X22716Y14291D01*
X22885Y14122D01*
X22885Y13783D01*
X22716Y13614D01*
X22039Y13614D01*
X22039Y14629D02*
X21870Y14799D01*
X21870Y15137D01*
X22039Y15307D01*
X22208Y15307D01*
X22378Y15137D01*
X22378Y14968D01*
X22378Y15137D01*
X22547Y15307D01*
X22716Y15307D01*
X22885Y15137D01*
X22885Y14799D01*
X22716Y14629D01*
X22885Y15984D02*
X22547Y15645D01*
X22208Y15645D01*
X21870Y15984D01*
X22885Y16491D02*
X22885Y16830D01*
X22885Y16661D01*
X21870Y16661D01*
X22039Y16491D01*
X21870Y18015D02*
X22039Y17676D01*
X22378Y17338D01*
X22716Y17338D01*
X22885Y17507D01*
X22885Y17846D01*
X22716Y18015D01*
X22547Y18015D01*
X22378Y17846D01*
X22378Y17338D01*
X22039Y18354D02*
X21870Y18523D01*
X21870Y18861D01*
X22039Y19031D01*
X22716Y19031D01*
X22885Y18861D01*
X22885Y18523D01*
X22716Y18354D01*
X22039Y18354D01*
X22039Y19369D02*
X21870Y19538D01*
X21870Y19877D01*
X22039Y20046D01*
X22716Y20046D01*
X22885Y19877D01*
X22885Y19538D01*
X22716Y19369D01*
X22039Y19369D01*
X22039Y20385D02*
X21870Y20554D01*
X21870Y20893D01*
X22039Y21062D01*
X22208Y21062D01*
X22378Y20893D01*
X22547Y21062D01*
X22716Y21062D01*
X22885Y20893D01*
X22885Y20554D01*
X22716Y20385D01*
X22547Y20385D01*
X22378Y20554D01*
X22208Y20385D01*
X22039Y20385D01*
X22378Y20554D02*
X22378Y20893D01*
X22885Y21401D02*
X22547Y21739D01*
X22208Y21739D01*
X21870Y21401D01*
X23538Y11481D02*
X23368Y11650D01*
X23368Y11989D01*
X23538Y12158D01*
X24215Y12158D01*
X24384Y11989D01*
X24384Y11650D01*
X24215Y11481D01*
X23538Y11481D01*
X23538Y12496D02*
X23368Y12666D01*
X23368Y13004D01*
X23538Y13174D01*
X23707Y13174D01*
X23876Y13004D01*
X24045Y13174D01*
X24215Y13174D01*
X24384Y13004D01*
X24384Y12666D01*
X24215Y12496D01*
X24045Y12496D01*
X23876Y12666D01*
X23707Y12496D01*
X23538Y12496D01*
X23876Y12666D02*
X23876Y13004D01*
X23538Y13512D02*
X23368Y13681D01*
X23368Y14020D01*
X23538Y14189D01*
X24215Y14189D01*
X24384Y14020D01*
X24384Y13681D01*
X24215Y13512D01*
X23538Y13512D01*
X23368Y15205D02*
X23368Y14528D01*
X23876Y14528D01*
X23707Y14866D01*
X23707Y15036D01*
X23876Y15205D01*
X24215Y15205D01*
X24384Y15036D01*
X24384Y14697D01*
X24215Y14528D01*
X24384Y15882D02*
X24045Y15543D01*
X23707Y15543D01*
X23368Y15882D01*
X24384Y17067D02*
X24384Y16390D01*
X23707Y17067D01*
X23538Y17067D01*
X23368Y16898D01*
X23368Y16559D01*
X23538Y16390D01*
X23538Y17406D02*
X23368Y17575D01*
X23368Y17913D01*
X23538Y18083D01*
X24215Y18083D01*
X24384Y17913D01*
X24384Y17575D01*
X24215Y17406D01*
X23538Y17406D01*
X24384Y18421D02*
X24384Y18760D01*
X24384Y18591D01*
X23368Y18591D01*
X23538Y18421D01*
X24384Y19945D02*
X24384Y19268D01*
X23707Y19945D01*
X23538Y19945D01*
X23368Y19775D01*
X23368Y19437D01*
X23538Y19268D01*
X24384Y20283D02*
X24045Y20622D01*
X23707Y20622D01*
X23368Y20283D01*
D105*
X128536Y6858D02*
D03*
X128536Y14224D02*
D03*
D106*
X74930Y10051D02*
D03*
M02*
