M48
;Layer_Color=9474304
;FILE_FORMAT=4:3
METRIC,TZ
;TYPE=NON_PLATED
T2F00S00C0.321
T3F00S00C0.361
T4F00S00C0.405
T5F00S00C0.455
T6F00S00C0.511
T7F00S00C0.573
T8F00S00C0.644
T9F00S00C0.723
T10F00S00C0.812
T11F00S00C0.912
T12F00S00C1.020
T13F00S00C1.150
T14F00S00C1.290
T15F00S00C1.450
T16F00S00C1.630
T17F00S00C1.830
T18F00S00C2.050
T19F00S00C2.300
T20F00S00C2.590
T21F00S00C2.910
T22F00S00C3.260
%
T02
X109220Y19143
T03
X110744Y19124
T04
X112268Y19102
T05
X113792Y19076
T06
X115316Y19049
T07
X116840Y19017
T08
X118364Y18982
T09
X119888Y18943
T10
X121455Y18898
T11
X123118Y18848
T12
X124883Y18794
T13
X126769Y18729
T14
X128788Y18659
T15
X130959Y18579
T16
X133298Y18489
T17
X135829Y18389
T18
X138568Y18279
T19
X141544Y18154
T20
X144788Y18009
T21
X148339Y17849
T22
X152223Y17674
M30
